<mxfile host="app.diagrams.net" agent="Mozilla/5.0 (Windows NT 10.0; Win64; x64) AppleWebKit/537.36 (KHTML, like Gecko) Chrome/126.0.0.0 Safari/537.36" version="24.7.6">
  <diagram name="第 1 页" id="fIiKC3si1xVZCLndjaky">
    <mxGraphModel dx="320" dy="737" grid="1" gridSize="10" guides="1" tooltips="1" connect="1" arrows="1" fold="1" page="1" pageScale="1" pageWidth="827" pageHeight="1169" math="0" shadow="0">
      <root>
        <mxCell id="0" />
        <mxCell id="1" parent="0" />
        <mxCell id="0jX1YbAM3DAvTDGvD8Pi-1" value="" style="shape=image;verticalLabelPosition=bottom;labelBackgroundColor=default;verticalAlign=top;aspect=fixed;imageAspect=0;image=data:image/png,iVBORw0KGgoAAAANSUhEUgAAB64AAAIICAYAAADe7cC3AAAAAXNSR0IArs4c6QAAIABJREFUeAHsvUmQHcd5rm2HI+7KS69uaGM7LDuk8B8KT9e6C/+Ku9DCdshymKGd/S98F14QpCgKIyeQBAmOIjiPoEiKFCdIAGeRBEcBnEBxpkiaEgn0gG400A2gG0CfA5uRf7xf93eYJ09WnTpD4/TwIAJRdaqycnwyqzrf/L78nd/5nd/5nVDw74svvgj/9V//Zf9PnjwZ+E8dwAAMwAAMwAAMwAAMwAAMwAAMwAAMwAAMwAAMwAAMwAAMwAAMwAAMwAAMdMqA687SoHP/pFu3CNcuWHeaGOEBFAZgAAZgAAZgAAZgAAZgAAZgAAZgAAZgAAZgAAZgAAZgAAZgAAZgAAZgoIwBidipgN0iXP/3f/83ltVYl8MADMAADMAADMAADMAADMAADMAADMAADMAADMAADMAADMAADMAADMAADCwoA9Km/V+TcI1ozcqHspUP3IMPGIABGIABGIABGIABGIABGIABGIABGIABGIABGIABGIABGIABGICBfjLg4nVDuJYpdj8TIC6AhQEYgAEYgAEYgAEYgAEYgAEYgAEYgAEYgAEYgAEYgAEYgAEYgAEYgAEYaMeAtOqGcC0/4u0e4D5QwQAMwAAMwAAMwAAMwAAMwAAMwAAMwAAMwAAMwAAMwAAMwAAMwAAMwAAM9JMBadUmXGNtDVj9BIu44AkGYAAGYAAGYAAGYAAGYAAGYAAGYAAGYAAGYAAGYAAGYAAGYAAGYKATBky4xtoaaDqBhrDwAgMwAAMwAAMwAAMwAAMwAAMwAAMwAAMwAAMwAAMwAAMwAAMwAAMw0E8GEK5PAlQ/gSIueIIBGIABGIABGIABGIABGIABGIABGIABGIABGIABGIABGIABGIABGOiUAROuO32I8IAGAzAAAzAAAzAAAzAAAzAAAzAAAzAAAzAAAzAAAzAAAzAAAzAAAzAAAzDQLwYQrrG4Dv2CiXgYmGAABmAABmAABmAABmAABmAABmAABmAABmAABmAABmAABmAABmAABrphAOEa4RrhGgZgAAZgAAZgAAZgAAZgAAZgAAZgAAZgAAZgAAZgAAZgAAZgAAZgAAYGygDCNQAOFMBuVlvwDKt0YAAGYAAGYAAGYAAGYAAGYAAGYAAGYAAGYAAGYAAGYAAGYAAGYGB5MYBwjXCNcA0DMAADMAADMAADMAADMAADMAADMAADMAADMAADMAADMAADMAADMAADA2UA4RoABwogK2GW10oY2pP2hAEYgAEYgAEYgAEYgAEYgAEYgAEYgAEYgAEYgAEYgAEYgAEY6IYBhGuEa4RrGIABGIABGIABGIABGIABGIABGIABGIABGIABGIABGIABGIABGIABGBgoAwjXADhQALtZbcEzrNKBARiAARiAARiAARiAARiAARiAARiAARiAARiAARiAARiAARiAgeXFAMI1wjXCNQzAAAzAAAzAAAzAAAzAAAzAAAzAAAzAAAzAAAzAAAzAAAzAAAzAAAwMlAGEawAcKICshFleK2FoT9oTBmAABmAABmAABmAABmAABmAABmAABmAABmAABmAABmAABmCgGwYQrhGuEa5hAAZgAAZgAAZgAAZgAAZgAAZgAAZgAAZgAAZgAAZgAAZgAAZgAAZgYKAMIFwD4EAB7Ga1Bc+wSgcGYAAGYAAGYAAGYAAGYAAGYAAGYAAGYAAGYAAGYAAGYAAGYAAGlhcDCNcI1wjXMAADMAADMAADMAADMAADMAADMAADMAADMAADMAADMAADMAADMAADMDBQBhCuAXCgALISZnmthKE9aU8YgAEYgAEYgAEYgAEYgAEYgAEYgAEYgAEYgAEYgAEYgAEYgIFuGEC4RrhGuIYBGIABGIABGIABGIABGIABGIABGIABGIABGIABGIABGIABGIABGICBgTKAcA2AAwWwm9UWPMMqHRiAARiAARiAARiAARiAARiAARiAARiAARiAARiAARiAARiAARhYXgwgXCNcI1zDAAzAAAzAAAzAAAzAAAzAAAzAAAzAAAzAAAzAAAzAAAzAAAzAAAzAwEAZQLgGwIECyEqY5bUShvakPWEABmAABmAABmAABmAABmAABmAABmAABmAABmAABmAABmAABrphAOEa4RrhGgZgAAZgAAZgAAZgAAZgAAZgAAZgAAZgAAZgAAZgAAZgAAZgAAZgAAYGygDCNQAOFMBuVlvwDKt0YAAGYAAGYAAGYAAGYAAGYAAGYAAGYAAGYAAGYAAGYAAGYAAGYGB5MYBwjXCNcA0DMAADMAADMAADMAADMAADMAADMAADMAADMAADMAADMAADMAADMAADA2UA4RoABwogK2GW10oY2pP2hAEYgAEYgAEYgAEYgAEYgAEYgAEYgAEYgAEYgAEYgAEYgAEY6IaBRS1c10+cCMfe3BMOb98WJu/aav91rmu6102B+/lMvXYizIzsClMf3h0OvbXF/utc13Svn2l1E9fx2onw8v7d4c5P7g1XvX+9/de5ruleN3HyDAMNDMAADMAADMAADMAADMAADMAADMAADMAADMAADMAADMAADMAADMBAvxlYlMK1hOmJc9aGvd/+Vhg77Tth8nv/FA7/yz/Yf53rmu4pjML2u1LaxTc9/Mtw4Ln/Gz6/50/C6La/DIe2fyNMbf+a/de5rumewihsu/j6fV/C9L/u+o/wlYe/Hr72xP8Of/b0N8MfPfPX9l/nX3vim+Er275uYRS23+kTHwMVDMAADMAADMAADMAADMAADMAADMAADMAADMAADMAADMAADMAADMBAJwwsKuF6dnzMxOjR7/59mD7tH8MX/3ZaCP/f97L/dU9hFFYCtp7tpODdhJ09OmJi9PAD3whHH/la+OLZPw/huf8n+1/3FEZhJWDr2W7S7OSZkaOjJkb/6aN/E/5w51+Hr776d+FPX/9/s/91T2EUViK3nu0kLcIy0MAADMAADMAADMAADMAADMAADMAADMAADMAADMAADMAADMAADMAADPSLgUUjXMtyevi7c1bVRWJ10XVZY+vZhbS+luX0vgfmLKuLxOqi67LG1rMLaX0ty+k/2/G/zKq6SKwuui5rbD2L9TUDS78GFuKBJRiAARiAARiAARiAARiAARiAARiAARiAARiAARiAARiAARiAgU4YWBTCtQTnfd/+Vjj+ve9krauLBOv4+rHvzbkPXwjxWoKzXH8fe/zrWevqIsE6vq5nFcdCiNcSnOX6+49f+NusdXWRYB1f/+Pn/9ZciyNeM4B0MoAQFl5gAAZgAAZgAAZgAAZgAAZgAAZgAAZgAAZgAAZgAAZgAAZgAAb6wcDAhWu5+Ja1dC+itQvYEq8VVz/dhsvFt6ylexGtXcBWHIqrn27DR6ZHzVq6F9HaBWyJ17K8Vpz9gIs4GKRgAAZgAAZgAAZgAAZgAAZgAAZgAAZgAAZgAAZgAAZgAAZgAAZgAAaqMDBw4Vr7U8vVt4vPvR4Vl+KsUvgqYbQ/tVx9u/jc61FxKc4qaVcJ86+7/6Mr9+AuVqdHuQ3XntdV0iYMgwwMwAAMwAAMwAAMwAAMwAAMwAAMwAAMwAAMwAAMwAAMwAAMwAAMwEA/GBiocD2z540w+t2/75to7aK34lTcvVaQ3HoPP/CNvonWLnorzn64DH9pdFf400f/pmv34Klo3fj96N8Exd1r/fE8gxQMwAAMwAAMwAAMwAAMwAAMwAAMwAAMwAAMwAAMwAAMwAAMwAAMwEAVBgYqXMsyevq0f+y7cK04+2F1Lcvoo4/0z9rahWvF2Q+ra1lG/+HOv+67cK04sbpmAKkygBAGTmAABmAABmAABmAABmAABmAABmAABmAABmAABmAABmAABmAABvrBwMCE6/qJE2Hvt78Vvvi30/ouXCvOfd/+VlAa3VZSvXYifH7Pn4Qvnv3zvltcK07FrTS6zd+J2onwlW1fD1999e/6LlwrTsWtNLrNH88xQMEADMAADMAADMAADMAADMAADMAADMAADMAADMAADMAADMAADMAADFRlYGDC9bE394Sx077Td9Ha3YUrbqVRtSLScDMju8Lotr/su2jtVteKW2mk6Vb9/fL+3eFrT3yz76K1uwtX3Eqjan4Ix6ADAzAAAzAAAzAAAzAAAzAAAzAAAzAAAzAAAzAAAzAAAzAAAzAAAzDQLQMDE64Pb98WJr/3TwsmXCtupdFtxUx9eHc4tL3/+1u7cK24lUa3+bvzk3vDnz29cMK14lYa3eaP5xiUYAAGYAAGYAAGYAAGYAAGYAAGYAAGYAAGYAAGYAAGYAAGYAAGYAAGqjIwMOF68q6t4fC//MOCCdeKW2lUrYg03KG3toSp7f3f39qFa8WtNNJ0q/6+6v3rwx890//9rd3iWnErjar5IRyDDgzAAAzAAAzAAAzAAAzAAAzAAAzAAAzAAAzAAAzAAAzAAAzAAAzAQLcMIFyfzMODcI1w3W2n4rl8n6JeqBcYgAEYgAEYgAEYgAEYgAEYgAEYgAEYgAEYgAEYgAEYgAEYgIEiBgYmXOMqHFfhRVBynQELBmAABmAABmAABmAABmAABmAABmAABmAABmAABmAABmAABmAABlYWAwMTro+9uSeMnfadBXMVrriVRrdAz4zsCqPb/jK4a+9+HxW30ug2fy/v3x2+9sTC7XGtuJVGt/njuZU1kNDetDcMwAAMwAAMwAAMwAAMwAAMwAAMwAAMwAAMwAAMwAAMwAAMwEAvDAxMuK6fOBH2fftb4Yt/O63v4rXi3PvtbwWl0W3l1Gsnwuf3/En44tk/77t4rTgVt9LoNn8naifCV7Z9PXz11b8Lvi91v46KU3ErjW7zx3MMTDAAAzAAAzAAAzAAAzAAAzAAAzAAAzAAAzAAAzAAAzAAAzAAAzAAA1UZGJhwrQxOnLM2TJ/2j30XrhWn4q5aCUXhDjz3f8PRR77Wd+FacSruonSrXv/XXf8R/nDnX/dduFacirtqPgjHgAMDMAADMAADMAADMAADMAADMAADMAADMAADMAADMAADMAADMAADMNALAwMVrmf2vBFGv/v3fReuFafi7qVi9Oz08C/D8APf6LtwrTgVd6/5e2l0V/jTR/+m78K14lTcveaP5xmcYAAGYAAGYAAGYAAGYAAGYAAGYAAGYAAGYAAGYAAGYAAGYAAGYAAGqjAwUOFaGZRl9OF/+Ye+ideKqx/W1l55soye2t4/q2vF1Q9ra8+fLKP/6Jn+WV0rrn/djbW11y9HBlIYgAEYgAEYgAEYgAEYgAEYgAEYgAEYgAEYgAEYgAEYgAEYgAEYWHgGBi5cz46PheHv/kM49r3v9CxeH//edywuxdkveGaPjoR9D3wjHHv86z1bXisOxaU4+5W/kenR8Gc7/lf44+f/tmfL6z9+4W8tLsXZr/wRz8J3YuqYOoYBGIABGIABGIABGIABGIABGIABGIABGIABGIABGIABGIABGFjqDAxcuFYFHntzT9j77W/1JF5LtN6nON7c03fRVW69P7/nT3oSryVaK45+uAhPoXt5/+7wlYe/3pN4LdH6K9u+HhRXGj+/GehgAAZgAAZgAAZgAAZgAAZgAAZgAAZgAAZgAAZgAAZgAAZgAAZgAAYWkoFFIVyrgBKcZXndjdtwPWNW2wsgWnvlS3CWtXQ3bsP1jJ5dCNHa8yfBWZbX3bgN1zN6FtGawcZ54ggLMAADMAADMAADMAADMAADMAADMAADMAADMAADMAADMAADMAADp5KBRSNcq9By8a39qUe/+/dh+rR/DF/822mF7sN1T2EUVs/00z14UQPIxbf2px5+4Bvh6CNfC188++eF7sN1T2EUVs/00z14Uf5Gjo4G7Xn9p4/+TfjDnX8dvvrq3xW6D9c9hVFYPaNni+LlOoMSDMAADMAADMAADMAADMAADMAADMAADMAADMAADMAADMAADMAADMDAQjKwqIRrL6isryVGy3342GnfCZPf+yezxJZltc51TfcUZiFcg3s+io6ynJYYLdffo9v+MhzaPmeJLctqneua7inMQlpZF+VPltMSo+X6+2tPfDP82dPfNEtss6x++pvha0/8b3MtrjBYWTPAFHHEddiAARiAARiAARiAARiAARiAARiAARiAARiAARiAARiAARiAARg4VQwsSuHaC18/ccKE6cPbt4XJu7baf51LrNY9DzeoY712IsyM7ApTH94dDr21xf7rXNd0b1D58nSP106YMH3nJ/eGq96/3v7rXGK17nk4jgw4MAADMAADMAADMAADMAADMAADMAADMAADMAADMAADMAADMAADMAADg2RgUQvXg6wY0qZjwgAMwAAMwAAMwAAMwAAMwAAMwAAMwAAMwAAMwAAMwAAMwAAMwAAMwMCpYQDh+uSpqWiApp5hAAZgAAZgAAZgAAZgAAZgAAZgAAZgAAZgAAZgAAZgAAZgAAZgAAZgIM8AwjXCNS7DYQAGYAAGYAAGYAAGYAAGYAAGYAAGYAAGYAAGYAAGYAAGYAAGYAAGYGCgDCBcA+BAAWRFSX5FCfVCvcAADMAADMAADMAADMAADMAADMAADMAADMAADMAADMAADMAADKwkBhCuEa4RrmEABmAABmAABmAABmAABmAABmAABmAABmAABmAABmAABmAABmAABmBgoAwgXAPgQAFcSatEKCuromAABmAABmAABmAABmAABmAABmAABmAABmAABmAABmAABmAABmAgzwDCNcI1wjUMwAAMwAAMwAAMwAAMwAAMwAAMwAAMwAAMwAAMwAAMwAAMwAAMwAAMDJQBhGsAHCiArCjJryihXqgXGIABGIABGIABGIABGIABGIABGIABGIABGIABGIABGIABGICBlcQAwjXCNcI1DMAADMAADMAADMAADMAADMAADMAADMAADMAADMAADMAADMAADMAADAyUAYRrABwogCtplQhlZVUUDMAADMAADMAADMAADMAADMAADMAADMAADMAADMAADMAADMAADOQZQLhGuEa4hgEYgAEYgAEYgAEYgAEYgAEYgAEYgAEYgAEYgAEYgAEYgAEYgAEYgIGBMoBwDYADBZAVJfkVJdQL9QIDMAADMAADMAADMAADMAADMAADMAADMAADMAADMAADMAADMLCSGEC4RrhGuIYBGIABGIABGIABGIABGIABGIABGIABGIABGIABGIABGIABGIABGICBgTKAcA2AAwVwJa0SoaysioIBGIABGIABGIABGIABGIABGIABGIABGIABGIABGIABGIABGICBPAMI1wjXCNcwAAMwAAMwAAMwAAMwAAMwAAMwAAMwAAMwAAMwAAMwAAMwAAMwAAMwMFAGEK4BcKAAsqIkv6KEeqFeYAAGYAAGYAAGYAAGYAAGYAAGYAAGYAAGYAAGYAAGYAAGYAAGVhIDCNcI1wjXMAADMAADMAADMAADMAADMAADMAADMAADMAADMAADMAADMAADMAADMDBQBhCuAXCgAK6kVSKUlVVRMAADMAADMAADMAADMAADMAADMAADMAADMAADMAADMAADMAADMJBnAOEa4RrhGgZgAAZgAAZgAAZgAAZgAAZgAAZgAAZgAAZgAAZgAAZgAAZgAAZgAAYGygDCNQAOFEBWlORXlFAv1AsMwAAMwAAMwAAMwAAMwAAMwAAMwAAMwAAMwAAMwAAMwAAMwMBKYgDhGuEa4RoGYAAGYAAGYAAGYAAGYAAGYAAGYAAGYAAGYAAGYAAGYAAGYAAGYAAGBsoAwjUADhTAlbRKhLKyKgoGYAAGYAAGYAAGYAAGYAAGYAAGYAAGYAAGYAAGYAAGYAAGYAAG8gwgXCNcI1zDAAzAAAzAAAzAAAzAAAzAAAzAAAzAAAzAAAzAAAzAAAzAAAzAAAzAwEAZQLgGwIECyIqS/IoS6oV6gQEYgAEYgAEYgAEYgAEYgAEYgAEYgAEYgAEYgAEYgAEYgAEYWEkMIFwjXCNcwwAMwAAMwAAMwAAMwAAMwAAMwAAMwAAMwAAMwAAMwAAMwAAMwAAMwMBAGUC4BsCBAriSVolQVlZFwQAMwAAMwAAMwAAMwAAMwAAMwAAMwAAMwAAMwAAMwAAMwAAMwECeAYRrhGuEaxiAARiAARiAARiAARiAARiAARiAARiAARiAARiAARiAARiAARiAARgYKAMI1wA4UABZUZJfUUK9UC8wAAMwAAMwAAMwAAMwAAMwAAMwAAMwAAMwAAMwAAMwAAMwAAMriQGEa4RrhGsYgAEYgAEYgAEYgAEYgAEYgAEYgAEYgAEYgAEYgAEYgAEYgAEYgAEYGCgDCNcAOFAAV9IqEcrKqigYgAEYgAEYgAEYgAEYgAEYgAEYgAEYgAEYgAEYgAEYgAEYgAEYyDOAcI1wjXANAzAAAzAAAzAAAzAAAzAAAzAAAzAAAzAAAzAAAzAAAzAAAzAAAzAAAwNlAOEaAAcKICtK8itKqBfqBQZgAAZgAAZgAAZgAAZgAAZgAAZgAAZgAAZgAAZgAAZgAAZgYCUxgHCNcI1wDQMwAAMwAAMwAAMwAAMwAAMwAAMwAAMwAAMwAAMwAAMwAAMwAAMwAAMDZQDhGgAHCuBKWiVCWVkVBQMwAAMwAAMwAAMwAAMwAAMwAAMwAAMwAAMwAAMwAAMwAAMwAAN5BhCuEa4RrmEABmAABmAABmAABmAABmAABmAABmAABmAABmAABmAABmAABmAABmBgoAwgXAPgQAFkRUl+RQn1Qr3AAAzAAAzAAAzAAAzAAAzAAAzAAAzAAAzAAAzAAAzAAAzAAAysJAYQrhGuEa5hAAZgAAZgAAZgAAZgAAZgAAZgAAZgAAZgAAZgAAZgAAZgAAZgAAZgYKAMIFwD4EABXEmrRCgrq6JgAAZgAAZgAAZgAAZgAAZgAAZgAAZgAAZgAAZgAAZgAAZgAAZgIM8AwjXCNcI1DMAADMAADMAADMAADMAADMAADMAADMAADMAADMAADMAADMAADMAADAyUAYRrABwogKwoya8ooV6oFxiAARiAARiAARiAARiAARiAARiAARiAARiAARiAARiAARiAgZXEAMI1wjXCNQzAAAzAAAzAAAzAAAzAAAzAAAzAAAzAAAzAAAzAAAzAAAzAAAzAAAwMlAGEawAcKIAraZUIZWVVFAzAAAzAAAzAAAzAAAzAAAzAAAzAAAzAAAzAAAzAAAzAAAzAAAzkGUC4RrhGuIYBGIABGIABGIABGIABGIABGIABGIABGIABGIABGIABGIABGIABGICBgTKAcA2AAwWQFSX5FSXUC/UCAzAAAzAAAzAAAzAAAzAAAzAAAzAAAzAAAzAAAzAAAzAAAzCwkhhAuEa4RriGARiAARiAARiAARiAARiAARiAARiAARiAARiAARiAARiAARiAARiAgYEygHANgAMFcCWtEqGsrIqCARiAARiAARiAARiAARiAARiAARiAARiAARiAARiAARiAARiAgTwDCNcI1wjXMAADMAADMAADMAADMAADMAADMAADMAADMAADMAADMAADMAADMAADMDBQBhCuAXCgALKiJL+ihHqhXmAABmAABmAABmAABmAABmAABmAABmAABmAABmAABmAABmAABlYSAwjXCNcI1zAAAzAAAzAAAzAAAzAAAzAAAzAAAzAAAzAAAzAAAzAAAzAAAzAAAzAwUAYQrgFwoACupFUilJVVUTAAAzAAAzAAAzAAAzAAAzAAAzAAAzAAAzAAAzAAAzAAAzAAAzCQZwDhGuEa4RoGYAAGYAAGYAAGYAAGYAAGYAAGYAAGYAAGYAAGYAAGYAAGYAAGYAAGBsoAwjUADhRAVpTkV5RQL9QLDMAADMAADMAADMAADMAADMAADMAADMAADMAADMAADMAADMDASmIA4RrhGuEaBmAABmAABmAABmAABmAABmAABmAABmAABmAABmAABmAABmAABmAABgbKAMI1AA4UwJW0SmQ5l/XI7tfC3lVrwt7TV4eDD22HqZMnw7H//E3Yf+V1Yd9Z661eVDf6P37DbdQP4+5AGeimv6pfO8PxcXj9hWF2bLxSecR+/Kyfj156dagdOVIpjuU8jlI2Vs7CAAzAAAzAAAzAAAzAAAzAAAzAAAzAAAzAAAysdAYWjXBdNKFtE9ur1oShDReFiXvurzRBXpuZCZOPPBmGz7ukIabtO/ucMHbtLSYmVWn02anD4dDDOyxdF+R01CT9+I23h6OvvB7qM8caE+2adNfku0/Ed3pcqmLWsdla+M4Db4ff3bQz/MXtr4X9R4436qRKPRNmeQzCR15+pcH+chSun/50Ivz+5S+E37vkuXDrm0NtGZ9+9/0w9MPzGnUSjwdLta/3s69+MH40/M8tL9u4cfYzH4c6QnZbpvpZ/930V4Tr5TFW95Mj4oIJGIABGIABGIABGIABGIABGIABGIABGIABGICBfjOwNITreUtFiT+yXpQofbJez070nxjdH0YuvDwrGJl4tGpNOLTtkcLnVcGyRhs6+9ziODKWkytVuH7+s4MNQW/rW8PZNuk3tMS3+AbCbiw4l0o7Hq/Vwz8/9I6JrH91x+thYvpEKeda0CJLa403Eq8P73zRFtzIKtX+T06VPr9U6qWXfK559hOrz69c+3L4aGJ6xddHL3XZzbPd9Fe94xoMj42HiXseMMY7sbienZxqimPsmpssDiyuF9+Y3g1XPEM7wgAMwAAMwAAMwAAMwAAMwAAMwAAMwAAMwAAM9MrAohOu9/1gQzj6yhtNk9szv/44jF9/25fW02euC0de3t0idph4fNmWOcF51ZowdvPWcPy3n1tch1/4pVlLm/hd8LwqM7aUlHh98P5t4djHn1ocJ4aGw9TTz80J46vWNLv8rddD7eChpnz7JL9P8Cvtqad2ZsNoQr/XxjzVz8tK8t8f/cAEqK/euDvsm5pZcmU41XVGektv0N4zMhX+4OqXjPPLd3/WlnH1e4l56u/cJQ0oAAAgAElEQVQHH/hZ2/ArjQmNExov5KVB4wfW1kuvT4hZt8DuRLhOWXdPKwjXS5OBtD35TTvCAAzAAAzAAAzAAAzAAAzAAAzAAAzAAAzAAAz0ysAiFK7PCdPvf9gq9tTrYfLJZxvidW6ie+rZFxr3x2+7K5ys1ZriOf7Z3jC0bqMJSiMXXxFSsVguxkevuNbuyzX58c8+b3o+rmztXytX4vG1onOf4JeQJRetReGW2vVOBb2lVj7yywDbzeIMjV/7fnCOjSPLqb/3qz9I/JdorcUAGkP6FS/xnNr+6u81hOtTW+9wTn3DAAzAAAzAAAzAAAzAAAzAAAzAAAzAAAzAAAwsZwaWjnB98mSYPTTZcAM+tPr8pv2qm9zzrjm/UHSeuPchE5T2nrHW9qmOG1ditOKVwDxx9/19E1R8gn85CdcS9LQ3rQQo3P0ySMb9aDmdx3sxy711lbIhXBf3h/1Hjoe/uP01Gzfkfl1u2KvUKWGK63RQdePvNYTrxdc2g2KCdGEBBmAABmAABmAABmAABmAABmAABmAABmAABmCgVwaWlHCtwrpr0X3fXx+mf/VOQ/Q4vncoDK29wERn7S8rITtXOXpGz0pEHr/97qYw8b1+Wkr6BP9yEq61L60EawnXZYKe6lHlHj7vkjA7cTAc/81ntv/vvjPX2fWhNReEA3fdF2anDje1Rdp28R7ih372qIWVS+YDd95r+wgrjb2r1oThDRfZHuaynk/j0G+lI0t5WdQrvJ7TvuliZvqd90v3Po/jO/bpb8P4LXeGYVnwR/HIYv/oG79qsfaPn9V57chR8yCgekmfn37z7fb5qNctv8r3vrPnrHu9LPImcGj7Y+a6Pk236XePcXjbWt1H+9CL96Z0TuYHan/ehS+1jVjQvtBWljPXWbtoQUm7+FSfaldrj3kWVA/Tb70bYnaq5s3Tq7IXcyxUp3WR+60xzOOPj/XjJyy/4zfePudqfJ4r4/q8S4zrdv2kEd98245de0sYWj1Xn1anZ58TdG3mo0/KGavXbWHQ+I13fMnXfP+auPfBtv21kY+k7be+NRx+75Lnwu9f/kJ4/rOD2XqIn831V6uPdRuD6kntm3rW8Od93HW+/Hp8dAZlIZ/19HHypHnJUN1pzJgdP2DpHdn1ahBfcd9VX9S2Fh6/wg6fu8lYVj2erBeL9LG3D40hReOXtqMwzuPxa75N2/UTL2vKZKd9wstXpX49bNHR3+c5DypFz+i66lZjnNqgafybr4uysbxlPFBfefPtpvbUODK54/HCdkjz1vP7oId2TfPC7/z7hnqhXmAABmAABmAABmAABmAABmAABmAABmAABmBgaTCwZIVrs5h+bU9DJDj62p6ga5qUL7OWPjG6vyFujW6+JtSOTjfiiIXrbifzc+D7BL/yJvEgF2apXavq7tfFEolHh1/c1RAlU/Fk6JyLg/YQL6qHVGyYfu/DMLRmzjo+jatIqJr58KPG3sPpM/Z71RoTwiUgFuVD97TvuQtW2XhOXx1cXM/FUyUfEsWL8lE/US0PRQKp8tSPOLxt0zqo2nf8eS04kdhvIn4kgHu8ErK193yuLnVNfXrkwsut7/szftQCCQlcYkLXquZN8Vbdi7lfwrWLeJ733FHMT7/9XmFdKN8S8SWUljK6ak04svu1bDziTgtCyp63fLyX2dIhEarjNjtyfDb8n5+8aYtddNTv+H56fvy3n88tMMkw4XVTJjj7uFs0Hig9Z7AsHg+jeDRGqW8W1U0TX/V60JYVyqsEbBO9C+rn2MefNsbGyR1PZOtFYrm7oPfyNx1XrbHFDUUCuZej6ZkO+0TcRlXqNw6fO3fmOxGuK/W3VWusnXILAOJ3ycTdP7U6K2rPsZu3Fo7DKk8/3ge9tmuuXrm2ND7AaSfaCQZgAAZgAAZgAAZgAAZgAAZgAAZgAAZgAAZaGVhSwnU84Tx09rlN1m1TTz/XEK7KRENZ/bpA5lbADkbsKlwixbFPPs0KCB6+6tEn+CUYSDyo+txiDVdV0FP+G2LJqjVBIqLabfKJp01slDAVi0Cjl20x69hcueO2H7vuFhMqZSkt60/FI+triT9jN22ds4wcG2+q59kDE412l0ihdP25wy/88kuBzMWfnMBUrzcJemJk8rFfmJjl6cuKX/lqErCiuGY++KghUKkuZD0pMUzPz7zzXlDZTERRPrSHesZKU4s03GJdDB9+7iWrT8+DhHUJi2XCdT/ikFcDpWl5//XHjQUhRWVP29XZkAcEWbNKwNY+9hKi1TYSjVxQUr1IbE/jkHA0tuXmub6/ak3Yf9X1Ni4oT96uEvu8vqrmTelUXZyhPEiU9Lo4+sobYd8PNliepp7a2bju92cn8/s6q73EjiyiVTeqBz0jPiYfedL6jsYQ1dWJfflFHhLq9v/oxsZYOLxxcxMfYmz8+tusXnNjkerY+uS81br6pBb0NPLx2C8ani3aLTZJ22r7R+Phf1z6nP3XeXo//m3luOp6K4faTgKw+rflY3S/1Y8sk9WHiiylfdztl3CtbSRc0NdCiaOvvN7Iz9SzL1i7pHw1FlRltqaIyyux2tr2h+dZOeN7Oj/y8u4GwzbuzPcT1YfyMbr5R426Ovz8y9m67bW/pnmqUr/pM+nvboVrtbsWAxx84GcNLlQX4ltjgI8bBx/8ecsYGr9LVJeKS+OLrOUVh8YNXVd77DtrQ/FCkT68D/rRrmmd8rv1Q5c6oU5gAAZgAAZgAAZgAAZgAAZgAAZgAAZgAAZgYOkwsKSEa03IuwAl4UB7XjtsPoneThxOJ601Ue1xSLQx4dAt/FatCWPX3GTCgJ7zcJ0eq+at03gHFf7WN4cqu/t1cdJEALnjlTvuSMiVMCtxQfclNkgAaro/HzZuN1nWyyV40cICuY1P28uFIaWRE4QlDkqIUz7kJlZxpPmIxV4JRbWIvzisRMWcKBiLcYWiX1QfRfmQOK58Dimfn+1tyafyIjHV3EHHdR2d9yOOuMzqRy72pOJdHC4+j9nIWVXHorRE7XZtkrOOVP2onoyvDqxLe9mLObYIzXEQ10F8rudyFqIeRn3HLW6L6njysacaot34zVsL41NcOSv2BuMF/UR5Ed/mal/eLe59KMuf59mPx2Zr4TsPvG3W1n91x+thYrp1EYKH1TFeRDRxzwMt4qOHPTEyGrQoxX/HRx93xWU8zsdhnMEqFtcmhp6xNig/YjOOR+dqOy24iK/HC6UkvucWoug5ifBiNOcmPF50Iy8huYUPyo9Z2Z++2lxe58I05auL/ho/r/Mq9Zs+k/7uRrhWW+bGAo87rgu9J7QAxO/p2PQuOX21LZBJ29O8r5w1t/ikyINLo6+o3bp4HyxEu8bl5HzpfIjTVrQVDMAADMAADMAADMAADMAADMAADMAADMAADHzJwJIQrjUJf/DB7WaNaALUqjVBAk3ckD6JrvtlYlE8aZ0Tw8rcDktckzWi7SWasYSN8xOfV81b/MxiPZfgJOFJe1tLiJIgVZZXF4bULkXCjepcAoPCaKFAzrI2bjcTuJ9+rjTdOE/xs2UuextW+xkBPV7UIA5k/RmnUeVcLp5lwSfhXVZ9Rc9IlBGbqg9ZdKfhuhF7FiKOOM5ehesicUj1pHpItwbwtBsCfEmbKG6LowPhOt6L+elP88Ko5yE9ditcp/Gkv2Uxq32UrZ9cf2uLCKpx0vZdruCaOo1bv2PG27lu9jpNvVbk4tU17Wetfa21v7UWvhSF8+v9qEMfd/smXEsUvvDy9nvHRwtEVB5ntGjsiUX6nJtwLebRmFcmriudxlYXsu6OttHwOo2P3fTX+HmdV6nf9Jn0dz/GsjRO/Vb5NWbI88H0ux808Ra/D3LfAHq+dvhIGNl0lfU19Tn1vTiduK90+z5YiHaN88j5lx+61AV1AQMwAAMwAAMwAAMwAAMwAAMwAAMwAAMwAANLh4FFJ1y7wFR4nHfznFpI+SS6nqsqXBcJAbKAm9zxeOEeyhIR5M63nVWbd4SqefPwi/nYibtflSMWrovEWhMBrrnJRIIiISwWG3JWdGV1FgtDEpGKwpaFkytotzItEteL4vXrcmsrPmVJnVoBehgd47LKaja+p3MXwozf1II9Ec3SZ/13P+LwuHTsRgiL2Sjqs2UCpjwu+N7WOXHJ8+cilupefdGvFx073Ys5jacsz2nYst/iQPUa/xd7KkdOWJarY7k91v2ihQBl6dkCknnrdLFaFtbbTukp3bKw9ZMnw78/+oEtdvnqjbtt7/Cy8LrX1BdvvCNr4dwuDh93+ylcV+EnzVeDvwJ34VqcojbLCqD1ehi7/la7LyFVgmoav/+O+2DZdhkKH4ftpkyKo0r9et6Kjn0Rrms1s7qP+0nsrj8dW+LxNdePPK9leev5fbBA7ep557h0PsJpK9oKBmAABmAABmAABmAABmAABmAABmAABmAABpoZWDLCtVyEj2y6Mky/+XaLpaEa1SfRJQCkE9Vxo8eT1tqzVAJJfL/pvFYLxz/fa1avctGq/WcVv/8v25M5jqdq3uJnFuN5N4KeC1xFiwS8nC7qFrVJ3G5lIqXHFx9lced7DpeJNLFb3zSNWIwsiyNOt+k8EiqcnypHiSdN8cxbE7rLfNv/94bbzMKw6kIKxScxrdc44nx1I4RVYSOu97Rfx2nm6snzF8dRpe06XZzh6fgxTi/Ns4cpOmo8EnvpWJOykhPcvD4VttN0lZ+4n6TpFf1u168V756RqfAHV79kwrX2DS8qe3xdi4dsr+L58VaLRrTP9/HPPq8sYvu42zfhuoIlc1wGP48XWKReJ2Ir+nTM0fOx5W9RG+Sut+M87jvtwno50mOV+k2fSX+XicNp2Pi3Ly4zTx2r1jTeybm6SPtC/C4pGzfK8hb38W7qb6HaNa4jzps/dqkP6gMGYAAGYAAGYAAGYAAGYAAGYAAGYAAGYAAGlgYDi064lsAoa6nYeqqKIOeT6Jq4TieqYxjjSesyQSN+pnFeq5ngp+dsgjzjUroRNrJ8rZq33LOL6ZpcJru7X7lSrpI3F9PaCVxeR0Xh4nYrExtyefI8dMJGKgzGQkWR5Xgubb8W5z8nrhRdy5a1XjcRLyduSoyWAGZ7iZe5s+9HHBHj3Qhh3i5Fba66i+s97dexhXGZeNRJ3jrdi9nbNz6W5TkO13Su9tjxRGMxQREPfj3lU3F9WZ+t7pGb0oraLb7uz3saVY5lbae4ZW199jMfm2j9lWtfDh9NTFcaN/Ssbdtw8ZVZUVJeC7RX/ezU4cL4fEwpG+e9zGXlqBImrsfcecO1+rmbgqx1PUxsWZ7bFiBmt0p7eJiy/qC043jbhfW8pscq9Zs+k/4uE4fTsP7buLjw8iwXXv74qPbzZ3WMx+Ls+DrfP8ryFvfxbt4Hcf3HeW133m1bxeXnfGl8nNNOtBMMwAAMwAAMwAAMwAAMwAAMwAAMwAAMwMBKZWARCtfnmFjVaYM09ic+fXUoc5MaW9XKii8WEaqmKVFQQocmmeXG9WSZQNiBNXjV9AcR7nitHv75oXdMgPqL218L+48cbxIDivJUVfRxEaRIQKoqNuTy4XlQe6UiRhw+TiMVBmNr1G6Eijhu7UN8/LO9zYszEpfQEjbs/+RUYT3XDh4Kk088HfZffUPYd/Ycjw3hY9WacGjbI23Z7EccqsNYiKkqrni7FLW54o0ForTtFkK47nQv5pgfPy/Ls4dJj439z+Uyeu0FYfLJZ7N7KZeJaeJS7Z/b1zdNL/fb20NxTD21sxqf4wdKLaAlVEuw/t1NO03AlpCdS7vwWq1mizAObP1J0DYC2qahwbjc7p93STgxlF9E42PKYhCum/affuX1Rh003IQXeP+I+5XcxDfGBR8fCo4abwrrtMv+msZXpX7TZ9LfZTynYfU73lvatuy47hZzVZ9uHVLWB+OxuGvhOvLi0c37YKHaNVdnXOtwzOl0jCJ86VgDf/AHAzAAAzAAAzAAAzAAAzAAAzAAAzAAAzDQKQPLRrhu7CPaZn/XeB9Xuf+uHa1uAeiVG7v5TAVODxMffYJfgksqvsXhFvN5N+5+VR4Xw9qJaZ24Ci8TG3J1GIvOZaJqvKgh3cc6FkLK4silb9ciV+Hal1nugwvDdjkRrkUYB+97uOFmemjNBeHYp7/tKJ1u44iFmKr18yUbxYtV4npP+06cZhkTcRxleetmL+ZcG8bppXnOhdc133N8aN1GW9SQCxfvBZ8bd7w+ux1n4n6ihUC5PHR6Ta7BJVrLVbjGkE6fT8NLoJx+693G3uYq64E7783Gq7bW/cUgXOfchbdzE66yx++adExK66aT33HfKesTZXFWqd+y53WvU+E6tlCfuOeBwoU5jYUCmXduX4Tr9z9sLF7rpv4Wql3b1Tf3+SMBBmAABmAABmAABmAABmAABmAABmAABmAABmBgsTOwbITr43uHzFJRQkVur1BviHhCW2KRX+/kGE985wSkNC6f4O9WUErjO9W/exH0YjGtyDItFuRkQSkBOS1jXOdlImX6nH7HYkdZm5eFk6ArC321YbcCUkOc/+F54djHn7aUMZf3bq4d3vli2HvGWstrVeE0TafTOLoRwpyNbi2uYzGwbBFKvKilTGTqdnFGWnedCtdaPKP8t2OrqbyXXm0uj+O0Ywt0uaaO71U5jxf1pHsxV3k+DbNvaiZ89cbdJlz/+6MfmNvwNEy3v7V9xMglV1mdFY3BPu7KrbjKlktL3jlU72UMVuE0F3d6LXUXHo83hQsFogUvw4mb8TT+Tn5301/T+Bv1u/5CswRP71f53alwfWT3a2Z1v+/764Pe5UVpxB5Y0jGw6rukLG89vw8WqF2L6oPr/DECAzAAAzAAAzAAAzAAAzAAAzAAAzAAAzAAAzCwVBhYNsJ1bL02tOb8cPyzz7OT2hP3PmRChYS9o5HL1k4azASeDkRMn+BfqsL1B+NHw//cMufud82zn2Trtaj+XPRR2YvEsCr1WVVsyOUjfrZM/InFjlRIil3UDnUpPMfuoMusBXNl6ORap8JpLu5O44hF1fGbt1ZixNkoEw1L81GvG1Niq6xNXDBUuCLhupe9mNP6K81zxpo+5rNsUYTGK1+QkBNrTcy9+Aob38o4T/Prv5sYL7H89vDtjre+ORR+75Lnwu9f/kKQC/Z24Tu9XyYsKq52rtPjBTNlDFbhtEreG/1f757X9oSGm/C1FwQtvCqKY+rZF+ZcpK9aE9JxqeiZdte76a9pnI38F7g5T8PnfrungaIFS+kzjbYoEa5rMzNh9Ipr597zC2Rx3dRXunwfLES7pvXFb/4YgQEYgAEYgAEYgAEYgAEYgAEYgAEYgAEYgAEYWGoMLBvhWhXfmAh2kbRWaxIDtK+wXPFKwJK7Zu3vGzeYrNAkHM189EmhC9KTtVo4+ODPG3utavI+jiN3vtSFa4nVcvcr8Voidq6MRddcaFCdmzj0zvvNz9frc/V5+mqrU7VhLq5Y3OvU4lrxTe54Yk7I0N7PD+9oaV/tkzt0zsVzop9Eu4yQJLFp35nrLMzo5h+FWoG779mpw7Yvb1oOCSr7r7renlddHNn1araseq525KjtX338N581hdECjaOvvmH30/j99+RjT83xOS+Q+XU/9iMOj8uPsQg4vHFzS9/ycPHR2SgTDduJwHGbjN28tWW/5bjPlwnXPe/FHAnS7fIc14GfS+xX/opchcd8WrgNFwVZffrzfmy0vcbAm7cGMef34uOJfcPh+G9bF/c01af2VC7aY71et3FS6cXx+vnE9InwV3e8buPGdx54OxybbR6LPVzRUdbIZePw7IGJuT2vSzxsxK7PcwtFDj//cqM/lzFYhdOicsTX44UFYzdtNc8gasuyxQp6Pi6r3J7PfPhRts4VVu+0Qz9/rG3/66a/xmXRuVixhRQ9COoufu87a0OpBbWn3eRVIOcqvF638T3eC11W9f68jlXfJe0WRsR9pZv3wUK0a1xOzvmDBAZgAAZgAAZgAAZgAAZgAAZgAAZgAAZgAAZgYCkysKyEa5uQvmyLCUCauJaQJXFGgrSs7zTpL6FA4qNEi7TBGu5TV60Jslic3P64uXTWdVkFS8AYkUXjqjUWj1mJHZhoiSeNdykL1726+3XRx+rsjLVh6OxzTZBVfaptxm+5s1Gfo5dtaXF/7HVZVWzw8OkxFgmUF6Ubs+FuwHXv0LZH8m1ar9t+ut7+suyffOTJIFFRjMj998H7t1kZiyx7p99936yDxaHl4/rbwsw779nzztjYlpuN0ZyY5vUghhXu8HMvNaUvQczzJ1ZzwmM/4kjrV7/jhSPKm9ev6kb1r0Uf8XPORq6cHq6dCKw9j5WW16cWBkjcUpre59VOEsYUpqhd+rkXc7s8e9niYyyCiUXl3cadoWFjTP3GyjjvAn6owErXFkf86Ma5sNrf+dxN1i5iS/GJP1m57jtrvY1ncR50bvU5L6IrPY2ZEhebGH/gZw23+UWLSLZ/NB7+x6XP2X+dp+m0++1sqC7kYl/5tvoY3W/liftr0WKXWChWn9Be2GJSZfG94D2eMgY9L2Vh2pXH77vHD9W/W89XsaJuEtnPWm9tqPHGGVEco5ddY32/bE9vz4eOnfbX+Fmdx/UrjwfaXkD58f9aIJM+k/7WAiG5chdraovpPW81ntfCDPEYPxMv/rHxMxrHNY7awiC9n9VP5t/Tqdt8H/+UZhG/SrOdcH2yD++DhWjXuL445w8TGIABGIABGIABGIABGIABGIABGIABGIABGICBpcbAshKuVfkSaGRNbSKPxMH0vwuT9XrThLiejfetbHkuiUeCkKwCqzT4UhauexX0YtHnwI/vM8EsV7eydpagVFSfVcWGoud1XZaKvnghlwcXt1KxJI5T9w7cdV9DFMnGUyKQej5cMCt6XtclVkqEjdOP66Hs2TI++xFHnCc/T0XPOH85MS1mQ2KvxxMfq4jAZX1eYqMEOm/3nHDd6+KMOL86r5Ln9BlZwGrRg4ttcd35ucY1t6gu2+NXguLYtbeUxqU4Vf9pPvS7KuOKI+cW/sjx2fB/fvKmWVvrqN+5dMquORte9uxx1Rqrs7L+euTl3Q2r6jQO7St+9PU3zRNEmSjteSkLU1aW+F7DXfj8+6RoAUL8jJ9rf+fGAobkfRSXTWNLzhrf4/Fjp/3Vn4uPqhsT4TP5KeIrfl7nshDPcV9U31p8UDZ+alHPwQe3B7nTV72kFu3x+NeTcN1BX8mNO14P/W5Xj5cjf5DAAAzAAAzAAAzAAAzAAAzAAAzAAAzAAAzAAAwsRQaWnXCtRpBVlixhZRHtE+L7zj7HxJx2YrO5UX7l9TB+4+1zYte81ZYmwBWH9s7UhHyZWJKCsFSF6/1Hjoe/uP01E6D++aF3wvFaq9ifljX9nYo+qv/9V17XEJOG1lxgQrDca6fPxr+rig3xM7lzpSNX4SZ8zLethBflaVpuzDMLGnLxHPv0t2a1bdaCUTxV+RCjU888bxb8sfAztPo8Y0yW1DlraeVFopQsLCXIyJq4wfiZ68Lw+ZeaW3S5Gs/l26/1Iw6PKz5a39vxeMOK0gW1hRSulX6arsQrCVfiTRagLlynboP1bL/3Yu5GuLY6rNfD9Jtvh5FNVzb6h407Z64zC1uxG1uoyv19XPdN54rrnfdtzBNT3g4+Dk6/9W6LBXzT8ydPhizjZ64zl/pavGFjaWJFrzie/nTC9rXW/tZb3ypejJKmF//W+Dr93odB1rLDF2xuEkdVHgnzZa7E47hU1iZPGes2hskdjxsz7nq6SCRVPOkYFsfd6Xlspaw2GbvulqBFC1XjsfFr2yPWz8W4teuqNTYOqE60D3oVS2dPL+03zkmuv/oz6VEcqK818jMvYlcVrjXmHn3jV0FbDPhYpnyUtYnqQQzq/eF51lELdhSX4nTrdl2Lhfyq75K2FtfR9gDZvnLW+srfC/1u17SN+M0fKDAAAzAAAzAAAzAAAzAAAzAAAzAAAzAAAzAAA0uFgUUjXC+VCltJ+ZToJPHp9y9/wcSobsreT9Gnm/R5hsG4TEjudS9m+GrmS4tbtMjldzfttEUvWvxCHTXXEfVBfcAADMAADMAADMAADMAADMAADMAADMAADMAADMAADMBAngGE68hqCki+hKQf7n5VnwjXX9YpfA2mLnwv35zr9V73YqZNm9t0z8hU+IOrXzLhWtsMUD/N9UN9UB8wAAMwAAMwAAMwAAMwAAMwAAMwAAMwAAMwAAMwAAMwUMwAwjXCdVZc2jd1LNz73mi4592R8NZouRvvsg6GcF3c+crqjXvV603ul4tc95tr5kuuMnfCcmcsN8Fet7P1unkSEOM/+/VYV3sxe1wc59pr975JGzPuf39/GDuKtTVcVO/H1BV1BQMwAAMwAAMwAAMwAAMwAAMwAAMwAAMwAAMwAAMwgHCNcN0Q8hZiQEC4ZpBZCK7iOMWY9gkfv/GOcPS1Pbantfa11n6/IxdebqK19t898vLuBWU9zhPncA8DMAADMAADMAADMAADMAADMAADMAADMAADMAADMAADMAADnTGAcI1wvaBiHsJ1Zx2SAazz+nLG9p6+2kTqluOqNeHQtkfCyXp9QVmn7TpvO+qMOoMBGIABGIABGIABGIABGIABGIABGIABGIABGIABGIABGHAGEK4RrhdUzHNRcd8PzgnT73+4oGk51BxX1gA3O3HQhOmRi68I+84+pyFe63zs2lvCsf/8DdwxzsEADMAADMAADMAADMAADMAADMAADMAADMAADMAADMAADMDAImcA4XqRNxAi7MoSYWlv2hsGYAAGYAAGYAAGYAAGYAAGYAAGYAAGYAAGYAAGYAAGYAAGYGAlMoBwjXDN6hIYgAEYgAEYgAEYgAEYgAEYgAEYgAEYgAEYgAEYgAEYgAEYgAEYgAEYGCgDCNcAOFAAV+JqEcrMKikYgAEYgAEYgAEYgAEYgAEYgAEYgAEYgOQJXzQAACAASURBVAEYgAEYgAEYgAEYgAEYaGYA4RrhGuEaBmAABmAABmAABmAABmAABmAABmAABmAABmAABmAABmAABmAABmAABgbKAMI1AA4UQFaSNK8koT6oDxiAARiAARiAARiAARiAARiAARiAARiAARiAARiAARiAARiAgZXIAMI1wjXCNQzAAAzAAAzAAAzAAAzAAAzAAAzAAAzAAAzAAAzAAAzAAAzAAAzAAAwMlAGEawAcKIArcbUIZWaVFAzAAAzAAAzAAAzAAAzAAAzAAAzAAAzAAAzAAAzAAAzAAAzAAAw0M4BwjXCNcA0DMAADMAADMAADMAADMAADMAADMAADMAADMAADMAADMAADMAADMAADA2UA4RoABwogK0maV5JQH9QHDMAADMAADMAADMAADMAADMAADMAADMAADMAADMAADMAADMDASmRg0QrXtSNHwsxHn4ST9XpeWK3Xw8R9D4Wjb/wqf3+JCtLH9w6FsWtuCsf+8zcLXi7V8fjNW8PUUztDbWam7+lNPf1cthzT77wXRi/bUt6+fWo/MbT/yuvCkV2vhpO1Wl/LODt+wOrvVLTVYhycTozuD/uvviFMv/l2cT/tUzuWlX/63ffDgbvuC/XjJ0rbd3ZsPMxOHS4MUzt4KEy/92EpJ5M7Hg+TTzxdGqaRV41dFZibfOypMPXM8y1hNb4dfmlXy/VG/G3qVv1s4icPLkjfzuXh2CefhsMvts+vxrjx2+8OtUOThW2Ri7/ytVotzHzw68J6m97zVjhw572hduTowqTfpl3KylE7Ol25Lx37+NMwfsud4cTI6EDLsWj7X9wO9Xo4cNdPw+HnXizkwtqlXg+Htj2SfW+VtVvbe7Wa9fHJR5+q1L56Hx98cHsYv+2utuNaWdoH798WDj28o69jgN57Y9fdEqbfeb9SWcryV+Ve/cQJ66/2rVf0PRi19cyvPw6HX/hleTtH4avkoV0Y+5a65c6exus0jYX+PlsM3y8ah4/88pW+cnRk9+vhwNafBL3v0zqNf2usbffNEIfv9Hyh22/ZfV+vsO+lTnkiPJNUMAADMAADMAADMAADMAADMAADK42BRStca9JpeMNFJnBK6EgbRteG120Me1etCZPbHz+lk5RpXvr5e3LHE2Hv6avD8LmbwvHffNZS7n6mpYm10UuvtvSG1lwQNOHbr/hnD02GkQsvD/vOXBemnn3hy3jrdZuM1/VDP3u0aeJQk4iadOz3ZOLh51+2fOy/4tqgMvetjGJ0/YVhaM35c5P4fZ4M71c+q8QjcWB24mB2Anl2ciocfeWNlj529LU9Ye8Za00861gErNVMVM0JtvXZWWNm7Oatocr/4Q0X2zigSfAydk4MDYfhjZuLxwuJVg/vCCObrgwn9g23cKJ6GLn4Ckvr4AM/C8pnWd0qvPI//e4HpeEOPrTd+uD4DbeF+vHjjbD6rfFN/aSKAB7nRfUwtuXmuXhv/XHbvMbParGQxqGORbN6PRx88Odh/1XXh9mxA41yNMV98qS1rcqlvjP91ruF4dLnSn/XaiY4mmB18mSYfOwXJnblePD6Hj7vknD8t5/3J/0+9X3lX6JgVTFa4sW+szbMCXWd5GEF9L+Yl9rhI2Fk01Wt76Okzvy9JT7FSRxHV+e1mi2u07ij97ree3ofZeOq123c0Ti27wcbLLye0RiS4zgbR1Sexvt91Zq5MW1oJJ9u9Ey7OHXfvs3WX2hlmXzq2a7iFN8qp8bkKmnaWHj66rk+3WbcVd+3ettyc6hNT1eKX3nQAqzDz73U8VirZ72u1b5HXt5dOc2ysnucKku/v8+UrrfjoL5f4r42fuMdHbVVWb0defkVa3+N72V8zXz40dz3wI7H+7qww/O2kO3ndbecvq9XwveSFvbZApw2CxpnPvjIFjCXLt7ucNx2Ljs5alGlFmsuxMLmTvJBWCbnYAAGYAAGYAAGYAAGYAAGYGBlMrC4hev1F5pFpyY0UkBN4JWo8/COrNiWhl8Kv2Xx6WKvrK418bWQ+Y4n1iaf7G4Cuih/0796J+z7/noTv2KreVllaqJUotXYTc3CZEMUfPDnXU0eF+VFoqwsy4dWn99XSzqf+FXcRWkvlevOggSWVCy2dpGAcpMElC+F1Ym77w+aHJ49MNFS/qOvvtFWsD0xPBqGzrnYJujSPq6JMokbZYKN7smiUIs8xK8swMvCqy0kDGqyV5aqubDKx8glV1m+0klvLcAQ09ZXKlj+KT1ZJYp3jVdxP4i5kECmRTjKf3xdYo3ENolu8fUq5xJPlNdUzJ9++z0re9rG8W95KJBwp/9F9VSUh0b9bbgo39e0cOXGO2zBgyZFc22Qxi0hQvmI85iej15xreXXhUFZE4rN9P3gnA9tuCi7OCFN+5T/nhf/9/3gnDkvEW0mp62c524yrxL1mWMdcbIS+p+3nxa6Da3b2MKD3/fj9PsfBtV9N3yIrfGbtgYt6NEiMDE7dPa5xqEsQI/sfm1ujJo5FiRMjF9/m4WbeWeuT+qdqLFW3gjMmvLjT4PaV+1apZ94Gfyovq5FDfqm0LeFXy86auFSOgblwvoiAI1PufuF1+QJ4aNPgp5TP5UgO7r5mpCO/bnnq46Fetfr20nvlXT8zsUbX1Mda1wZuTi/cCkOm577uKKFgDpP73fz2+NUPfX7+0z5GfT3i38j6n1bhYGqdaj3hRZ+tFswpvjkLWLoh+dZfzeRsM14WzUPCreQ7ed1p8Vl8XfFUv++Xu7fS75obv+PbihdqOF90xalyYtNH7nsJC7Pr76vuvkO7SQtwq7MSSjanXaHARiAARiAARiAARiAARgoY2DRC9c5q6fGhHuJJZImYOUqt6zwi+2ehByJRQfuuCdM/WJn20n2XvPvE9CaGDWrzj5OjmjyXQKAhADPpwvImhxOJ+IlfkpokgipSbmqFqaKv4o1gKzXZTmgPHh+4qPyI5FvXNapbVxO+3NiTIJjjlEPs1SOPuGfEyM0ESzx9fhnX1qnmkB58RVh+IJLWwRFiTdDay8I+85aX2xdOM+aexgQ8/EEbFxvEssn7n0oTNxzf1Df1z1Z9Iqjqu5jPT6xokk4TQhK2PHr8VGib2pxaZPQl2/pSLRWnM68hJoiSzzxI9FKk5VxPtQW3QghxuW5m6x+WliWVefIaN/ElTi/fm6T6gWCmXvKkHjdkreC8UfhVCbznJCMKT7B29IH5wVy1buExEbe3v/QxEQJg35tsR1djJaoZ67DC+rF8y1R9NDPH2spj/qo+ojEGQ+bHpd7//Pyqu+NXr6lLfdmrSsvLo89VVhnHmd6dKFKY+XE3T+1bQeKGHduJdqpffRsGl9Pv7WVyj0P2DhWhXWJvHr/SrBvt/WFlzN9V0hglyAfv7sV9ugrr4fxG283gXDOevh8E68nH3nS+nT8Xikqc9Wx0BYobLiocKwtit+vH/9sry1w6FT49jrpZrz2tNPjQn6fKa2Bfr/Me96Rxxb3kpGWv+V3vd60cK7l/vw4OSdcN397FoXVdW0NoPe9+n5ZuE7vLWT7Ldfv6+X+vaTvlCqLKvz9IM8+nXJXJbzG+8knn2n7DVY1v1XSJAyTUTAAAzAAAzAAAzAAAzAAAzAAA50ysPSEa5+QPWOtuaTVxHz6X8KZhCC3vuu0UgYRXq6JNWks4VYTihLYZDlU6Fa0jZhRpQw+OaLJZE2EVXmmShgXXuTyNhaKJR7I+itnoasJEgmKnVreaEJbQoGOKQf6LRaK7sXh3aq4EytTt85rEc360DZV6rnfYVRP+p/Gq4ngVFiV6Gvu7DNu/CUUqu/JEr3dogITGtZe0N5itFYzN9Sa6JZFXOV9pjNtMTcZVzyxrf4nN9uxxZ7EH+05G4vrEnhknSyxI62z+LeEG3OpnqlbhVN+0vrVdbVFp0KIhDLjvkLdx3ns53ljcUAiMisNWa1rsUe7OsvlJydI+BiW64NqM41t8T0tgFDbFgmKuXQHcU35NGv3EydswYgs6+Lxqsq5j2kaH23v9kxfWM79T14ffE97E5K1IGq+DvSe0cR9vMWBhFf15yIvEv5s0bET8dK5zY23RfH7dfWDdh4IZM2thWNaoDN2/a2l7Pj3kvqKCcttxGsvZ5p3vy7uZFE4fP6lcyLwD88Lh3e+aO99cdjNooCqY6HGl576twuqp68Oqmev83ZHL3un43VZvM5Iv7/PPM1Bfr/4Aiaz5JyZaV/P89t4VFlYkXtPqMz6FtUCTbWV14GO8kag8TR+39v9et24bbmeGUfj+Px8odpvuX9fL+fvpXbfnik78beL32t3lBv5gz99uHTM928DjZVpf4jjr5rf+BnOmYiCARiAARiAARiAARiAARiAARjoFwOLQrjWxFC616hbK6R/uMuiR9YwZVZkFuaH59n+de2sh/pVkb3EIxFFFoipVWaVsvaSrk+syaXw2LW3mEvSXuLzZ92lcmzpqDbW3sG5dpOIpYnpWLR2C8vYesvjj496Lif6eRh3qShBopP9Lv35smMvE7+qD01yy01sWRqn8p7qUv/TNDUR3FTH85P7qUW9npNoqT2O5Za3ijip8BK4Y1bEQW4fQBNltW/zGWubwnu6sphyoSotQ/xbYtWxT39rIvTxz/eah4MyIdAsyDdcZH3Ew9m1tRfMCT1t3NKKZU24H37uxZa6Vb40xjXV7/zEuNrChRCVXR4BtEdiXJam8/nJfT0XC3JNYSpOuvf6jAnU6y8MEig8LmPjimvNDbJfaxzler3Nvo85QcLHsPQ9oXhtccX6C+esQOcFCu1zL3eqjXRPUX30mt7s/rGm8VHxHft4btuFg/c93HaBSFH6y7n/aTGWXHVrAZVEVL1jvf82Ju6vv7XRV6w+f3jenFv/DBfiyUTXEk7jPltU57ru3ObG27LndE9jgW2jUOIa3ry3nLG2K5G4Xfou0lre6/Vw5JevmAtwv+5jluJJxza9M3N9tV2aRfWq+ORNxepFW4LccU+2f4tzeReoHZps2/fVzvrG7OTbMVd2f8fnvnnalVf3nZF+f5952gv1/VJFOBu9bMucq/hLr270Se+buaMEbi0qrLKwIn5PiA1b/ClPI6P751zxR+NALq3GtWtusm9yLWRRW3q9VT0uVPst9+/r5fy9pG/U3HdzypSzUzRW6m9Deawo+mbSYgxbIJzZ0kYLOLQoWvnQ4q407fi30q+S3/gZzpmgggEYgAEYgAEYgAEYgAEYgAEY6BcDi0K4llCliampp3Y2LBp9IjD+w93CXXaNWe0eff3NRti4MizM5mvMLaX+uI/vLdZzWSNJjDuovZ2TiQZNQJtlaxurzm7Kpn04bQ/OCzaHsetuDdrjspt44mc0Qay2lHipc91rCI6r1tievY2JwXlreblLVfj4ugkLq9aYu9M4/vRcomdO9PNwCznxoj0U5fZPE/Vx3tudxxZu2l9xsYjXEgdyQkoqXJu11LmbzJW9RCFvZ9W5WVt/f7253/Q26PTok3aaME7rcnjjZda35Xo2vucT2+ZeucM9oXOioPIs4ULWqlVc7bYro7l8rtdt8YTcP8Z5V5lylpHDGy6e8yZw4x3WbzRxL15ikT9OVy5XZVkat4faSm7YNS7GYRf6XOlNv/GrpjSVb1kOazxoSr9eNxfscjtfJhDEgoQ/76zE7wm/p0ldLYDy3xpn3R2s8qBtAdI9sD3soj+6Zai2lrjz3koLNqqWyet0qfc/MVH0bjCWztoQDr+0q/HOlZW7i4Rx/9S5WzCrD8q1cFFdFgmsaXiv49x4m4bt9LdvpVJ1b+t28UvIjS28tQBA46LGJxNAzlxn9axFYnoXthOubV/ezMKAsnzE9aqxZfLRp2xMm2vH9ZYPWZYbsze1euHx94O5AN9XXYSU+HPgrp82jdcpG8bHfJ2Y95cb7zBPL2JPQquOMx92/i26EN9ncR0v5PeL3nct4/x8m/u3fb/4FAMxnyaKyyPTldfNbVly5jpbtCChL2YzrovcuQRiteeR3a8XCoS55/zaQrTfSvm+Xq7fS7lvGOclPvr7Ifdd43/j6l2kd1ZRP4vji8+1MGB4w0XtvRzNLzxCuGbCKeaHc3iAARiAARiAARiAARiAARg4lQwsCuFaBW4IXg/vsIlkn9xq/OFer5urXk1QyYpCf3jbBHIk9OoPeE0ilok7p7Jyq6QlaxzlV4JbTlzyMnU7+VmWB5+41OSzRBxNtJWFr3JPk9wS4YY3bp6zWJIV6LZHwsR9DwUJ1I32nJ/ElCgo8TxN20SHdRvNSqYsXQuX2R9Yz/gkX+qyvCW+et0WTUjg62QSSJNQmpjWsSXODifmF8PzEgdyQorKFwtAslxTP5QFu1wNuvgnKw9NRqudcyxXLWPZpF1RHt16rJe2kGgqS0bPp4SY/Vff0OJK0YSTJ57uiBWPU0dZhauMbi1TxHAs1sTP5841fmqi3eP0MJrYFKPWB44fb5TN77c9yro0GmM9fH121qw5cyJO0TWJSukCFQs7b9lm1nQl1utq23QSNWZFPKaLAuK8yOrW3SaPbLpqzoLPhchMGb2si/FoniR+sMFE63jMkjWVrPKreB4oKldcp2mYpdT/ivqVypSOae5+N7d4TOH9e0QMx2NErn6y4pgsk3e/HmbHDlgf9DrOjbdpnB39jrZSqbx3cLt3Va0WZEXr44DXRZp3vx6XP20DjdNaJCe37EXlSoVy9eGmRTwXXzE3pl1zU5j6xc6WMSEXr9d3N3vGarxv9z7LlT2Xj06uLcT3WZy++sAgvl/EpbwLxQvC1KdsAV+JN4M4703nCZ+594R/Z2v8b3B8aLJpkVccp1ml3rw16yEoDld2vhDtt5K+r71ul8P3kpclx6bfi4+N8eqh7c3jpI/vp6+e8+Lz4q7sd6h9oz7yZPaevhW1UNoX8cXppucav/2bS94q9P3Wt/dKu/cO95vbnvqgPmAABmAABmAABmAABmAABlYgA4tGuHaRUaKnJmd8IlB/OOuP6Tlrwvvn/hCftzaLBU9N3svyTBZTC7kvdPqHfS+/JZTJAigWrTVhISF55qNPGhNsmoRQGE0gTD3zfIs41W0efOJSLlU1oRtPJHYTp032XXeLTYZK6JRL3iO7XzNBTZNPmtD29vT49VtulCUc+DUddT0WS+N78bmH08Sk2j8WqjRJKZ6UbtP1ZF90Wea4G0qFi4WgOK303OtPx/Tekvtdr5uol4oRKofK531NFmjav1R7suueBDS1k1wOSvSxSa533u+oPmTZLHezPqFcOGk3v+9zLo+dCNcSjyZ+8mCLGKFyakLdxVVZbuXYkQcETfhLvBfzvba1M6xyx3GpnLEIFN+rci5X7XLZHo8vVZ7zMHpeVtBF42k6oezPxUdvS41pvdaV9TdZ0v3ohi/783wfVx0qXb03zEVmJIDYc0togYnGH43zsoyK69LP7X1w6dVz/CXW6+7u2rbTeP/D7PMejx+Xa/8r6lcqt5iI3y8KW7bgxr9H2vVH9Vm3um1650Ruh7U9gfeL3Fjm7aLxUFaih37+WGNsbNwr+Fidfud9G4Or7PMsziReVHGfHafrdZHm3a/HdZS2gZjWe1lh4zibzhMhUveKxkIbs39wTtD43xRHUj9e3z5OlIXN3dP3qTxz5O7pWq7sRWGrXvdxq1/fZ2m6Hr+O6b2F+u2L22JGlJZZga7baH2y160cckyoX0zcfX9Q31N61l6XbbFtStS2svDVN4hvsaHv0W5dvHvdef32q/1W2ve112N6TMcUv180Rvj9dseF/l5S+jk2c/nKjlfzW8FIdJbXC2c197yuiV/t6Z7+PWNbaKw+38bMsoV+en/JG5DS0zeXf/fuO2s94nXyfilqA65jiQIDMAADMAADMAADMAADMAADvTGwaIRrNaSEUwlCmpjwiUCdz3zw67nV4bEYsfs1m+SSK1xNPElE2nf2OeHIrldP2SRcL/BJPNNEuU2Wz1thKT6fsEgFeA8vgdWEw8gytNt8qG5V35q81sIATYa4eNhNnBIxJUJrgiOdmIzbM47bJps2X2MTh/F15W1o7QVNe+TG9/1c4VyASF0+yzJYeUlFcX+216Pxmtlvudd4B/G8t4+5f02EfQm4bnVhrDz/cqOPaTJV7to1uaX/bn1dVAZZ6soyOBZ1bEJs1RpbPKHnvA+obdN4xIv+p9eLhOucZbBPwKkfxfuey0JqeN3GtiKIM1d1gl0LVCTqa5xK863fHp/KHd/vZSJWk5Xm0veH59kE5vHPPjc33XG9l5037eE9H0ect6rn3pa5Nqsah4fLTfp6/DlW4ucGYVno6bc7pvusu1tjjaGp5bS16y13tlhaWxruPvyMtXMLnDJW5Cup/xX1K9WVWPL3hhbhjFx0RalQ5eNj+l5L27aozzqnB+66z96x/js33jb6pXsikFeAeU80aXrxb1/gZkJDsvVGI85obHfONB76PtFxfEXnXhdpn/brWgjmFtVpG6jctpAmWahWlJZfL6rX3Jjgz8RHr++yccLDqx61CC5eOKL3nDyyHNr+WHbhoJe9HR+eRpWj8trP77M0zUF8v8j7jr5tZfUZ56fRPg/8rOl6HKbqeRUmlA99S8uDwvRb71qaWsAjjzFqewnsVdMrCtfv9lsp39fL+XupiE2918Wd//3a6A/+DVyvB211ou/wojGohcN5oTt+d8hzhhj3hYQat9KFfnE8Yti//ePrnPc28UL9UX8wAAMwAAMwAAMwAAMwAAMwUI2BRSVca+LIhKM9bzUJ1+b+NpmE1x/6spKQi0FNhGryVVbKJkRFAvepAkFWS2PX3jLnQrlAoPK8aEJUkwe5VfNlE6CaUNWEgyYzNemmfTdVZ92KzS44ahJRrrpHNl3ZtcgrUW7/j260yZXcJLOXSyv4fRLdhDXfKzOaUNd92/e3giWVJlZcgPD61VF1pX2y5SrZr4uPo9p3t098LKVJnXZ8evu4GKGy+ST8kV2v2Z6dslrS9dRy9tinvw1Dq883S8Ppd95r1LfXe3oUK+q36sO6Z224cXNjstgn7WJWnBkJPTmxRyK0BBtNDKbpSUTR4oWm9DIufyV+i6V21ntx3aRpafzRRKHnNxaAD2z9SZY9K3/G3X2uH6XpFf2WlbQEgtiLQrqwI362l7TieNJzb0vnKr3fye/cpK/HrzosikvPLWbhWvmO22aunBvmXOdGlj1apCXOXVRT2fV/es9bZhU/ueNxm2TWuOqs5+pkOfe/uLxF/UphVMfq63oXS0wu8irg8fn46GOiX0+PRf0o5dR/p/3Cr5fxnKZpvyMXsmmc2fCyyHv/Q+Nl8omnO/qG8LqI0xG/J4ZG7J0RX0/bQOPw6OYfNYnCRfmLryvOXN3nxoT4OT8vq1fFoYWPPmZLzNR4IWHf9tqd74O+d7j6X9q/vE5yefQ8dHrs5/dZLm21zakUpdyidfzG21u+IcraR3U9+dhTDTf7ubLE19ox0XAbfs1NLV5X/NtcVqV6j6ftHKfT7ryf7bdcv69X2veS2LSFRbHXmJu32t8qGnPUHyVeN/UHed548tm5RRZvvl34nZPjUdzob0Z/v9kWI2dtmNtWJvq2yD2ra6d6jCjKB9erTehQT9QTDMAADMAADMAADMAADMDAcmNgUQnXEmBrh4/YJKpPBBZO4NZqZlUmwUyuz9xtmk2UbtwcpvUHfiJ2e+OlFm4+YdntUZOqcqVsgrImPLVfdWRF7enqqHxp/+cil99e7qIJUE2kaUJNLo09PaUtl2/1Dvaw9XTcqtlW4l98ZTj6yusdTYx42cxi+9Yf20RfbpJ5duKgifWagGw8s/NFW6iQs1yVe1S5FNUEjofPHeX+MedqXOUYWnNBkOtcf84mjdQ+smScnGpc9/udHnuZ1JHIVDQxOgg+JUab++95UV9la2FQ/SkR/cWj+o1Z2p93SdCE7+T2x1vCldVtmlbTpF0yuSa29D+Nz0UYtXF6L/2dpuf3+yFcK67UhbbSU583y5akPApv9/soXLtAoIUbVd0A5/qs10svRwkBWoykfto2Ho3/R6cLw+UEiTJWPD3v91XY8GcGecyVU/nR2OlbGqifDV+w2fqehEe5uZWLe7kIl8VaJ/lP+0NZnS6F/udlL+pXuq86lnAtKzZ55tD4p3eOb4HgcfjR35duqebX02NRP0rr1PuFxK04jjRcfK/s3BaqnH2ObY2RGx9zz3YyZsbPe11o4ZwWM+k9rXrUO1XvjDj9tA307P6rb2i7OChOT+dN9VqvW7p6xxf1lfT5snrVO8wWUs3vu21xZqyCFaf1wYxnEa+TlndmZrxP85b77fH16/ssl4baplvhuuz7JZeW6lgLavTNqjJpQVfT9/b8lg+5xWoNzwAbLq7kGSBmQsKdFm/Zt9bsrI2NWuSqhQq6l8urb+GjsVaLFIr+jsg969f63X7L+ft6JX0vxWw6K7ljY7y6f5v9bSdvD6n3ldxzuWt6p9mWLy/80r7Dhjdc1LRwSJ6GZj78KNsXehkjcnnhGpNoMAADMAADMAADMAADMAADMAADnTCwuITraJLPJ370h3NaIHPpt+lKsxA2i+PoOftDW/tcv/DL0gmn2MItjX8hfmvSQZMP47fdVSrGernbTYBaHVx4ubka16Rrp3mW9Z4mEBtuPefdzI5dd0uLNUy7uCXIafGAi8FNk8xR28TxyHWxRBZNKKYTg4rHXEkWLDyI48mlpQlJTXamZak6aRTHX3QuC3XtZSqrVlnaN03CJtbj6T1N+GvCWJO4Zr01O9vSfqeaz7Sc6kftGLTJ6FvutAUJEmLUbu4RQEJtVev2NK3GpF2m76u99T/NbyciTJqex6U4hlaf17yHcqYtNbnerm48Th2L0vMwup/zGpCyLRFaE+4Spv3Z9Gji0eZr5ly3n746jN20Ncg9dBou/Z2mld7v9re3i8pYGse8VZHGpJkCq/1c/y1jxdPTc+prOvo1Hc0a6eathm+eSwAAIABJREFU2TEoDneqz3PlVB40zmq8kOeIdAGJuRE9a0M48vLuRhn1zvEFXWVlSPksq9Ol1P+K+pXqQnWsPidvEV6XNsG/cXPDXWtcZ14nubEnDlfUj/x57wdF/SINF8dddK53pd6l+ubRuNQujx6P5yHtF36/6CgONb6b1xd9z0wdNua0OE3WynH6aRvI+4W+OTpN0+tVHj3kdUAWiGq3or6S5r2Tei2LUxbjEj61YDL+9qz63Zbmq+h3P7/Pcmks9PdLmqYWVvj3Zu5dV9Y+zqm1ecH3ZJyetZ++y7bcbJzad0i9PidaX7A5HLx/W1tLat8rPpfXOK2i836230r7vk7fR2kdp2OK3/cxQn1R1xbj91LZ2OLl0NH7g8Ya5ze+3+l508Km2+5q+ptLbvH13jj83EtN15WG6rrbxS2d5pHwTF7BAAzAAAzAAAzAAAzAAAzAAAykDCxa4dr+0D5znf3hbJmu1WwvOk16ynLDJg0zwuai+0Nbe5M9/3KQm2BNZqUNkP7uaAK0Vms7AZfG778lcGjiWfXl13JWyn6v8CjBacfjTVZ+6QRS+qyEN03IjF52jVkAxJYvslSXxbosymMRJo3Df+fSsol87cv7drPb6tykkaxrNGljQnmFSVFPV5Pm2mtOPLpg37jXJh5v45GLrwyydK/63EKG0+SVLA5dhBAXLs6qjibue6hJBHPRWkJ1k1VvrWYW17IINeuqDReZMGiWjJn+qjLFaem3T9rFbHrZ1d7677/96JPbamO/VnRM0/NwikMT1Tr6tdyx6PlcWF2Lwyt/sVtaLWowt/hnbTDLxXiRg1yia3GExjsLd+6muTotsKpVmyic+s/UL3Z2NOGY60dF5enEI4C7cM9Z0sVlFUfuRWLoh+dlxWvVXYubzXlLvYl7HzTLpKY45xcdaI92jXW2mCVaiCCLdDGqdGV1my6gKSr/Ql/PjVNlaZrr29XnNQnwbuGoLSm0qKTs+ZhPhVsu/U/l2pfpV9ZHLtuSXSwiDnLvHq+T3NgT121RP/LnlSeF9/EqduXfru7jdPxcizwkWuv95e+V3FYKuX7hfbPKmKm+oW8ulc/7aVoXaRmVR5U3Ff/03KGfPVrKpJfPjvW6jY3q+9rOJLaKr9pXcnlrSiN6Z5fGOb/ATwvW5HbX4/C693emX+/22Lfvs6hcTXk5hd8vNj6tvcC+g3M8KF9l7eN9pR2nGvMUxhZVnLHW3gf+bWnfeZddU3lBpDww6D2td0Sn33cqT9/abwV+X4sR70dqz6X+vRT3u9KxJeqrZf0hjq/qufF881ZbaBuPW/68v/f0t6pf01FtgXDNxFHMBOfwAAMwAAMwAAMwAAMwAAMwcCoZWHzCtYTenS/a/s2aNNIfzpr4kqg2/d6HbYXa+A9tswC9eWtWBDlllVyvd+XC2yduFiKfmsSQNbIm9WNxV/WlOpdleCcijuKL81k0ea845dJWroPl3taEtpu2hol7HjDrKVkWyI2dJh51X9ZNcbwt5/MT2rH7Vk1qayJf4pf2Uown7E3AOmNtw6I23n9Y4TsWr6OJppa8ldxrTHJvvqbUNXIncfYa1ifK5FJQiwfUj0w0vf42Ex4k8Kku1WYSqrWfuSyabE/5pKziYfLJZ+YmkE9fbVZ4h1/aVWjJr7Ri3ht5ifZD93bsZo/rtG7S9Pz+qRCuVX+xW1qlbXW94aIW3gv7UVLflv963YRLtYn6cdUJUi97R2lJaNg/VmlCf/KxXzQmSyfuub/S4h3PU3rMlclZUR1q0YV+uwWtP+/PqYzqe359sR49v+0WUCj/EmTc9a3Y8jL5wi9ZwGrMTevEw+mY9gev09xig6XU/1SuVDT1cquOc/fcUtL2N45cCXudiCGPIz26NXG82MTHLbnT1vtWedJzetdocU/6zvF0PFyaRvxbz45cdEXD8tffK2V5jJ+vJAhqIdITT9tWEL4QSWP5yCVXtSwgkrAtS2T1eU8n1wba1kQeWjxM4VEW1btebbxHRjZdNbeVTDT+qR1bFrNEi1OK6r8wzXlr/DKxRsKPvjliQdPrPn6PlaVRdq/f32dlaXVzr1HWCt8vNj5dcOmchXy9bvzn+l0Z96Wc1mrGv75Z9/1ggy1Q0ngYt5+2H7LvyXnPAO3KrIWVcuEvr0Btv0EjFj3efrffSvu+1pjh/Wi5fC85G1Xf7WX9wePq5Oh9VmN47u87vff0d1m6UENtEfelTtIkLJNZMAADMAADMAADMAADMAADMAADvTKwuITreXexsmKVlZgmL/SH8+EXdzUJkI3JyMwEpSbbfSJTf4TbZGuBBV+vlbcQz/sEg0/cLEQavgduOjmvtGzl/Q/OaWt1WpavnAgmUcksR6+5yYQ7idhy/SjrLf1XW+k5TTCWxR3f87pqmqjXwocXd2VdkVadNIrTWIhz20/8wstbJv4XIq2qcfpEmepIz8STh3Ec2g9Pe+uKT1mxqq+29EdZz35/vZVPe7rL1WUcR3qepuV50fU0rNq6qb3nJ45LJ7eTyeU0PU9DcQzCVbgmyVWPEr48LzqqnJXGgXo9TD21M0zc/dPGvp2dsl45raQu4/ym5+6yX1a/Yn7q2RfC5CNPNpUxfabsd65MZax4XLJqlaA2fuuPGyKf31uMx1w5c/l0zxWySItFa4lFtninwDI/jSvtD2V1upT6n8qVE8lUftVx7p6Lz2m/8zrJjT1en/4+Sp/VfX/exzSJu3KdnHphScN53E1HveOee8kW98XeLjz9sjzG8VQdM01k//568xqjPl2UTi6+XBuoP8orRNF+9nI5rkUuWgBg7shvuM32b8/Va9W+Uqle58e2qnHGdel1kstjHK7K+UJ/n1XJQ1mYqt8vYlPfmObie97bit51uX5X1j45rjx/EnU1/uk7X+8ZLZ4oaj8J0dqqp+V7Jfo7Il7MqMUZWsTnaVU9LnT75d7Vy+n7On0fpfW+lL+XithMy1jWH9KwVX7bN9DZ54bx+QUeqdW1LbbQd3vyt5/aIr1WJT3CMDkFAzAAAzAAAzAAAzAAAzAAAzDQDwYWj3At14UP77AJd1nN+kSg/nDOrbovKvxS/0Pby92PCdCiOpq49yET9+UaPA3jezjKOll5Se9X+R1PrGmiW9bymly0/UQ1OWzuD5+wCREJ5XLzK+FalqjawzW2ZCpLzydQ1eZl4fxe1UkjD9+Po8oia7t48tYnpaoKDP3IR7s4PE+qI4VVncYMamJUbWN7mY+NFwo/etYnmqvuSdmS1ti4TW7n2lV1lqs3T9PzX1beND0Pqzg0qa6jX8sdi57PhdW1svDOsPpB+nzcj9J78W95otD+trGXhE5Zr5pWnG67c02OyspU443CSqSTYHVieLSlrO3i0v1cmZzbHCsep5iVqCEvAJ0K50d2vza3rcGlV4fjv/msq3x7Pqoec+U0i+nI1b4WkEic1nYFsTW1xhvVsTxIyFNJlTRTPsvqdCn1P5UrJ5KpTlTHhfd2vTa3j3i0SMPrRKJJUZ3KslNWwbnxSe0i62Hbc1zupm+8I7tYxdMp5FkW0Dset4UqcbsrT/7tkEs/l+fKY2a9PueZpVazshelk+M21wYaF4Y2XNQi2nsetWjRrWZtuxDVV8EinlyaHk98bFuvUVtXjTOO3+skfmfG9zs5X+jvs07y0u33y5xXlhta9otXO+b6XVn7tONUvIgzdwte2H71+tzWLPMcqx7axd1JXXnYhW6/uC8sx+9rtWVRP1rq30uFbEbjjzgq6w/OmcZ/vXMav5M4/LqPpwcf/PlcvNqm6dKrW/6+kycMeWiJF5qqLToRrgfxveTl5MikGAzAAAzAAAzAAAzAAAzAAAwsPwYWhXCtyVxN5MpK0/fY8olA/eEcgydrBrnDjfc5jO93+od2/OxiOPdy5yYW+pG/Y598apZMqsPYSi+Oe/Kxp0zY1kKCWAyLw5SdxxNrmlyJ07G2vvXHJrpIfFH8mlCRlbyEdKWZ7vtZlJZNyKzbOCfaFUzaxM+2nTTShGYkDvmzmsg5cNdPSy11iqx43OpfVuUuXrtL1ZRtT28QR58oUx0pfeWtwWCtFmY+/Khpj2uFy01A69lOJ4Ob0mozaSe29D+to07STNPzuBSHyqSjX8sdi57PhdW1svC2r3yBiNPUjyrwHafflvUkvl7SitP1c02o77/qenM/2bAqnd8fNueq0p8rO+bK5NxKnNa+uRIWZz76pNF+Pp7K0k5jnyzbtZ97WTp+z91nyppP/8tES3+mH8e0nLL6U9qypNZ4Orn9cfN6IG8GcXoaZzUOyQW1LWRI2jgOG5+nfHqd6nocTudLqf8p/0VjVNn4lZZZv6uM2V5vE3ff31JvcZz23tpw0dy+6kkbeRy5uo/jyJ03WM+Mj7nwnYyZ8fNF6SjPEqRj98q5NlC/Glq30fYBjuONz6ffec/eOX6taHxK+4qHT4+d1GvVOOM0vE4a78ykXeOwZecL8X12qr9fNF6N3bQ1691C7Zjrk2Xt0ymnnbRfp3GXtZ3uLUT7pWk29YVl8H2dlk9jRlE/WurfS1XZLOsPXl8KY9sslYw17pFAi9m0CEXP2sKKVWvMA47HpePMBx81fTvpmtqiqnA9qO+luAycL79JKtqUNoUBGIABGIABGIABGICBlc3AwIVrTXJqn0YJAxIwXTj0iUD94ZxCqmtyIylLw9y9qn9op88uht9e7qKJm17yaMLGlptt0lgLAIri0gSH3CRKbPWFBEVhc9ebJtZ8UqVWs/085WZa4rRZx7jl9Znr5oSh2+820VDu3osWJsTpmdvq9ReGmV9/XFiWOHzZpJEJ6hJFE7e7/rzqxCd+/Fq3R+Vb+zHGe4F2G1e/nvOJMtWR4iybPNR9hctNQOtep5PBaVqel1zfF1v6n5bb69Tzn96Pf6fp+T3l+1QK1+JJ/fzQtkdayqM8ZfuR96c2xzLWvbzxsZe04nj8XItPtBhFi2D8mo6a2FcddzOuxGWS+KzftnfwmeuCXLzmBOnpt98LQ2efa4tizA30VddXXhhjAtvaC2xsMuE6w11ctn6dx+XUOC1GZD0t8XT0smu+HD8jBjS2a0I6XvxVNT9pf1gu/U/lKhqjVMdF93L15mNabkzy8HoPibV2C6/kMl9piy9/1o9lde9hio7+7aB9yIsWUsXX9//oBuujqouiOHPXPZ14HHZXs9r7Wef+XK4N3DJ97LpbmsL6M7lj0fgU95Xcc36tk3qtFGetNme9O7/Qzeukl++2hfw+O1XfL/XZWRvb5aHF6z4+qh1z/a6sfbzvVeW0UvvNj52dxh2XJT1fyPaL08r2hSX+fR2XL30f+b3l8L1Ulc2y/tCojwrCtb6zzLtF9PeevonkCSe3PY3H7Ue1RdW/pwf1veR55biyJ7Nof9ofBmAABmAABmAABmAABpYnAwMXrgWWJuQ1iRq7KPOJwNxEsf+BPHzBpS1iRSd/aC9GqL3cvUyAZstVr5vgUVXYkFAid7OatJCL02yckXAS32+aWJOb0Xfet70OJVj7hGYstOj6/iuuNRe32t9SlpplFuGelgQCWTRrQqvKPuhyf+77n8cT+Dp3y2jbU7NAvPZ0ez1q8kpCWNWJ2F7Tq/K8T5R5noomDz0uhctNQOt+R5PBtZoJbsMbNzf6sucl1/fFlv4rHe3rrHZTPvadfc6c1f5re0pZlTt6sabJvHRxhPJddY9rc6k4cbA0La+rXF2Kfy2SKFoooWeb+lFBX/M00qPap+qEY69ppWnLckdjh/qVytl0v143K6FOXFnLylhMyJWl+qcWfei/LLen97xlVt05VrQISpbWPkYoHyYanrtpznq5XZ3KG8T922wBj/prO0vapnK2i7vkvred3JrLHbgmn6ffetcEUXM1nTyrOpYbf43tqnPtY1l5b9Zl3P/ERNEYVTZ+5drRx7QsZ/PtITepWlCn75lcHLqmBVva97fI60DZ2FcUp1/3bwcfH/160dHLpLooCpO7nkvHrchT0b6oDeQhYXjdxqx4n0uzaCz0vqKy5J7za53Ua5U41efk1UBbEGiBn+/HnQr3nn7b4yn8Pmubl2R8ScOrfrr9flE75vpkWft0ymmV9vMydRq3P9dyPIXt19QXluH3tcaM9O+f5fK9VMSm/obR2KnxQ980Zf3B2dOYq/dIvFDI7+koDy0jm64MM++81zQ2Ki3/blY68TPpudqi8nfkgL6X0jzze3lOVtGutCsMwAAMwAAMwAAMwAAMrEwGFoVwLfjSP759cjQ3UWyWc1del5347OgP7TYTdIPoFF7udOKmp7zIsvnJZ20Cwt1Vt41vfiLOhKIz17XspVr2fDyxJsHl6Gt7mgQsiSrmRlhumefd3dqEpvZXmzho4SXCSIxpEb68zeb3CZWVofIiQUCiZGH4gj1yy8qxUPckwFWeDPLyLvDRJ8o0saZy++ShxF1dkyAmd+ma9NJ9XctNQOte1clgCTyaQNMiBVkdy2pW8Ztr0zvuCcc/b/UKIMvqJvGuXg+Hd75o4kHZvuziQwskJJaIR1myyv1yLPAVTSqmHKhuUpe4aRj/LbfVmjyUwOH7tYpRCaL6X8Zr3I88vqrHqmXx+HpJy+PQUXubjm7+0dwilHlW4vs6VxvbPszymvF286RqGla/JRBpwYnEEjGnBQvmsaGNW3mz7k62EpCHD+2fmxXVC/qYeDYPH3veKp3kzeW9m2tqO5VVY6+YdS8kubjm9pK90fJ39I1fWf6sX114ufWLsmeXe/9TPy0ao1THso6u7K1j92vWHnou1w66poUNEqWdzVw4jT2pBVwczsdh5T2+XuXcvx3Ul6uErzpOp3Hl0tHYprpOrciL2kDhxXfVchaNT1XHuar1qoV18uKgvOnbomx8tnqp18PRV96whTp6JhXu07rL/j7F32fZPBSMfbmwvXy/qB1zfTJtH70jvO478aai/FZlQmG77QNN9XKK2y/uC8vt+3q5fy/FbOo79vBzL9k3sL4P7f09v/962h+aeJvvq2JX35b6mym9r/6jv7GKtgzRwiF90xz/zWctz8ZxaXzu9G+VU/29FOeX85U5kUW70+4wAAMwAAMwAAMwAAMwsHwZWDTCdQqZBAZN8BZNbGqCUIJVOjHfzR/aadqD/O2Twn0TrufdcWuSXpMkaX2VlVUThxJ4TESRaLRxc9PkStGz8cRaUxhN8mrifs35JlZKdLH79bpNFvuEpqW75WabPD6w9SdZIcBczF9yVTj28aelEy9x+vGkUXz9VJ77oouqwuepyptPlE0+8bRN/I5susrqX0LM0VffaEwie35Ul95efs2P7SaD1b4SbTXRHwuIsvJXuvEexR5n2VF1KgG0SDDS4gjVt6x8xZ/HZW6YL98yx7Qsl371zpwb5iNHG2E8bHyUOJNzSx2Hsb2In3ja+ozSsTLf93AYv/XHQZa0ZVaZHk9hP6ogMnTE+nz/63XM0SIAbTEwevkWE7C9HLmjrIFkTaz9mLVns+orF07XNCZqEnbqmedbwjm36XtCLBR5bpD7cgnh7URhy0+9blZNMadF+ezXdS3Y0Zgb70uZi9u4PufiOW8lYwea6s88Zqw+L4zfeEfzQg8tElsJ/c/35zxrg71b1H7xfy1y6WRC3t2wa4zItYW/t2XRn7uvax6maGsAhSniuSjO+LrHr3Ejvl503m6cLnouTcfchF93S/ZbTf0y957QGKpFRPoW0AKTorT8etFYWHWcq1KvEkg1Jk3c+6D1mUPbH7PvFC2I83wUHWVtb9sfzLsOLwrXcn0A32cteajwPvFnev1+UTvmeEjbR9sASczzb099K6iOPR9lx6pMKI5u+0Aj/QG0X1Ff0Lf9kv2+rtWCvj31N8Zy/l4yrzFnrLXFc2Ja36X2TZp8/zT6wwM/K2TeF/TZ38H/P3tv/mRXceZ5/zkOx0SPZ6ZnpiMmYqIdjonumfeNN7rb3dh4x27b03YbDBgJJJAQqzBgBMjsyAahBbGIRYAACcwitACSMYuF2CS0lnappJLq8ku+8X2qnuO8efMs91aV6lbp80PFOfecPLl+Ms+p/ObzZNSH9X7XN0SVpyy9p3Zfc1OxELXgOYpH17r+f3oSvpfK8s716TtxRdvStjAAAzAAAzAAAzAAAzBw9jDQv8L1vgGb4EoFiTo4u/5HO/lHvS7+ib7vk8JjFZGUT4k3En7l1rhbMdDLqUkQuTPWJItPIkps2v/7pUGTmB4uPuYm1sxF8y2/Ddq/2qysowle3/MyLrMLW0pTkzs2CRM9c3z9JhMBU0v9OB/peTcTmumz4/Vbwof2l+vZpegE8CpXgsqPt7HqW5b5stooK7fVZYkoVLl36vCwuW8uE+ZcPNAEpvYAH/p0e2U+4vyJR0346RnVs7OhSXCJJLl9lSUgq39oklwLO2oF6Qb1b/ul33G/uR2XgFjkcdQyS4tIZPEiwUb9q7ifxC1rKnet3xam1QrqM1WLUKpYV7uqnrT4Q+mf2rnbJlLj/teWXpKv3D21m/bW1YRp2QKC9DlNUEsoEguygj766roOYdqf8bb0334sJnhjC9VRbxGKU+OIh/Wj2thEkQZWlWJGe0FW9QWPd7yO7pFCokouTpVZY7LKZ1Za0bgYh1fe5cbY3NH7vsNnQf/zOigTTXW/qn8ceX6tCShaOGBi94I7bYFF1fYAWjgjTwNV44cWTNRtgZHluUH/U5n820HvX6+DqmNT0c7GiN17LH7FZ/32snnFlg0aa8vKXtYGLnZb359zncVZmteKhTVqx7LtP+KFCrKi1ns3+z05PGweZdRX9Ew8Jpv79xlz7f2ob45exgHFZ4v0kn46Wd9npfXcgLOxfr+YcC3POvsPtDGa5X54OBxcsbJjgVtd/iXoNV2UUtUHzJtFhdXqZLXfdPu+Plu+lzTm2f9Sv5hh7xMtnCv7VpIVtd43+lY89PjT9u2q97n/6V2iBSA2fmrLhdE9rDXWyPNHnScbG5OOD7b1QVs8mIxR3f4/PRnfS3XjAffPngkt2pq2hgEYgAEYgAEYgAEYgIHpx0DfC9dV+4qe/PhTm1DUZKOEIF+xv/PSKztcVk4VeH0CbywiksoqF8+yKquaHGlaJ5rkMAvZCy41sViCV9Wz8cSahLf9Dyy1PevcFZ5W+5vF/Muv2Z6z+26/2yYn3e23xy3RTwKmJiJNEBidVPEJoDJhx59Pj1ViRRp2rL8lItg+nnOuM7HCGP3tvTYRpYn2Mhd+Y023l+dtT+KZc8PAwntHLIGTyatcnKrLnOWUwlZNBuu+Jtn23LCg1NJOk3mHn3zGrPE0MRf/SVyQCK20Za3nYnsRZtSK+9Sudis5CQ7iOFeWjvRkCTOaRiFeucXmrXfZQgqlrz8t4jBPBBveLOI+sPhhE1M0uZhLz105e561P7fHV3W08l5w6Yjb8Tc29Sxcn/hgq02gap9oz4OOss6tEsNzZVHdHVz6aK2ImntW1yTSqo49HyrjgcXLQ9p+5c8nC5xGLeAkTPtkbu5ZF2CUrsLawp6E+8E3N1s9xe7kc3FNyDVZYCX5UZ3YQqQr59u4Wcaz58fFQS1Eicfs6d7/vPzmDjUpu9/T+GVuVsv2+BweNgt/CWDG5vkzbSGNP992lJXZoodGtgIoEf/0LpP3Cu1L2vZsEt7f/1XfPWXP1wnXGgMPLH2kePfK+4PKprooi9OuDw/bHuva1iEeb/W+Vpr7brs7tC3Qicok4aPMJbv6oO7JM4K+U+KFcFq0pAUj9t5ceK8JkRonhhOxpek73es1J1wfW7dxZKuJ+QuywrS+PfQNE4+XdWO23h9eVxL1NZbE/Xkyv88q23q07Sbq+8XGocS6VPkpax+9X8w7SeYZL4fG7oF7HzBPJm5JGgvXEvEkGIql9M8X2elbOb2nhUHqH3rHp99rk9l+0+37+mz6XtIYvO/ORY087sjDjLwE2fsn+Q72d5LEbd9uSf1B3wS9LK7Rs/KCoTHXvkGvnG+eSjQ+N/1/elK/l6J3jo8LHKffhBVtSpvCAAzAAAzAAAzAAAzAwNnHQN8L15qkqQSz1bJJAIluPlGoiVBNeFU+16f/6PoE3liEa+0faZPKBw+NXx20WiaG14klqnOfWNPkswTIWDSxNmm1TCgyq8fRCRlZXuasIyW+pO0oYbSRm9+kjW2S+8JZZo2bxjlRv2VNIqshCa4+2VS5d3eS54nKVxpvLBqk93K/tfBAE1ziNb2v9tGEV6Vrz4wwl8ajif7Te/fZpLEs/Pf+5reFwJsVrUdFyNPugr7buvT0XnrVFh1IKFEZd84onzwUw6mVpfqIJhMr+8pof1IfkRWmxEVLKyfGR5OWmmivjHe0zE0EnWI/V3k1uGROqfjU0S6jE6TGwJzrTAhrkqdcPLqmsdrcY58/00QCCeEdY0ZJW/p4KRecyoMW2GghTLENQclzYktjiBaR6N0hd525saYsz2fyuoQXlUmiowSTWACry4dEHVlsdZRtGvc/rxPxWebm2XitEMM8DtuD9NqbOryE+H0dNd7tf2BZZx2PsqeFDxLOcu+3OB6dO8+13z0ZruuEa8Wv95EW+Gl81vvIvBLUiOlFHkc9RuhdtvvqG02EP7RyVYeoV4T/4osgt+ga31ILW4VRG1SJLBqfJEjad50tHOhcCNRknFNaXq8aZ+L82XmrFY6sXhu0oKfjXlzPw8NhaPsOWzSiRREDdy4Ku66cX7yTbPyOBGvVb27P88n+PqssY1zeUV7OxPeLxOmdM+bae7eb/HlYsXT0lXXWFlbv1/+m8BAgS1Lx1+03jsedHie7/abb97Xabrp/L6UM9fNvfc8W4+4vZtR6CennspC3s29SizanzWEABmAABmAABmAABmBgejHQv8L1/gNBYkROGMtCqMnH59eOTJIm+31mwycTdP0SRoLN/vsXl06490s+q/IhocSsZGrqWBMkEuhlzZR1iZx7XnvhrVrdIRZnth2GAAAgAElEQVRW5cfvycJLYlXjtHLp93jt4LJHgyzWUjfpnrepdlQbHHt9fVZEU5+Vu+5uBLapVv5+z6/2PcztCZ3mW20la9Em/dWfFcMDd9xnVphVe1N7+KZH5UHu0ZuGVzgfL+V9Q4t1qlxnp/FqwtzKnVg2p+H4Pb0+esa1Pe199HypACsL4ZHvmGovJZ6noU8+C4efe7GnhXcSriXMNunLehfKylTpedpNjlpkomft+ObmESvziv4zZrGw1QoHHlwWDj/5bHYbgWNvbBrZnqBmsZIE8uOb3m606KdJPZxtYSb6+0VeX7Rdibb1GEvdamGPFiLVeTYYSxqT/Szf1+P/PprI76XJ5qWn9EcX9mmBjhY79RRHj/8rkdb4802dUqcwAAMwAAMwAAMwAAMwAANTlYG+Fa6naoWSbwYDGIABGIABGIABGIABGIABGIABGIABGIABGIABGIABGIABGIABGIABGOiOAYRrVoWzmh4GYAAGYAAGYAAGYAAGYAAGYAAGYAAGYAAGYAAGYAAGYAAGYAAGYAAGJpUBhGsAnFQAWWnS3UoT6ov6ggEYgAEYgAEYgAEYgAEYgAEYgAEYgAEYgAEYgAEYgAEYgAEYmI4MIFwjXCNcwwAMwAAMwAAMwAAMwAAMwAAMwAAMwAAMwAAMwAAMwAAMwAAMwAAMwMCkMoBwDYCTCuB0XA1CmVjlBAMwAAMwAAMwAAMwAAMwAAMwAAMwAAMwAAMwAAMwAAMwAAMwAAPdMYBwjXCNcA0DMAADMAADMAADMAADMAADMAADMAADMAADMAADMAADMAADMAADMAADk8oAwjUATiqArDTpbqUJ9UV9wQAMwAAMwAAMwAAMwAAMwAAMwAAMwAAMwAAMwAAMwAAMwAAMTEcGEK4RrhGuYQAGYAAGYAAGYAAGYAAGYAAGYAAGYAAGYAAGYAAGYAAGYAAGYAAGYGBSGUC4BsBJBXA6rgahTKxyggEYgAEYgAEYgAEYgAEYgAEYgAEYgAEYgAEYgAEYgAEYgAEYgIHuGEC4RrhGuIYBGIABGIABGIABGIABGIABGIABGIABGIABGIABGIABGIABGIABGICBSWVg6gnXrVbYv+ihcOjRJ8PwwUOTWnmnDx8Jh59bE3Zfc2MY/NN7XeVl+NixMHD378LRV9aF1tCprp7tZXXG0I6dYe9vfhtOfvTJhKd1YPHD4cjqtWH4xIlGaSnsyY8/bRS2quwqY9N4VP/7Ft4TBv/47pjTrcrTRN479samMHDP74PKPZHpnC1xi4n9Dywb1z4yfHwwDNxxXzjywktnpJ97W7VOnAwHHlpRWZbDT68OB5c/Fk4fOTpl+SnG0VfXhS+GhzvKceLPH4Z9t90dBrf8KXvf62sij3o37H9gaW37n943UNkWet8NvvtBZTkOP/lMOPzsC5VhJrKsY4n79IGDYd+CO8/YO1HpDdxxf2UfGUt5ptKzpwf2h4G7FoUTW7eFL1qtjn40lcoykXnd/7sl4djr68e1jvQe1zet+n9V3vUumehvRXGgPnj8zc2TMoYcXrU6qI6n8jupqg25193KauqL+oIBGIABGIABGIABGIABGIABGICBs5eBqSdcf/FFGPjtveHziy8Px157o3oCUULGOE3CasLw1M7d4ehLr5oQtXPmlWHHL2YUf7uv+nVXQroElz3X/ybsvGROOPHOxIunR9b8Iew4f2bYNeuqMPjeB5UTpOmAoLJrkj+9XvZb7aO0Dj7yRKPJTw8vEaF1cqhxOmn6x15bb+nuven2sO+uRZV/e268zcKqHU9u+7jnNNM8NP194oOt1v46Nn2mI1yrZQs4Pr9wVjj68mu9xzNeq4darXD4qefCwH0PNl60cGzdxnDgweWl4bX4YeiTz7L9eOizHTYWnN63f9zKPvjOe2Hnr64wQXe8RIJTn+8KO2dfbX+9trfycvDhxxuLbFrMsPPSK8PnF88Oxze+la2fw6uetz6w785FY+p3HVyOF08N4pFAr/7++S8vCxrj0rxIuFZ7anw+tWdvx/00fPF7eNiE/yMvvtwxhrVOn7a06sYYv79r9jVWzxJkqpg6tXNX2DVvfjj8xDMdaVq+Rvv77mtvCmKqyOtoPWkhlRZR2dj78ONB+UzDTNjv4eFw6IlVJn4OHzveU7qDm98JGst2zpw7IpzVtP/w4GC+nmqe8zrQe1DfEX0zfjbMt+df3xBNhObjG94Mg396v7JNJJrq20B1b3GW5EULQMYiKppAfu8Dtmivqi+ojMrTeC3K8nfFqd17KuvB6zZ3PH3osI0j6l/6VjH+Suop93zZNftu+cWMsGvOdUFjQFk4vTtsfHjymdL3ZdmzTa8PHz0Wdl97s40hhx5/uuf+JUaqxgGNX1q0mX6fa/GEvqv33XpXUH03zTfhzt5/Yml72h4GYAAGYAAGYAAGYAAGYAAGYAAGpicDU1a4luiridsyMDVpJkFUVs11E6SKQ2E0qaqJQ00kSoCT8CAhYOeMOSMC9fkzbWJX13RPYTQpLEFEAkpZXnLXXbhWHnP3ZYWTEyfisLLibGT902rZRKvEnTIRK443PbdJ7dlXhz033Dpi8VczWasy1bVPnIbC77psXnfCUiYPPgGsYxx/7txFi6MvvVIbVs9rEvXgskcrxXAXquqOAwtHFl5oglYLF3ppEy+TrDAlypVx5OGaHrVwQMJZXRly930xgE08L7gzSEirS1fC9N6bF4bd190ccgK0FkxoQl9/aZom0v1iRtgzf0HQhHtdWk3ut06dCvtuv9uE0MG3toxLnEr36NpXwo4LLg07L5sXJKLomsp2YPHyjnKl5bTfC+60PO2cMTec/LB+oYUW9Sg9jRFl5ZZwLeGu24UsZfFN1vWq8cYFOVtEk4wZauuqPJ/atSfsvPwas0BMWRa3EsGq3i26J4v2XVdca5457D1R413j6B9et3Yue2+ZOH3dzZavVOSScC8RVl5AUkEoLud4jmXOatz3y/pynIeOc72j7n3AmFUddNxP2k6eQ7QY5OCKlT2La7Zw4xczwuEnn61Nry4/k3G/eC/feFvpGOLvGi1gqfIu4v2k7j2ihT0ad3OeW2xxW7JQULxqHNXiJPUDib624O/8meHQY09V1rvGJS06abIQzTksO9q7QoLzvQ+Eun5f1pa+sML4bvBuK4snva7vFWufmsUFek7eG/TNIParFhikaaS/hz7dHgbf/mNH3/Hv0m6+39K49dvLJAE6bZOBOxfZoiqxcGjlqoIBXxjQ7SLQXPpcm57/sNKutCsMwAAMwAAMwAAMwAAMwAAMwAAMnD0M9I1wrUlVTdank1y537Jgk2WQrF5y93XNRS2zjsmI17KWGbh/cdh9zU1BE2kej6xFJfbIgvXwcy+aoCorl66s9ZJJ9lyH8gnCsoli5eHzi2aZaOJ5i48+Ia3yaQI+l4Zfk9WShGFNIrrQ0s3krU9q77qyWT1UCUma8NbkdyysKLysvZSO57mXYy/CdROR2/Mikfj0/gNtefd7fjzx/labWO7awrMBM55GepTQ08iSV1aRjz1lXgPi+k/jk7WUtUXG9bJzO9aJ7TjN4+s3mWAlwTjlsio9iZETIbyqPjW+jKclvpdDYnK8UEFM6S+uj9y590EtnqhqO3t2dKGKhCItxsnFp2uqPwlDskpOw0ggMcveCgvA9JnJ+l013hT1Ju8PUR8z68U514U6kVSipoS2/fcvLq331tBQOLDkEVuEILFb6WgRhsZrc7mbiHlxPtJzCeISgT+/qFxotEUJ7tFitEzG169vrRWtPb0mY5mH9f6pfCl/fr3pUZbfcgEcv7/Sc3+fqdzawiG9H/8uhC95PFE99CBea5yRS2S9F5ta9Xa7OK1p/fQaroztOD4fd9rGjVYriNk4nMdV9j1ShB1dYCDxVGNEcV2ecO6436x1NY5r7NCiD21P4t9UWnCjdJSn+Lmyc19cllt0UvZM2XW958f0jdHlwgrLR6aec/kbEXmbLyDSO7zJd18uLb+m70uNa7Kujr9tnZexvt/rvsVszL7h1jbrfVuMMmPulF1I4nXL8ez5B5q2pq1hAAZgAAZgAAZgAAZgAAZgAAZgYOIY6BvhWvuTShSsmhyW4CmhShNumlg79sbGkUmuLoSBbmDyiTRNvHbzXJOwPkFYNlFcN5npz8tatU5MMEs8WVuv31SU48CSFbZQQBPJyq/EqzJLvcaT2qMiSpWQJPeTPmHqoprCj2lSeTRdn+hW3dW1QTdh6+Ly+7Iuk/WviU6b36nNgz+XHrWoQm6hY7FmPM7dKlKW9726FnfuxjqxHZfZraol9qfuQT09Wd2lY0MvwrVEqsOr11S2zfChw/V7pcst+qrnKz0QpCK8wuf6q0Q9jW0qn0SJY+s2dFjCeR9sIuL4QhWJqRpTtW93jp9d824wVlOh0EVE9VOJT6llb9x2Z+K8zjV35UKmhfdYGVVWr4O4fFocVCVeqy7lcj3HX1vZh4dNQNXCBC2GGss+03VcS2jSIqS4XSREHVzxRJu4rveX8u0W/m35jUT8quta6KS0evXW4XGL7dRq3e/paFtZXHCpCdzx9Yk693aVBW7tQhBZkK7bELStRBUrE5XXsnibjAk+fsbjhq6Ji3gvYY+r7HskzoNbHsutc3y96r0fh2t67u/oOO9Nn03D6ZtgLN8YPqY2Xrwx6tZfltHqh2l+4t9l33p6f+h7Se0Vh9eiE41lcf+3+62WefbouJ7p67KA11glTyBtcY9uYVP1fk/fa/Hzfq4y6f3h32KpW3+xkrKmMUxjrera4+E4cf/8UbfULQzAAAzAAAzAAAzAAAzAAAzAAAzAQD8z0D/CdWZyLa44TcZJRNl99Y0mWmtiTSKXLOF6FeHi+HPn5kpUFpKR4JuGk/VkL5aJPqGcTt55/GWTmX6/7nkP55Zl6USkiSMXzQ5HXx3ZZ1AChQQdc5uaLAToZlJb6apMEm9SEdLu3bXILJJjd8cKP5ZJZS+rT3TLpbmLVGXHvbf81iZufWLV4+j1aALPXYtM4LF9UyWIjWHf6ZzVswSrqn0j47xLJDLL3qQt4zC9nDt3KU+9xOXPiFGJKDlRyEXtXD+pE/g8/vgogUwCeRkXTa/7IoAqYXfgzvutT538+NORiXi1RcaKXWXzxQTFOJfsyex9sImIozLGLsXFQk40VFzj0e/i+p2oc3PNrT2qS+qvjMdu6i2Xd6UrgS62kre+9ebmjry4yJta1StexaP3SZP9gdXHjZlWKwxt32HvuCouzQJ59tVh3213F1zHVslVjObKHF+TJxQtxMktuIjDjeVc9SkPKePlIriJhbfeEbYArsG7opuFDmOph26fzbEtTwJu9a/4fLyOxw2/Ji58UYPHlRtn03z5mKyFMfE9PVvWD+NwTc/9fR7nvemzaTi958vGOn2n1G0DUvBy/W+KPlbVJ/39YIt/asTr+Ftv6JPPRr4bWi2zhFa/qPIs1JaH0e0k6vbK9vbPifDFvZKteAbf/cC27YjHw7Su9VtlioVrvdsl4h958WXzqiJW2lgb9RKS87ri8Wt83f/7pbZg1a9x5B9sGIABGIABGIABGIABGIABGIABGIABGJieDEwJ4VpuV7WvoE/AxxOkEnokZpuVYo34nUJcZ9kqSz7tGRoLArmJQpsAn78gKw6lafpvnyAsJu9GrWVsD8ahU6N7BJa7j+x4vqTsEoglYknM8rR1zIlWEuglUqSCazeT2opbZdJevnJVrD1eXazRBLHEidR6UeFzk8pNLHviMvlEdxMxupuwcRrZ81HrKrEiCyYJHS7cS0ho4go6G2/Spmoz7YWZ2zeyjUt3ld9gH9Em6cZhnLvxFCji+NNzt4yUBXp6b6Q+yvtIGl7ioSbrx0MIMVerF1watAAidZnr6YprE6Rl1VaxgEDWb3F9ShQQS/Io4XF5H6zLu5exSgDwOBVXrt/5/alyVD17/alfqw48703rzcM3OXqcuX3XZdktN8oDd9zXJnC5kNXLfuyn9+7LvlvMI8jMuZX7mDcpT1kYF+LHam1dFr9fl6hVZ/nuYZsezcJb2zpkFjpoPLb3UANvJU3Tm4xwzmE8JuhcbqQl8EnA9/E6DuPX1G883x5XfM3v5Y7DR4911G3cD3PPdHvNPd7Eee82Dg9fJVwrzPDxwWIbFX/Gj15f47WwQnmJt8UxUVzvkptuN4tj9TctIDz81HPFuOZ5qTragqWZc8OxNzZ1tE38nNdr7IXCvx8kkmubjNxWPGpfbS1hYvwlc9oW88Tx6zwVrvVb77RBLfgZ/UaMWdOivF2zrw65PHne5NZcbGt8PfHOuwW7adr8np7/rNKutCsMwAAMwAAMwAAMwAAMwAAMwAAMnF0M9L1w7aK1RAK3DkonSCUcycXgoSdWVU7Y5eDOWbYqnFuapVZFuTjarmmiPBGpchY9PkEocdwm5katZTQxd+jRJ4P2Ma3av9cnU+PJv7Z8jIqeyr8mQuVGNhZ0NBmcilYuLKf7fjad1JaYpwlgb5/jm962SUZNzCq/PmGqcHFeFT7Ni8LuuvL6rBVu/Gx83o0Y3U3YOI2O81HRWlaWcvOstvfyq8wSSeQVQJPSg1v+1DWfcXq5Novvx+eaKNbk89Bn29vqOg7Ty7lz50JhL3F084z1A7m53/hWRzlUH1V9JE7HrLV+t8QmvuV+Nb7X7bncb2sSXXlL+3ocV47r+L6fW7vOuS7IklHXlFft26tFLIdWrrI0vA8qrD+XO/q4dfSlThewJ7Zua8tvlqdWy6zi1P9y8ffbNY03EoPNIvjgoRHxZ/bVxd7SqjeNP70sbCora1VbqM31lz47HuONFmmd2j2yh7bil8tm7SGsPhmnJwtmuSoXR/H1bs9tAcUvL7PFTDZmZ0TgbuNMw/ciIssi/fBzL2bF/DT+3G+VRQuAVH/x/ePr37S2KzwkJAuH4rD9cJ7j0Pr0ZfPCqZ27rWw+Xsfjhl+LOfW44mvdllHPNnkv6DvOXFQn30lpep6nOO9akCAu42+Z9Dm9Z9PxS+/D9Bsjfa7sty2s+OVlbQtE1A9NPO2lT2hbnEOHi7HYRN2L2xdg2TftJXNsv3d/x2gLi7Jym2eduxaVLqKKyybPD/qe1nssvq5zZ0PbR3i6aZgmv1Wm2OI6LaNYiVmre8/32nZN8kqYs+ufXtqb9oYBGIABGIABGIABGIABGIABGICBqcFAXwvXmuDUBJuECQnYDpUmvGzibVTo0XUJNhLqZBWTTlr6c02PmgSUe1hZDMsSpOlzCqv0JTynk36aoLeJwtHJWuVRltDx5F2cTjrRF9/TuU8wlj2vMNpDWvW0c8acESus3y0phNOsaPXFF8H2Poz2JlQ8bvWqe2k+/Lfyo7xosllHn8CO05FgIIFXVqpuRaOjWbZfNNsmafU7dnPbjSWeLFQl/KvuPF9lx/EQkiQM2cKAC2e17Q8el9/TV3uLDXOXuXpt6QS0h88d47rM3Y+vqQ4mYrLXufP2jdNMz7UopJFrc3kbePm1IDepbXFoEcC9D5gb4Zyra3Pl/4sZxpuel8WZLA3VJml4eRMQGyZ0j9Fa6+gr60YWIdQIW+JAbSCRQ/tYx8zH57Iyk6eDeK9pty4zi+2XX7N+pbhiEaetrpSX0fqSYCBhLhb73b2v4vW0c+nuG11Ao4VAYx1HO/JXU1+9hNdYbYK/3GqP7kct97qxwNtLvPEzqodjr68vxvScoObh1eb6899+7Ga80bvuwEMrOhi2d8IvLzORXm0oQV790NvTj3pviQFZdXbrtcLza+67r7vZrCTFpvqO+pvfH/NxeNiEdfULWXFqj3eJ7V6GqqPaV+VTmG7FebnRlucWvd/TulH9WrwL72k2bk0Az93Ua47D9B3h43XbuNFq2VgTc+pxxde6yYvC6tmcpW7clsW73b2BVIjXnqc4714ejYWKK45b5x7/iMeKTQWvvb4PfWFF+r4zC2F5lZl1VTi57eMinW7rTOGtX6fC9Tvv2beYtgpQGCv3DbcatxKvtWBHY5K/X/WtV+b5I86Tnt17421tInx83+t8LBx4mdSXVDb/rbpS/Pqt+D0N9UN5CNH7SK7E4/x4WL23zMp/kvtcmjd+T41/dGkn2gkGYAAGYAAGYAAGYAAGYAAGYAAGph4D/Slct1omukg8Obj00Q6RTxNe8SSYgyeBwSbtz59pk/rHN7zZMbEt95kSuNIJz7bfvlfglddXh7vrLxOnPmGqyToXmzxfuaOJuKOiW+6+TaJnRF7Pp1ts++RfLg65m5S4cWDx8o76Sie4/XlZF6V7tLroEk8ge3g/yiW5Jh41Mak8+USvJnhl4SqBwfZqvP3uDsGgrD097qZHq7NfzLAyez2VHX2Pa5W3afxxOFk/7b3lDpuoPz7q/tLvx+X3azqqDrSoQWK8xBox0I3wUtZmcRp+rrrI9RG/3+vRhQNv37J4ZB06sujklqC6isN17Nu78B4Tbm2RQrQvuMQsCSGp63qPS0L3rrnXm9ikflf8nT+zc1/6Vsus35V/f76Xo9pL+3HLXXsqjqfxxVxLMLBFMBkLPS24MPHuvQ9K8+aCQlUflHArbwmqh9Riztut6nnlv0hn2aOFUJuWq19/20KG82d2bItQlV9ZcMb3c+8Hf6e4u/qijjLW72pz/cVx6tzHUBdy/H5uP2YXnjVGaTsLDzv4p/etfRWXX8sdfZzoWVCLvEhoEYj6uvd3q5/Va8e8MECLDbSQZ8QbyEpjTX3LxooKMdMtUTUuHHhwWduCtlxdxNckkEnM1+KhU5/v6qhDf3+kbRTH0U/nOQ697XVPeS3r9ymnHleO3bTMaicJjDaeRUKinnVO0mf8t+dHbVC3MMbzlI5Zad49bh09/nT86/V9KC8qEsHjRUBKp8hbZguLOD9NzpW3Os8hyocWj+idap5bvvjC6k99SO8jCexN0tICT4nEZZbbXq6B+x5sFF9ZmmlfSus/bkP7drxyfjj60qtWljhO96iRtmcchvOp948nbUabwQAMwAAMwAAMwAAMwAAMwAAMwAAM1DHQd8K1rDRlZSkRdPCtLR3iSWtoKBx+8pmRSc9kglsTqhK5NKGtCXEXkbU/duwW1ESk3XuyoqFZpNy8cMSiO+NKsa5CG92XZeQd948ITLfelc1H3WSmT9CWTTTLskyWaZroTyezlcfcNV3XZLLuqS69LBJMZMGZTiD7fYWVQOxCaW4C26y/583vmABWHArvz3qcvRzTydKqOCT+aGFEvPe3iUQZYTGNRy6XNYEsYSln2ZkrfxyHCVCzrrL21963dQKoP6v6Ty1zy4R5LVhoWqcdQnK0ICON3xdMVFnWaRGH0nYhec/8TvFa+/aKYZXNJ8s1Ae970rrw7e7XvQ7GcpTbdI0taZm6+e17FZs4vODOyrZLudYkfOyJYejT7WYxZyzOaN8zVJao8aIdr6OyPqh6kciosU5jp9KO68rHi6rnFb5JOnG8/XKucVttI9FXY02TfGnRioT+1FIxfT+oznbNm1+IQ15HqueUHXmPKLZ/iPqRL5TRGJXmzfZjHthfjLmW3pzrOsYWcaJ+1US4rhMQ0zzEv7VgREKayiZBLBauFU7i8sDCe8PhJ54p+mv8fJNzWU/KilK8Nh3/9G6StXTcL5qk5WH0baDx09xUR4Kr3+/m/eHPTObROYz7tLETWbaW9XuND/EY4XHF17xsqpe2PZlvvM1EVH1fxO6m9Wwdd76VgRbVefxlR89TXD6FTfMeP+/lTcuhMjR9H3p88viz87J5tl99ap1fljc9q+8hjd+xlyCPM3dU3qqEa1+sIW8YaV/R4gFbAHLRLFsUF3+3pWmpDPJIcuL9raV1b31sxtzSb700zrLfaV9KuSzasNUKB5assG1WVKcSqGPLapVPY/RYt/coyyfX+ScZBmAABmAABmAABmAABmAABmAABmAABvqTgf4RroeHTdTcc8OCoP1ZNUGnSVBZ5uRcQqaCgX67qGSC7XsfmDgsAS+1+KyC0fbak+vnVatLJ/eqnm9yz0TcUXeumog316X3/N5EI3++bjKzbILWnvfJwFGX5emkocLkrnna6dEnIcusk+XiVdZAts/siRM2sZxOYMtVsyyUJQql8WsSs9tJ5TQO/daka9N9pOViM7ZmtAnb2Vfb3sIunqZpKO/aK1yitVlZJwsnLPyoG9a0/Glcvne7BFAJjun93G+1mViJxYJcOF1Tm0lA63C/nRFsFF5CcjopnovbuasrX+7ZsmupCCDBQKKWLSrI1XFchi73ZK4r53iWL+Vaor8EUI1VEv4kVshtqwRs8S8LfNWRi7C6by6qGwjKsraWgDH4zrs2bqbCjZdLDJW1g66nbVEV9kzdO/HnD+sXHLiXjNnXdIjJuXeFuUS/aJYtrth5yZwO8Toum+os5r2qjgpBJma0wuI6TsfP0/T8+pkQrrVgRGOMbc9x+EhhwRqXX/kRoxIz9a5tOsZ4OXTU+1XvjJTTOIzOJcTJOlv52vPrW8Pg23+s5Dd9Xr+10EjW+CqXWCgT9/w9p2Munn67luNQ7MTv0rJ+n3LqceXaQ/WlBVruncAW2sy8sm0RmlvG7r3p9qDFh9k6Ht3KQO2ghXV19el5SsesNO9xPF7etBz2PowE/fiZ3Lny74sLtcCt4xt01EtIbvGKf4c2ff8qby5cq1/pPSDPLPJuYAu4rrjW+pru5fLqfVb9yRZ/lbwzm7gTV9sqL022BdD3QradR78/9G3jfSnl0ttQ7/qBO+6zcUZtJ2twvcu8nFpwqvykFu9+n2N//mNJu9AuMAADMAADMAADMAADMAADMAADMAADY2WgL4RrEybu+f2IGDhq8eoTkOmEeVWBbQLwwlnh6KvriomvqvDpPQmCEiUlADVxvahJO7nM7EYYV5oSxzXJqIk9TeC5RY1N6O4ccWEaT2am+dRvr590glb3ZFGz/4Glxb5TkVsAACAASURBVKRiOmmoMLlruXQ8rPIrl8a5MKorCQo+sao8xe1mLlrvWtRm9R7Ho/DxZHt8L3cuwVlue7OCVGTl2PR+7OZd5Ty4YmW7JeHoogoJ88ZWhVW2t4sWXNRZfoobWSPn2lDl1sR9PIkrAadsorijnpTHeAJb+0ivfcUmwjvCJiJb1X0vX9y+VeGb3IsFChsL7l9sQon2kq5rQxeAZQEua74m6VWFGc/ypVzH/aIo87JHTehRffoe8nKdKjH1wOKHizYswueE59GFKhI8PP8pU349J7S01fGoIJOKRVV1NuH3Wi3jQWXIpeUik6wjJYTkwozlmuoi5r2qLVTvad0rbReEXMipyk+anoc1wXDGHPP00NZmyZinNo7z68/XHW2x2PwFJvBKDFN45yYXn+pdQpmsmE1oi7x0VKXl7zt//1WFtfTnLzAvAvFYWPVMes/r3sX49L7/VtvEYptf1yIn7YltVsLxmNrFuOlxjecxx2H6Xvf2S/tzyqnHlWM3zbPqU+9rHf2eW9CrnvReExdy/RwvAvNxLc2Lx5EePU9p+DTv8XNe3rQcattuvjFknS/BWkJ87rmyvCkvztvh59YU9RPnMT23b70LZ9n2E1rY5IviTLS+cn44uPyx2ve+e0nI5TVNr+p3WR9In7E+PGOOCeq5b5I0HrVhPIaofSRSy6OKjzVKQ4sF9H3s6dmCk0uvbPsO8nsc+QcYBmAABmAABmAABmAABmAABmAABmAABqYvA30hXOcA8wnIeLIrFy6+ZhOAF1/eNqEa36869/0vNXFdK+6MCgVuWSOrs6bitdLRhN2uK+fbn0+wSlTU3tLuErGuLF4//ryXTeKxRITYelaThumEZu6ax5EeNRntFkHpvdxv5SluN01YH6zYM1fh2/LXagVN+sptZFyOOC1ZdWnyOJ4Yl1tJF8/jsN2UNX7OzxWnWYg1EC1keSZR6fAzz2fz4nH60awJ9+wtJmr9uo6aANfex5o8rxKqmtxzVnddeX3H3qRxmnXnzl3cvnXP1N1vEwEiwV0T4qpPWR2XWVy5SCBrfuOhoZgkK9HDz73Y0UbjWb6U67hftJVZE/Z3LbJ2llWjLPBTETYNH9dpvFDF86+04jB+XX0hvp6eV6WThu2X3+YC+sJZJoJMRJ5UZzHvVXWkek/rXnlyTjWu1+UxTc/DKw6Nkzr6tdyx7PlcWL8mcVbjbbr3sHMTl9+f0VF9VLxqwY8Jw/uq3bS7daj2iNd7M1dXcfyevpV7y58qyx0/5+fKn8ZHvded/TILfnlnUTgd4zFV+dR1bT/ST+J1jkOVMX6Xev152b1eUk49rrr20PM5Dv35wlJXnjDW/MG+pbTYq3VyyMY4LQxs4jFE6XicdXn3Muno5U3LoX4X10v8THpuouylV9q2M2l9etiyvOl+074uNi1f8+bbt58W4/n3i/qJvA/Ze6/Bd4d/v4rV9JvJ9qVf84c2pmO+43OxL84H7ry/zT18HMYXi6lPqN/L84LK4nWjo8ql+z7eac9sjQ+2Xcaou/d9t93dkVfx4/tr27fygjuL92IcP+fT959S2pa2hQEYgAEYgAEYgAEYgAEYgAEYgAEYEAMI16NCV52FTa7D+ARlmQvt3DNmdTRjrrlKlRjgE6yasJRFrwt0mvCrEovLJmhzaeYmX3PXcs+6JVUTC2J/XmWKhQ4JBZpMLdtjWC412/ZuHnX7q4nP3L6Onk56lPinfLrFkt9vWlYP3+Qo16ma4G6zam4gmsoluaz0mzznfPnkb5N8lYXxiWS5dW+Sdlk8zl3cvmVhm16vEgEUh+rM3KlnJvB1Xex0a23tdWtuot/9ixA4nuVTP4jFkrhfpGWWtfTOGXPN2kyidWxtrTpIw3vdtoaGwqEnVhUCgOffxxUP59fVF/xa7liWTjbs4SMmdmrBze6rbxzTgohc/E2uuRBaZ03bJK6yMKqzmHevo9wCJ41l+ouFHp1X7XGdppum5/fFrAm44yxc692jsVOiYmqx7tzE5ff8+DEWh2OvIX7fj3oHqJ1UH753dsqph/Wjp18XzsPHR+XLFoH86ooRYdDZL7Hg9zFyPMbbOB8Tde4cxn1a4mc85nj9xWGUH9VnXKceV3ytLN85DvWO17gl187xc6c+32UebHbOvLJyf/H4GT/3POXynutj4koWu/K+oe8GCZ8el9o0rhe/nh41nmhxl1lLt1qlnmnK8qb4/N2S5Wh42N5n++9fHD6/eLYJv7uuuLbtW0/fXHpPa3Femr/cb3O3fdci+74q8/Jii+/k7j0RmNvikyt3bWcx5zrLo3lRiOqwLWzNt07cl1yAjtnSeSxke9ziR+OqyiEPC7J6b7Ifuj/PkX9sYQAGYAAGYAAGYAAGYAAGYAAGYAAGYGB6MND3wrUmITWZlgoBud9mLdKDxXUTC5sc8JUTlLmJPbn0XfywiSCa+JQYEE/myRLJLW5s4u+CS0vdwvoEbfx8Lo+6ponfdNI2d82fN6uYUZHQ9n6e0TkR7GFzR5uUvP43Zv3Udr/VMsEitQhS+DR/bc/l6jK55gK7rIVkvR6Ls1Vl7TYdDy/rbuVZezHnWMxdUzllQW3uyB9+vM1a3OONjzm+NPEsK+04XHqufY6Vv/h6PJEcX+/23IWQKiGr2zirRADFpTRlDZq6Cpb4Jdeqsib3ftM0ba+PgXsfaGOlsnytlln1ysKsSXop19b+Pp4lLrm9n0m8lpCRtl9dHXm5Pf9Ky695HarNUhEoDqPzpukorBbsmNWdLO8i67o0zon6bYLprXeZW3VbRJKMCWm6arMDS1YEiWnpvarfqrOY96o6Ur2nda+4c325LM00PQ+nOHaOs6twt7Q24T9jLe08xeX3/MRHF6XFQdqnFE5tpX7jfcfjzdVVHG9VOHk5se0b/vB6R3sqPYnWil/bWGgRWB37PiboGOehX89zHKq8cVt5/UnQ9nL4tbjuPa74modPj+JQ7z4d/Z4W3uSsfXVfC9YUXu89Wdo39U7jeWprt1bL3gVl+fSyxXWgPKhN674xlC+9S1y01nO2oCOzN3Y2b6PjT1Vfd8to9RNtSaNxX3nLLVIsW+gXf1vE25zsvu7mcDrTh72N6o72TTP7avve1veT3HjHbVz3fHw/7kunDx22ssbtqPbTYh7fN92f1beNuUtfv8n2+tbCMi329Pscp8c/nrQj7QgDMAADMAADMAADMAADMAADMAADMFDHQN8L1+kEZFWByiYAq57RxKEsTGRxrXCaXGuz/k32D40nDbuxolPcZkEii+CNb5W6tPS81pXFJ2jLJnA9Hi9TOmmrcqbXZOGjvSnNwmV0H2dNSGuStRurF+Wpm3ZT+DQvcf6bnLvwJzfssaVVWfmLODVB++iTWXeXRZiMIOYT103qP45H4bUYQ/mNr+fObSL5snmFu02FUbqyKi91Hy5r9YtmGdOn9+4r0ognknNpNb3m3HXTvnVxe13GE9tyAX9809uFa1HxlzIoV7S2UCEjXNWlKZf8ElLi/TT1jJcvt2BGda5nTJyT1eiJE0X95tJLudZvCW1aGKIyS2jQPt56VhP4Hr/6nMcnTga3/KmxoOz5T7n06zkr4XhM0wIBjX9tbZHhX/nzsUH1YXX5xsYi357/CTsOD9te9EpXFpJtZSgZswt3+V3uha26iHnP8jpaR6r3tO5VB1ViVlpHaXp+X3FonKwTk8qe93j8KKFOQqLG/DKWnZu4/P58evQyiuNYkDLR+t4HbJz1rR08XtXV8OBgkLCaa0NfoJWzsNUCD7Gn8S72emKi9YPLi323PV91TI/HGHnsjY228ET1pe0I0joaz98ph754S2KrpxPXc9U1jyvHrj/nx5RDs6i9/e7smOELGvSNpbrRu0tjaxMX2J6nuN2K8tz9u6KMni8ddV/ll1eT+DtAbVv1jWGLIG75bTi2bkNbvKqP3HO5vHk+nDel6dfio97rKpP3OYXLCdcSjyX6ep9RHHVxx+l0e+7v0+PrN1m+JRir/3k+u4kv7ktuOa1vbF+0KIvysgUMchW++9qb7C/3PddNPgjLP8EwAAMwAAMwAAMwAAMwAAMwAAMwAAMwMDUZOKuFa7lYlIvbeLJSE4q5icoc4F1NIo5aW9t+gKdOFQJZ2URx6WTmqEBSTOAmlpW5fObK1HZteNgmeiUEmJttT+PECbNA6tbqRWVqInR4Xssmh/1+k6P2RpTL4mPrOsUzlbVsMYKLWRJAJJxI9GiSnk9cl7VfWRzdlNXTiCfA/ZrKlEujuJ/sKR5PJOeea3rNueumfeviLvI8WiYXnmIxSpPfEsR8f1RZW8tizYTgGgE5l77EDbkh7bDiPnbM2B2P8qVtHXsy8DyprMrD0KfbTfBKOZT3AIk8aR358+nR2yfl0q+XcePxNE1H4SVCmND9y8vs6KKExzVhx9HFJp9fOMsEn6Zt5eN1bH3aJI+qsziNqjpSvad1rzQ87bgvl6WdpufhFMd4CddaEKGxL91WwdPyo3MTl9/vdRxbLVtcEr9PvS/H7xU95/F6XUnozvGThutIM1lUIZFNltaysvawXvd17I91jFQ/3nXZPBPT1Y9jAdnzMp7HlEPbhuSSObagxNPRmCPLWW1tUVwbHeO87nXd44qvefj0mHKodGVtfWrXX9LQM2oL1YFEa7ng1jV9c8mdvBacKF+xZ5Q0Hc9T3G4Soy2dzLYR6fPxb7Vt2XedrJT33bkou5hM9ZF7Lpc3T895a9LX9YzCZYXrhG2F7TZuz1PdUW2l8SC2mrcFCVoEEC2kqovH7+s7TJ4XtBhSi8O0WEHu5Pc/sNT+qsRwbfuh7zV9z7mI7vHWHa0tb73LFrRpQcvAPb/Pjit18XB/av5DS7vRbjAAAzAAAzAAAzAAAzAAAzAAAzAwfRiYhsL17DD4p/eLSdoyWE98sNUm6lLL17KJylw83Uwintz2sYkf7gK4bkK+bjKz7vk4v5r4TSdf/ZpEMQmAmlxO9zfVPVm0aqJZljfx5Hccf3quOmwkdIxOzHZT52la+u2TrtpHc+8td3RMVHpZNdmce76Xaz5xrbx383w3ZfU04glwvxZP5sfpl91XHBJT4rji55qeO3fdtG9d3HGe5bpYdSQr+DZRY3Thh+/9LNFDe4Sme6rWpaX77rpUbpfd4tmfG8/yZdt6eDgMbd8RtNBi9zU3mbAz+M57JvyqH8oSXIKsrGBbJ4fCwP2LTayI68jzmjt6/lMu/XoZNx5X03Q8/Bk/Dg8bG3K5L0FkYGHzscbH67o6SMuk8DHvVXWkek/rXvHpnSRem/S/ND3Pj/I/HsK18nLgweWN9tB1buLye37GcvR4c3UVx9s0XPxMet603cc6Rkq41mIYjbMmXHf5bkjzXfdbdSNvDG6RK48UEs4l2ks4LFuE5XVq+0CfOGnvL2e6rj2UpzYOW62wf9FDhccaz/OIBfMdto9x6r7atma5ZI6JkxIp/Zn06Hnqtr+m8ei32jb9BtL11unTlvey/aRVH7nnqvLmvDXp6563yRau7VvvwlkdIvWJ97fa91+TrRhy9a53uARsHz/EpBYIapFk+u3tz7vngF1XzretZfx63VHfgfr+O7j8saDvCC1uU1payFL3LPenzz+1tCVtCQMwAAMwAAMwAAMwAAMwAAMwAAPTg4FpJ1w3EecG39xse53mJivLJipzwDedoNRknSbvYpHNJ4/LJoo16Vk1menPa29Ss+TMWOd4njXxm06+6ppPsO+Zf0uH20ZZtkrMNrfW2z62yV1NiqeWc55GfFSZfKIyvl523k2d5+KwSdeLZpu7WFn7qU7ifWxz5c/F0801n7gua7+yuLopq6cRT4D7tbLJ/LL7iqNJ3yjLt18vuMvtYV7BoD+fO3qeJdbu+fWtpZbv5jp93vyw//dLbV9jF7FzcVZdM4uui2ebl4GDSx8N8aT8eJbP2/rE+38Oh59ebVzKCkwCpk2uHzxUWCUWewyPWhPLIlH7p6sPapzxOiprdy+v5z/l0q/XPd80HU/vTB4lTEgkkxtZ798qZ9OxxsfrujpoK9PwsAkf2ndVQojuVdWR8uN1f2T1WrNg1Nj7+a8uH7Eg3PhWpYiixUF7b7zNXCp7GT0/yn/TPa7FjfaL9Wd7PTo3Teu4aToer9dV2XNNw5U9r+tN233MY2SrZf1ai7001mpxQFW+xvOerNVlLavvDAnZ8tQgBo6+uq4Qtj29nNWyM13XHl6fYlr1qm8a28IhsoDWwgilfXDFX9xhe9p+lNto1VNVX/SFAFVhPL66o9o2/Qaqe0b3VR+557y+cnlz3uL3dlVaClf1rRc/223c8bNl58bOdTeHPTfcap4Q2sKJ6RUrTbx2q/m2+zXvfFnHa+Hj4VWri76geHTNvy3T+JwNs8pPF7BVpCchXNv3SPj2OMWQ7aseXfN7HKfHP7G0I+0IAzAAAzAAAzAAAzAAAzAAAzAAA9OTgb4XrjW5JWvf3P6X6TVNvDUR53Iuex1wTVSWuZVO02u6x7WE1UMrV7VZkNZNyNdNZvrzTQQFTa7Gk6+toaGw9ze/tbqSe8jURatbxdj+waN7f2uyW27O0/1Evd7io+qwSb78mbLJYb9fdbR6uOHWNpfREq93zb7ahElN4qflr4qv6T2fuFbemz6jcN2U1dOIJ8D9WulexSV7FCuOJn2jrizdcFcXl9/3Mil/2vc55dHDyXpL1lMKp32N3W14cb9iUrsIM2q57S5RlZbcXcsDg8KMZ/m8reUGXGOT+o4syd1NqqV9292dewyPulxW/5P1tcQhr6OcUFKULcp/yqWXq5Qb3xe6hJ84DT9XnLJ4Vj4lmJVZeHr4sRwl6MpCVHvXuoWp4lM5m441LvrU1aHnU0KIOJHwIQv/gTsXGZvibv/9i81y3sP6UaKdrP38t5iViKg6ygpDo8yKCbFhi4M2vmXeL+RmObZWrXsneJoqn/YSPj2w/y/5aNI3MmGcm6Z17HmoO7pVZcpp+pynXxcufS7+3bTda8dIibPDw7V1qvT03TL41pbasHE+x3Iud87yOCLPLh6PC4Dy5FBm3ephfXypredWy9w3a/sQfddIGPQ60UJA7U+s76KTH39a5MPTaDtqjFv1vLmPbrseMdi03cqej6+rbXfOmFtbD/EzOld9xN9Oft/ry8cSjeU+/nXjXUHxNe3XCut1omc8L2M5+reehOQyYVpl08IqjSl1HKV5Uf2IP1/04/c1JsoVuHjxazqaNf6MObboQQs/4m/QOFzuHOF6ev6TmmtrrtHWMAADMAADMAADMAADMAADMAADMDD9Geh74bqbCXObALxoVrG/pfbN7BbisonKXDxNJhElEufcdtZNyNdNZvrzTepHk4fp5Ksm+bSvoyYl47JpItME6gtnhcPPrWkT221/ysvmjbj43PxO23NxHKrDJvnyZyrrXEJBZM3lz/hRljxyO5lOumryWBOtKrfE0LT8/nyvR5+4Vt67iaOyrNGkveL0NOJJar/mE+Zp2n4/dY+pOHoRrrXIwyfklZZZPc++uqv2TfOY/pboIusqiSGx9XNbOLmIfmKVCblmkTpzrk2IdzuRLoa1qKFt/2xdmzc/HH72BesPYrcbftvyGbVh3NZyDx672h/65DMTYuO9eNN4bCL+ptvNWs3btazd/VkfF1Iu/Xrd803TUXo+/okrLfapcvvr+evlKHbFc5mHjKZt5fmtqwPxLot4ManFSs6/2JQV/Imt27rq83oPqW58wUJaB2JAY5WLgX5frMoDge9DrQUMtvAhFsYj3ornduzsEIr8XrdH56ZpHTeN3zlLOU2f9/TrwqXPxb+btnvlGCmh9bk1Nuak75o4Lb2rtKgh5qbtfqa9xnpflvkSHm3P6Dj+aNFE3YKzJu3hi0fkGUPbLaiPqKzql7KsVfrpPtdjKZu3W+1iG190U3G0hUMXX25jVjd5isfw+DmvLx9LBt/9wNjQWGh/588Mx97Y2GicEHeTYnGtRX2yptYii3c/qMyrW0krn0fW/KHym8zryd61V1zb5mnI7+m7U4uC4u8ULR7Tu1nXNOa6YC7xOv0W9Xjio57RAiqVqXAVvvCetjTi8JxP/39waWPaGAZgAAZgAAZgAAZgAAZgAAZgAAamLgN9LVzL0u3I82uDrH2bQCbXqC5uyOpWFkixQNUkjrKJytyzPrGqicfc/aprdRPyNol+waVmvZRaeuu3rNA14dhEUNDkahPh1velVNgyQU1xaWJW1oBl5VMdNsmXP19W55oslbVO2aSlWedcfk2p2OlWjHLNLBFq7023m/AjSzRZw2nyOf07+eGIW/Q6QdQnrnfNvqaRNwBvQ4Vv0haqmxxfmsyVtVKbVWckVoireN9Tr+NKUSZ63sP78cSfPzSLU7GmfJvL41/MMCvlqgUF/nyTowmFSx+1tsnFae6Tb/mt8S4rP4VR+2jBgtpVosTxDW8WAmNpmhWiksenPWq1f7IEytjlaGmcFXVXxrXyr0l9t1RsErctGLhsXqVrXcVTNq74dRdaytJ0ruvC6XmxqD6lNtBfU6GmLO2y61Xjv+pYbDbxyuEeMirLNjxs4ofGOHPfnizssQUxl18zstBh1fNB1vSqh7K8x9clYKt+9YxEaC+XRCNZWmtcisPr3Licc52Ng0dfenXcBOk0nbLfzkM343lZXPF1j1ftF19Pz5taZqfPxb99HD348OO2CMTH4vSoccTa/YaR7Qra7i+406w/dV9usMvEa7Wh+kRTJuJ89nIui3y1jYt9HXGMunq2clVs7zD02faRfpRrj+Fh83SgsV+itS/k0Dim8djfgXpXFPcqxsU0j3rG3Non1uxFuz3yRCUjaXy5392Iw/HzNobL7f7+A215cH7bxpJRIVhjodhpWhf6Rh0P4dq+325e2OibV99Gtu3CVb8utl2Iy50711ikBTYq396bF1Za1Yv/PTcsKH2nK/7jm962hXB2/uZmGwO1OC1+L5qYPesqS3Pgnt8X3/e5/Oma0pUHFeVR330Hlj5SumCoLA6uT91/aGk72g4GYAAGYAAGYAAGYAAGYAAGYAAGpg8DfSNca9JT1hJtk8UVFjRV4cx97cWX2yR0naVRCrMmKsfbVXiahn67kFQ2cV830erPNxEUNLlaKZaOTkxLPDFrqiNH2yZp4/z7vpNV+3faZO+sq0ykaZ0+XSkWqB018Z3WudzyKs+acM9Z3JiF09U3Fi6e4zym55pAVn3KLbp4UJxlf2ZRtHptqLPW94nrsvZL8+C/47rxa2VHn7hX3svClF23/jTqYv/wU88FTfqORVw08fjmhUV7HHvtja7zVJZXu55xw6tFKNqDWi5ec1xKvJerUZXL2lNW27OvNveuORGwTlRSekonZkR7CotDiZjxmCNX+7pu6d25KJzaubujPrpp67RufAJeIpnikZCuch56/OmOdOJnfVxIufTrbUJLRlxyrhXO81C2cMTTPb5+k9WFuQ3OxOnhJuKocjYZA5W296e6OjBL5xsWtLldjvMu0efwk8+Y0JeOIxqrNI4aGzPn/oVNH3NGRa3UMlV1XSZ0daQnzkfTSLnUYi8xqfT1J5blTUALO+IyND13HprWcbfxppzqeVmVa/y3/jYqGOfCNU0rbndbPDCwv7Sum8aZCzf45mbzVhK7d8+FG69rLlqrvmKxL41fbpq1AExcuPt4ex9e/5uCFV+QJHE/fV4eY8S12iPHqI2bDyw1oVD9QXE5f6VHeW4Z3QtcY5x5FZhg4VoLkvReTMtX9dvqK8mXwnu/SMcS9VUJvFXtIY8N+tbVe1nWy7uvualNuJZ3Bnm9id83fu6Lb7TIwq/50RZymfeLWZXitdIXD+a94cSJrurDrKjnXFe8bzUuaEGNxi+vRzEia3x7V1V4y1F4hVU+xEDZYkl962lxkrF18Wyz8i9bOOJ54Dh9/kmlLWlLGIABGIABGIABGIABGIABGIABGDg7Gegb4VrWOxLHJLBMJoyaINdkqyYm6/LhE+JydVwXNr3vQlLZhLzirLLC8eclxtqe3RWCUVmZNGl49JV1Yc/8W0YmMQ8eqi2HrAS1z2zV5HyanokFsljKTACn9dLk9+A774YDS1bUWt+UxaVJVlk9quyqZ4mfPvnbVJD1ieuy9itL2+rmsnmFpVFZOF13vnoRri3eVsvcGmuSWpO+vezxGedPk/jizSxrayak4+e6Otc48PkuswaT0GKT6zVcaj9Vm9AfFa5tv+okf7LOl6hXxa3nU7xKjB24476RRRWjAktOpMwJ5B5P2g/8ejfHeMGAJu/jPWxz8fi4oLTFt3PtHhpq3e6O7nGtcHLlamJBhatWiSAm3t/9u8KCOJevCbnWapl1XVNR1ftTKjZl86axKmGoI1yrFU7v3Wci0f7fLw2+mEHvDxNafEGFi9baw/2qX5ub5Y64KsbvIqyn99KrNmZJtLa0ZswZEZKidJxVpZfuL1vE1yBNjXMSyTTmu4V4N8+Xha0bP7UIwvu0BM6qflaWhl/vqt0b1InHO5lHiaOyei0T+9K86b2m8Sxtw7bx5ZI54cT7W7PfAIPvvFf7TaTvCb2b1Rc0dhibl83rXLwRcVrFp0Tmfbfd3bXYnJZdv2XRPZZ+kMZp1scz5nbs0ZyGK/vt316qI/XVtjFseNgsvOsWz5XFXXZdbe3vA52Xhau7rneo2LN3w0WzrA4KIVku9Z981jwl1Y2fqkOVu4mArrAS5rX4QIL/eLZlXXm5f3b+c0y70+4wAAMwAAMwAAMwAAMwAAMwAAMwMLkM9I9w3ScTxrK41MSbJhbr4NRkmixLeplEk8A0cP/iEbfOmbIffu5Fs+qTBU8uH5rUPPH+nxvl08r03JoirNxeyk2k/jQhPV6CsuczTc+vT6ejTarfeteIdVWm/crKKtE3tbYsC6vJ5RPvvDvm9pFQr4lmud2vm0wuy8tEX5ebU01g71tw58heqZ/voYroNgAAIABJREFU6jqv6oc5q1+52T60clWpe/VGZRsVEyS46U8u5eXqtGqckJvSo6+uG3P7qUxaMNBEpNK4IoHexICjx2wxUFUeG5W9hG+1WVPhYSzplD1bjKFv/7ERK1oQoS0kJqo+yvLJ9c6PHC2Csf2R9+3Pvt9UZ2qn/Q8sLfb47rUeNVYrHvXbXuPop+e0WOTwqufHzQWy2qIbEbyf6mKy8iKBX++qur2h6/KnMUkegvSOqgvb631975kFtN6BNYvAGqcxPGwLdjrK32rVLqTU96Y8VmhPdN/ap0m68rBiFvAl76MmcRCmcyymTqgTGIABGIABGIABGIABGIABGIABGICBfmQA4ZpJsAmbMO1H4MkTAzEMwAAMwAAMwAAMwAAMwAAMwAAMwAAMwAAMwAAMwAAMwAAMwAAM9B8DCNcI1wjXMAADMAADMAADMAADMAADMAADMAADMAADMAADMAADMAADMAADMAADMDCpDCBcA+CkAshqlv5bzUKb0CYwAAMwAAMwAAMwAAMwAAMwAAMwAAMwAAMwAAMwAAMwAAMwAANnmgGEa4RrhGsYgAEYgAEYgAEYgAEYgAEYgAEYgAEYgAEYgAEYgAEYgAEYgAEYgAEYmFQGEK4BcFIBPNMrNUiP1UEwAAMwAAMwAAMwAAMwAAMwAAMwAAMwAAMwAAMwAAMwAAMwAAMw0H8MIFwjXCNcwwAMwAAMwAAMwAAMwAAMwAAMwAAMwAAMwAAMwAAMwAAMwAAMwAAMwMCkMoBwDYCTCiCrWfpvNQttQpvAAAzAAAzAAAzAAAzAAAzAAAzAAAzAAAzAAAzAAAzAAAzAAAycaQYQrhGuEa5hAAZgAAZgAAZgAAZgAAZgAAZgAAZgAAZgAAZgAAZgAAZgAAZgAAZgYFIZQLgGwEkF8Eyv1CA9VgfBAAzAAAzAAAzAAAzAAAzAAAzAAAzAAAzAAAzAAAzAAAzAAAzAQP8xgHCNcI1wDQMwAAMwAAMwAAMwAAMwAAMwAAMwAAMwAAMwAAMwAAMwAAMwAAMwAAOTygDCNQBOKoCsZum/1Sy0CW0CAzAAAzAAAzAAAzAAAzAAAzAAAzAAAzAAAzAAAzAAAzAAAzBwphmYMsL16dOnw8GDB8P+/QfC0NAQYiuCOwzAAAzAAAzAAAzAAAzAAAzAAAzAAAzAAAzAAAzAAAzAAAzAAAzAAAxMEwb6WrgeHDwRFv3uwfB3//v/C1/68leKv/XrNwLgNAHwTK/UID1WB8EADMAADMAADMAADMAADMAADMAADMAADMAADMAADMAADMAADMBA/zHQt8K1LKxvu/2OQqxGuO4/eOjQtAkMwAAMwAAMwAAMwAAMwAAMwAAMwAAMwAAMwAAMwAAMwAAMwAAMwMB4MNC3wvXu3XvCP/zjOSZcn/ejn4aPPvo4DA8PY2mNpTUMwAAMwAAMwAAMwAAMwAAMwAAMwAAMwAAMwAAMwAAMwAAMwAAMwAAMTDMG+la43rr1w/C3X/07E67XrH0Z8KYZeOOx6oI4WL0DAzAAAzAAAzAAAzAAAzAAAzAAAzAAAzAAAzAAAzAAAzAAAzAAA9ODgb4VrrWPtbsHZ0/r6QEbgwbtCAMwAAMwAAMwAAMwAAMwAAMwAAMwAAMwAAMwAAMwAAMwAAMwAAMwkGMA4RpLZqzZYQAGYAAGYAAGYAAGYAAGYAAGYAAGYAAGYAAGYAAGYAAGYAAGYAAGYGBSGUC4BsBJBTC3moJrrLKBARiAARiAARiAARiAARiAARiAARiAARiAARiAARiAARiAARiAgbOLAYRrhGuEaxiAARiAARiAARiAARiAARiAARiAARiAARiAARiAARiAARiAARiAARiYVAb6Xrj+L//1f4S3N2+Z1EpiNcfZtZqD9qa9YQAGYAAGYAAGYAAGYAAGYAAGYAAGYAAGYAAGYAAGYAAGYAAGYODMMtC3wvWatS+HL335K+GrX/v78OG2jxCuWeEBAzAAAzAAAzAAAzAAAzAAAzAAAzAAAzAAAzAAAzAAAzAAAzAAAzAAA9OUgb4Urk+fPh2un3+jCdf/8I/nhN279wDgNAWQlSpndqUK9U19wwAMwAAMwAAMwAAMwAAMwAAMwAAMwAAMwAAMwAAMwAAMwAAM9CMDfSFcDw0Nhf37D9jfp599FhbcujD8x//03024vmXB7UFCdj9WHnmiU8MADMAADMAADMAADMAADMAADMAADMAADMAADMAADMAADMAADMAADMDA2BnoC+F6/fqNJlLLNbj//e1X/y4s+t2DYXDwBKI11tYwAAMwAAMwAAMwAAMwAAMwAAMwAAMwAAMwAAMwAAMwAAMwAAMwAAMwMI0Z6Fvh+j/81V+HeVddGw4cOAiA0xhAVp+MffUJdUgdwgAMwAAMwAAMwAAMwAAMwAAMwAAMwAAMwAAMwAAMwAAMwAAMTHUG+kK4jivx2LFj4cknV4X/9jf/06yvr5hzVTh58iTiNeI1DMAADMAADMAADMAADMAADMAADMAADMAADMAADMAADMAADMAADMAADExTBvpOuJaI3Wq1wm/vuNuE6//z//xD2L59BwBOUwDjRQucsxIIBmAABmAABmAABmAABmAABmAABmAABmAABmAABmAABmAABmAABs5OBvpSuBaMr72+zoTrr37t78OH2z5CuEa4hgEYgAEYgAEYgAEYgAEYgAEYgAEYgAEYgAEYgAEYgAEYgAEYgAEYgIFpykDfCtfr12804fq//Nf/Ed7evAUApymArJg5O1fM0O60OwzAAAzAAAzAAAzAAAzAAAzAAAzAAAzAAAzAAAzAAAzAAAzAQMxA3wvXX/ryV4JE7DjTnAMxDMAADMAADMAADMAADMAADMAADMAADMAADMAADMAADMAADMAADMAADEwfBhCusWRmUQAMwAAMwAAMwAAMwAAMwAAMwAAMwAAMwAAMwAAMwAAMwAAMwAAMwAAMTCoDCNcAOKkAsgpm+qyCoS1pSxiAARiAARiAARiAARiAARiAARiAARiAARiAARiAARiAARiAgV4ZQLhGuEa4hgEYgAEYgAEYgAEYgAEYgAEYgAEYgAEYgAEYgAEYgAEYgAEYgAEYgIFJZaBvhesPt30Uvvq1vw/a4/qpp5+Z1ErqdVUAz7GiBAZgAAZgAAZgAAZgAAZgAAZgAAZgAAZgAAZgAAZgAAZgAAZgAAZgAAbqGehb4XpgYH/4xrnfNeH6X875dnj5D6+EfQMDYf/+A2FoaAghmxUfMAADMAADMAADMAADMAADMAADMAADMAADMAADMAADMAADMAADMAADMDBNGOhb4brVaoVHHn08/Ie/+msTr2V57X/r128EwGkCIKtL6leXUEfUEQzAAAzAAAzAAAzAAAzAAAzAAAzAAAzAAAzAAAzAAAzAAAzAwHRnoG+Fa1X88PBw2LBxU/jlhZeEr/2v/4NwjVjNggUYgAEYgAEYgAEYgAEYgAEYgAEYgAEYgAEYgAEYgAEYgAEYgAEYgIFpyEBfC9fTfdUA5WNlDAzAAAzAAAzAAAzAAAzAAAzAAAzAAAzAAAzAAAzAAAzAAAzAAAzAAAx8ERCup+FqBMBmcIMBGIABGIABGIABGIABGIABGIABGIABGIABGIABGIABGIABGIABGJhKDCBcI1zjSgEGYAAGYAAGYAAGYAAGYAAGYAAGYAAGYAAGYAAGYAAGYAAGYAAGYAAGJpUBhGsAnFQAp9IqD/LKqiQYgAEYgAEYgAEYgAEYgAEYgAEYgAEYgAEYgAEYgAEYgAEYgAEYmBgGEK4RrhGuYQAGYAAGYAAGYAAGYAAGYAAGYAAGYAAGYAAGYAAGYAAGYAAGYAAGYGBSGUC4BsBJBZAVKROzIoV6pV5hAAZgAAZgAAZgAAZgAAZgAAZgAAZgAAZgAAZgAAZgAAZgAAamEgMI1wjXCNcwAAMwAAMwAAMwAAMwAAMwAAMwAAMwAAMwAAMwAAMwAAMwAAMwAAMwMKkMIFwD4KQCOJVWeZBXViXBAAzAAAzAAAzAAAzAAAzAAAzAAAzAAAzAAAzAAAzAAAzAAAzAwMQwgHCNcI1wDQMwAAMwAAMwAAMwAAMwAAMwAAMwAAMwAAMwAAMwAAMwAAMwAAMwAAOTygDCNQBOKoCsSJmYFSnUK/UKAzAAAzAAAzAAAzAAAzAAAzAAAzAAAzAAAzAAAzAAAzAAAzAwlRhAuEa4RriGARiAARiAARiAARiAARiAARiAARiAARiAARiAARiAARiAARiAARiAgUllAOEaAEsB3HVkVzhvxQ/CPz74D+HejfeWhptKKzUmM69xfapO479+q984r/NevJK2Z5yAARiAARiAARiAARiAARiAARiAARiAARiAARiAARiAARiAARiYUAYQrvsYsCMnjoRfPnVBh3AsIVGi50QLirF42W/C6mQK0L2mHddnLFrrvGn9VsWRxqnfq7eu7mkAidOp4kzxKx0tcNAzqpu3Pn8rnLv0m/an817r60w/pzZQWdTn1PeUfq58Zfk63Todtu3fFhZtuj/8bOW/hX9a/I8Wn+qiST0MHB8Iy7csCxc9faHVnbennr/i+SvCxh0bQ+uLVml9Kn2ls3Dd7eHfn/h5+Pbyb1n6iuecJefYtcf+9Gg4cnKkbGXlyF0fOn0yXP787CK+uI7S8N7+nv+yY9N6OTR4KNy38d7ww0fOK+r0nx/6evjRIz8Mt71+a9h3bF9HnXi7laWdu17GuepcdT/j2Rlt7aL6vWrNvPDBvg860k/rJO5P3ifLxvf0WX7jxgcGYAAGYAAGYAAGYAAGYAAGYAAGYAAGYAAGYAAGYOBsYQDhGuG6VHSJxZamwurZ0nF6KaeExT1H95jAq7rdsmtL+P6K75kY2LR+4zbJiW/pNRfJus1vnE6ZoKc4XSA824Xrd3a/E767/DuFsBu3QxOBdvHbiwtRNn42PpcQLqG0THiO2yx+Lj3/wYrvhy27Npf2+xwrq7c+FyQWe1xnSrh+5ZNXSuvV85Jj3Ln0ME2Oi99+sKNOJNhft/bayrZRu0hYV//O1Z2uxW3j+UW45kOzjBeuwwYMwAAMwAAMwAAMwAAMwAAMwAAMwAAMwAAMwMDZygDCNcJ1I7GlqbB6tnakXsodi1lN6zcVvxXH7NWzTFD85tJvhLUfrS2Ecd0bPDVY2r5VeY7zhnDdblGeq7fUylgir9pDgmkT4Vrtr7ASQX/1zK9sQcCOwzuC/la+u9KsjV18lZA6dHqoo13VZrJCvvDpX4aHNj8UNu3YVLDw7p53wzVrri4EWFkvf3Lgk444cmXTYoufPPbjQrRWPpoK14+880iRB+Uv/tt9dHeQMJxLU9eU/28vG7Eal8X4ra8tCCqH4vj04KdB1uMXPX1ReOHDFzriEPdxWrnznYc/D3NfmGvl+t7D3w0fH/i4Ix5Zz7vlvOpMbeHtIuv4by07157/58VfD0++90TH8142pe/bLiBc88HpXHCEBRiAARiAARiAARiAARiAARiAARiAARiAARiAARhoZwDhGuG6kdjSVFilg7V3sKr6iMWssdSvhOWmAmlVfuJ7cd4QruuF6/f2vmeWuRJTJYjKvbSL0U2EawmkEqRV73E7+PnBwYPhgqfOt3b+xpJzwobtGzrCKc0qq1/dX/HHhwshduG6hR1xeHp+1DO3vX6bpTvrucsKDwFNhWsXaT2+pke5Tf/5yp9ZuhKM39/7fmlecyJ+k3Q+P/x5OO+R8yyNOS9c0bEYQML6jx/91yIPOaFfLsTVvnViftyfvE6wuG4+VjZpT8JQnzAAAzAAAzAAAzAAAzAAAzAAAzAAAzAAAzAAAzAw9RlAuEa4LhWEYrFlLMIqA0V+oBiv+kW4ztdvt9y50ByLshIZJUrGrtCbxuvxNRGuT54+Wbl/tdJ87E+PWV6Un7vW31Xab6vyJ2thd08vS/060deFWVly69ythuM6StOLrc9dpE3D1P2WZbMsnWW5/vJHL/VU1qZpKB2ll4aPy3HDyzd03Fd4WXbPeOYSaxfVq+o3jUe/477udYJwPT79NlffXKNuYQAGYAAGYAAGYAAGYAAGYAAGYAAGYAAGYAAGYGBqMoBwfRYI17KalOh0xfNXhG8vH3G96xa6uqb9eRUm7cSx2CIRTtacT733ZPjXR39kopIEH53rWpWlp6xFR9z6XtiWvtz/yi3yCx8+X/l8Kh4eGjwUbnn1N4UbYYlbEo9k9ZqWwX+7iOiC245D2811svKgutBRrpR13Z8pO2qPYVmuyn2yuxH2srz+6evZuszFldZvLkyTa70K18eHjocH337QrE5VDv39+xM/DyqDWaOu+IHVzZmyuD5w4GC49LIrwlf+89+E667/dTh27FhtWzSpn6ZhUkb0XMpe07gUzuNrIlw3iTcWUqvapCqumLk64Vp8zHx2hnGxZPOSNvHV+1EurTifLtLmwpVdk5ju7u+r0il7vsn1WHCWVbWsq9Pn4nKoLdP7/tv733eWf7vUMjyud68ThOup+dHk7c6R9oMBGIABGIABGIABGIABGIABGIABGIABGIABGICB8WcA4XqaC9cSWa9aM68QWCXSpn8SLF/c9mKHMBOLLXeuv8NcGbtQG8eha/dtvDcr2MZxxM+k579adXHYf3x/Rx7U6V081D60r3zySsd+ux6X9sPVvri5gcJFxJ+t/Lfw0kcvhe8u/05HPSgeWZZq/9xcHLq2Zdfm8IMV388+q+dVFyN7EJfv3etxx3VTJYx5+LKjC2fdCKRaTKBFA1538VELAR546/eFdW2VSOptE1sku+DXTX5UtsUPLQtf+vJXij/9LivzRFx3RmKxNFe+pml7fN3WQ1n8Xq9qq6o2KXte17UPs/ZjVhx1rsK12EQ8e33EvPq1XFpxPl2kzYUruyYRWe7BlcfYslz7Yeue3IjnFtqUxZe7rr2yff/s+S9fn41Pe15rzFE+yiyuY5FdAvi+Y/uyzMZ153WCcD3+HzS5tuYa9QwDMAADMAADMAADMAADMAADMAADMAADMAADMAADU4cBhOtpLFzLYlL70kp40d+/Pf5/w1PvP2XubCWkbNixIVz54lwTp1xMiTtvLLZIlNHeujf+4ddh68BWi2PZlqXF/q5ykyuhJ35e5x6H7stKWsKyrulP4pGsnF0Ml8AucSqNw8XDc5b8iwlaEpNk8Sy3vMrLtWuvKeLI7VWr+GIRUcKzrKWf/fOzlo8tu7YU7n5VT2WC3uadmwux61vLzjWxXiK3yqK6VNoqi/7KhPy4bF43SvNMCtcS2ySuK13l9dJnZwbVgfKz6oNVVsdfX/xPRZ1WiaTeNuMhXN940y2FaC0BW7/j+proc2ckFmVz5WuaD49vvITr2FX40i1Lu6obCb53vPFb8yygdv/p4z8pdWut8mk/Z4nHsavumNe4jtL6iIXrnz72k2KMEGvaU/q212811tLn/LdYVP9SPlX/u4/sDpc/P7vgUdeVr6vXXm33/Llujt42GlPWfbYuW5fqJ+rTSk91UbfHddm4oXzFdacy6RrC9dT5UOqGLcLSrjAAAzAAAzAAAzAAAzAAAzAAAzAAAzAAAzAAAzDQOwMI130sXI8VbLn3lVgk4eWatVcHCdm5OOVGPGepHIstZWKsW2UqDQlrafwSZ8pckSusLCfv2XC35bFM4HPxUGnkrKoldkvY0n2J2jkB3YUqhclZVcuK8+crf2ZxyCr7QGL97W6Ty55Py1Im5Mf1E9ev8hff6+a8W4vrDds32CIElSW3WEBivOpI9/VXJVx3k8+6sJNtcV2Xv27vO3NlXHcTXyxyqg9o0UfV87F47O2oowRfWQ/L3X7Z8/HCBo0b+q2wMa9Nhes47fhcrvW1iCZnOf3yxy+bVfg3l37DtiGIWYzj0LkWocgLQllZctflbUAu8fW8jvqdC6dr6gta5KKwEq+1sEP1oEUzy7csKwR2eS+oiqcsfq73/vFC3VF3MAADMAADMAADMAADMAADMAADMAADMAADMAADMDD9GEC4nqbCdSzOlO3hWtehY6EqJ+bqeQk4Emkl7JS5061L5/297wftD6s4JAyl4WPh+tbXFnTcV3g9p+flBlnCVxqHi4gKkxPYFV5uiXU/t1eti72KP5dHTy92L1xnFRvX75kUrlWHKqcs6FUuz3t8XPz2gxZG4c6UcD3Ze1zH5R+Pc2duPITreBGKvB7kBN84zznhWotPtDijbk/5dZ+9bmx8/+HvhW37Pyz4iHmtE641JiifsYeFNdvWhItXXVQsppGIvnrrc0X8nn/v7+5hQfle8Not5iJcYbTIRL99Uc4FT53flWjswrjYbtLvtGhFe8G7Fbie8z95GnjknUdKFwV5mThOv48n2pQ2hQEYgAEYgAEYgAEYgAEYgAEYgAEYgAEYgAEYgIHxZwDhepoK17G73TKxt65DxUJVmXgZW4KWhYnTkeAm4Ulx+5/y6uJ3TkhyIUtikc7j+Pw8FupyYZqIiJ5OTmh0UVv5lFjv6abHuD5krZrej3/H9Zsrdxy26lz1rrrJ5Tt9bvDUYOEWvWwxgp55c8emIItXxdukXdN0+N3unl589lonEn99P+amIq3vB+19LBaNJfiW7cOuBS9KQ+2eMhnzWiVcHxs6Fk6cOpEtr/q/7bP90Mg+2zmLZ++HyoP+5JEhFer1W8K47qs8OQE8V996Tnta67kmlusK/8onrwQt/vH8xEelrcUAb2x/I1veXB64Nv4fMtQpdQoDMAADMAADMAADMAADMAADMAADMAADMAADMAAD04MBhOtpKlzH4k9OyG3SgWOhKhWx/PlYqC0TOE+3TpvLX7ncdSvJWPyJz3PpeFmqhNmmwnW8F7OXwY9l6Ui8mvvC3KxwFec9PS+rD0+vSf162KpjN8K1XKBLsFZeZ6+eVbiBTuOP81ZXjvRZfo+8HMSy6rmK27q6it2259zk1z0f31c/lAisPqg/WXHH93W+aNP9dk9irBaYxPdjJqqE6/iZ3Llcj2tRh+om5yHB+6Hul7n+V7xxn69bJOL5kEcEXyQj995l2ycovPq914fq67LnLjULdF1XXcpFuW8vIOvxVR883VZfnibH6fGxRDvSjjAAAzAAAzAAAzAAAzAAAzAAAzAAAzAAAzAAAzAw8QwgXE9z4VpWs7Ke7aUzxUJVTlBWnHXCtSw4JZBKhGryl0vHhawqATAWsRQ+La+LiL0I13EZm5TBw9QJvk3qNy1H7nc3wnWcZlX+mobL5YdrIwO3M1fFbVVdqe9c9PSF1m8kWm/YkXfrXhVHei/dQmDfsX1FX3lvz7vhu8u/Y2Jyzh1+zMRYhGvlSRbSvogl7fPe39WPVP5jJ48VeYzLs/vobtt3ui5c/MzKd1cW6ZZtGeDhtY+4W7rn9oJXuNhCXXtxbz+0PZtXj5PjxH/UUMfUMQzAAAzAAAzAAAzAAAzAAAzAAAzAAAzAAAzAAAxMXQYQrqepcO17Pk+2cL1w3cJCsL7w6V8G7Z8rd9XxoBELYqmIpXAuZFUJgGdKuJZrY+37qzzX/R0YPNBWzrjMOq8rdxq+7DfCdX8OwGMRruMFH+Ntzet7nKf9SXvUSwTWPtSy9E75jl36x/1ACzvK2Cy7HvfX1Fq6qZv6eEFJEyFd1tWyslYZZXUt6+uy/Om6t5/22l732brSsBLAFaf+6sTwqvS415/9mHahXWAABmAABmAABmAABmAABmAABmAABmAABmAABmDgzDGAcD1NhWsXeyWm5CyQm3SyJsJqLB6lFryy5vS9YS9/fnbQvru5dCUgySWw8tqPwnXsKrxqX+hc2aquNanfquf9XjfCNa7Cz9zg6sJnKhB7u5Ud1U+uXXuN9QdZJctdtRgsC9/tdc9X6qbbOXIRtukx12fr8hQL1xLM4/DxeJCOKXG4eOxpIlynFtR1der1UeWuXPmJhfZe6iIuE+dnrn9S19Q1DMAADMAADMAADMAADMAADMAADMAADMAADMAADPQfAwjX01S4lnXkt5ada+KXLCx76XxNhNVYPEpFpjgPVZaIsmaUVWO/Ctequ7vW32X5k+tgCWC91Gf6TJP6TZ/J/XaBrYlAKmv3Gc9cYmWpEuFjMS5t11wexuPagQMHw6WXXRG+8p//Jlx3/a/DsWN5F9HjkdaZiMMF4ibt4vlJ96G+b+O94ypaK50yi2vnqKlg7eF6EWtf3PZi4bL7d28uautP8eKKKkE67j9iOvXk4HXqR/f+IMF+zbY1bWl6mPjo9fGd5d8O7+99vzR83fgVx8l5/30E0Sa0CQzAAAzAAAzAAAzAAAzAAAzAAAzAAAzAAAzAAAz0DwMI19NUuE73stV+sN12vFgYKhOnqoTr2KqyTLiW1eP8l683IbWfhesN2zeEbyw5x/J52+u3jYuYGFukp1an3bSVC2xNBVIX8FQelSuX1uK3Hyza5EwJ14sfWha+9OWvFH/6ncvbVLnWrXCtviChWlbW+psI0ToeF+osidN6jseDKkE5fS79Hff51Orbw7rb8qqFIrFgXLc4JxbD5QWiyXjoeagTuuO+snTL0glndnDwRLhlwe3hP/6n/x7+6Z/PDVv++M6Ep+ntwrF/Pt5oC9oCBmAABmAABmAABmAABmAABmAABmAABmAABmBgOjKAcD1NhWvBumTzksKqUfvIao/XHMSfHPgkbB3Y2nEvFqp6Ea4lDv3wkfNMAC1zFb7qg6eD9vB16810v1vl192eVwmzsUiec43uIuJ5K35ge/fm6qEqHdXdzGdnWD6Vjxc+fL6jvjzOIyePhOVbloWt+/5cGkZhY+vnn6/8WRg4PlAZ3uNPj90K17EIf9WaeR0u3LW/8Y8e+WHRJmdKuL7xplsK0VoCtn6nZZ1Kv525Km7j8nhfkGh9z4a7g6yv4/t150s3Lwnv7X2v9JnYmlv9bc4LV4Sh00Ol4dP04vGgTLjWQpZ3dr9TubDDy6k8aK9bRuzYAAAgAElEQVRsielpWjGjcpuebjOg3xpTFEfVAgyPVxbWEqAVvk7kzj1z0dMXZvMZ95Wm7ezx93rcuOnN8B/+6q+LvvKvP/5ZOHy4+33Ge02f5/gYhgEYgAEYgAEYgAEYgAEYgAEYgAEYgAEYgAEYgAEYmCgGEK6nsXAtsXXWc5cVAqQsDVe+uzLsOLzDxNtNOzYFWRWes+Sc7D7YsVDVi3Aty8ob//BrS19i3KXPzgxyH6545W77mjVXF9alX1/8TxZu9upZHWJalaDsHWOihWulo/qSBajEL5Xnyhfnhg07Nlh5VKfK5xXPX25CfFMRS+2huBSnntUCAtWP/iRkqw69jDpKfNxzdE8RRuFUZ3r+m0u/EdZ+tLbtXs59ssTK69ZeW5QjbpdVH6yyxQbKk7fJmRKup7LFter0tU9fDU+//1TxN/eFuVbHcoOv/hPfS11Pr976XLGA47LnLg0SRJ2D3DHHhtpJ7fZvj//f8NDmh6yP6Vln8+JVFxWsfXf5d8J7Xbq8V1xa+CHWyoRrD/P9Fd8Lt7z6G+sznn/1FfUZ512C87rPXm/j21nPMep9TUd3d6+85BZfeDw6qg8pjMI2Ebn9WYnwqjM9p7+fPPbj8NT7T1l9qk5X/PHhoj50X32qm4UAnk63x1S4/urX/j58uO2jbD12Gzfh+diEARiAARiAARiAARiAARiAARiAARiAARiAARiAARiYTAYQrqexcC2wZM14xfNXFGKRizDpMWel7CKUwvYiXCv9vcf2msiVpue/JWLd/OrNJmjpWm7f5X4RrlWeLbs2F1bkXobcUfuLS6Sv69wSxy555leFOBbHlRMH4zaJw5ad59rVufhVSbpqk9tevzVc8NT5lq8zJVxP5T2uY5f5ZW0RX0/7kzwNxPfrznNsqJ3qntN9eUHQHuZ1bKb3Y/Zy6St8HKYqL+of2uc6TSP+rbGrjFGP+1erLg77j++vjOfjAx8HCel6pizfcbrx+e4ju4OsrT293FH9RWNsznI8jmu8zrX3+/wbbjZX4fJMgHDNR+R4sUU8sAQDMAADMAADMAADMAADMAADMAADMAADMAADMDDZDCBcT3PhWoDJ4nDjjo0mrnx7+YjFsAQYWQVLcFm//Y2sW+JYhEqFNgc3FuzKBE5Zfj/49oPhvEfOaxPQZfW58t3HLW23PM7tadtPwrXKrfI8/u7j5uZY1uouZqluJbTJKrMbEUvx3b/pvvDdh79TxKU4cyJb3CaebtWxTLj2csTtIgFOrptf//R1c83sltxl7eoMcPwixP2gqj38XtqfmorO/nyODbnmf+xPjwZZekucjl3wi1O1rbgVb720WcxeLn3FKRfestrP5UH5+eljPwmLNt0fDg0eapQHeRh46r0n7Tkvj44/f+LnQS7Hm7hTl2W015v2o+627EpDWwOob2vM9LjU3zV+amxNPSN0m0Yv4U+cOBFmzJyNcH0WvMN74YNn+AcDBmAABmAABmAABmAABmAABmAABmAABmAABmBgKjKAcM2kd9dCzlQEnTwzQMMADEwnBvbs2Ru+/i/nhvN+9NNw6PBhxnHe5TAAAzAAAzAAAzAAAzAAAzAAAzAAAzAAAzAAAzAAA1OeAYRrIJ7yEE8nMYqyIK7CAAzUMdBqtcIDDz4U5Cr8zrvuDfpd9wz34QoGYAAGYAAGYAAGYAAGYAAGYAAGYAAGYAAGYAAGYKDfGUC4RrhG8IABGIABGJgiDAwPD4cnnnw6/Le/+Z/hO9/7YZDldb9/aJA/PoZhAAZgAAZgAAZgAAZgAAZgAAZgAAZgAAZgAAZgAAaaMIBwPUXEiiaNSRg6PQzAAAxMXwYOHjwYLrxohllaf/8HPw7bt+9AtOYdDgMwAAMwAAMwAAMwAAMwAAMwAAMwAAMwAAMwAAMwMG0YQLgG5mkDM4Ld9BXsaFvaFga+CCdPngzzrr4u3Hff78Lx48cZu3l/wwAMwAAMwAAMwAAMwAAMwAAMwAAMwAAMwAAMwAAMTCsGEK4BeloBjbiFwAkDMAADMAADMAADMAADMAADMAADMAADMAADMAADMAADMAADMAADU48BhGuEa4RrGIABGIABGIABGIABGIABGIABGIABGIABGIABGIABGIABGIABGIABGJhUBhCuAXBSAWS1y9Rb7UKb0WYwAAMwAAMwAAMwAAMwAAMwAAMwAAMwAAMwAAMwAAMwAAMwAAPjzQDCNcI1wjUMwAAMwAAMwAAMwAAMwAAMwAAMwAAMwAAMwAAMwAAMwAAMwAAMwAAMTCoDCNcAOKkAjvdKDOJjdQ8MwAAMwAAMwAAMwAAMwAAMwAAMwAAMwAAMwAAMwAAMwAAMwAAMTD0GEK4RrhGuYQAGYAAGYAAGYAAGYAAGYAAGYAAGYAAGYAAGYAAGYAAGYAAGYAAGYGBSGUC4BsBJBZDVLlNvtQttRpvBAAzAAAzAAAzAAAzAAAzAAAzAAAzAAAzAAAzAAAzAAAzAAAyMNwMI1wjXCNcwAAMwAAMwAAMwAAMwAAMwAAMwAAMwAAMwAAMwAAMwAAMwAAMwAAMwMKkMIFwD4KQCON4rMYiP1T0wAAMwAAMwAAMwAAMwAAMwAAMwAAMwAAMwAAMwAAMwAAMwAAMwMPUYQLhGuEa4hgEYgAEYgAEYgAEYgAEYgAEYgAEYgAEYgAEYgAEYgAEYgAEYgAEYgIFJZQDhGgAnFUBWu0y91S60GW0GAzAAAzAAAzAAAzAAAzAAAzAAAzAAAzAAAzAAAzAAAzAAAzAw3gwgXCNcI1z3wMCxk8fCRU9fGP7xwX8I5634Qdh1ZFfP9Xi6dTq0vmj1/Px4DwrTLb57N95r7XTu0m+Gtz5/i3rugffpxgTl4WMKBmAABmAABmAABmAABmAABmAABmAABmAABmAABmAABvqPAYTrPhZxjpw4En751AUmukl88w4078Ur7ZqOfo3jme1ccdv0KlxL7L7plRvDjGcuCYrvbGvD1VtXG8cS/+v+eq1j1WkT4Tpuz6ne18SV6kt1qjpWHZSVr4w5hV+zbU2Yt2Ze+PaybxXt082Y4+0bt50WDmgBAYsIzux4VdbOXKcdYAAGYAAGYAAGYAAGYAAGYAAGYAAGYAAGYAAGYAAG+okBhGuE67NOMB2PDjgeFte+AEGLExCuq8XrWPzstv0QrrsTrue/fH34p8X/WIjV8aIChGs+YLrtf4SHGRiAARiAARiAARiAARiAARiAARiAARiAARiAARiAgaYMIFwjXCNcTxIDZ7twPXhq0Fysy0JYf1t2bQnfX/E9E0z//Ymfh237Pyzu7zm6J8iletOBLQ6HcN2dcO1cumD9rWXnFkI2wjUfF3Hf4hweYAAGYAAGYAAGYAAGYAAGYAAGYAAGYAAGYAAGYAAGxpMBhOtJEi2bNGKZe18XlroRkZqkR5gzO7h4O56tFtcpb7GL6/GsE4Tr7oTrezbcHRauuz1s2rEp+OICdz3ezZiDq/AzO56k/Ynf1D8MwAAMwAAMwAAMwAAMwAAMwAAMwAAMwAAMwAAMwMBUYwDhGuG6JyvWqQZ6P+YX4br9hYFw3V4fvTIb12Ove1zHacfxIVyPTxvF9cs5dQoDMAADMAADMAADMAADMAADMAADMAADMAADMAADMAADIwwgXE9z4dqtTS96+sKgfZmPDx0Pj7zzSPjXR39UuP89d+k3w1Vr5oVPD35aKmIPHB8I9228N5z3yHltz13x/BXhvb3vlT7nVpc/fvRfw75j+8LWfX8OM565JPzzQ183l9Dfffg74ZZXfxMODR4qjcM7q+f9p4/9pHhe8Zz/5C/CCx8+38iVtNJROX4YlUP7+cpF9bw188L67W+UxhNbwLsbZR2b7r/sQnX8bNV5lUjY+qIVNu7YGGY8OyOo/RSPyqH2Ufma1GevbKx8d6Wl9c+Lvx7WbFtT2W7v730/fGf5ty1/amfl29szPcYCabcW12JQdXHOknMsrW8v+1bBlZdT9fTW529l04/bVuE9b95mVW3hYf3YarXCmjUvhb/96t+F//V3/2/YuOnNIj4PM5HHuB4RrvnYmUjWiBu+YAAGYAAGYAAGYAAGYAAGYAAGYAAGYAAGYAAGYAAGxpMBhOuzRLiWELjj8I7wq2d+ZcJeTjB1kSsFTKKwi6O55ySYLtp0f1aUdOFa4u6zf34mSFDMxfGjR35YKZwr7z9b+W/ZZz2+2atnhYODB0tFwq0DW02w9vC5Y1NxM372TAvXQ6dPhptfvblYQBDnxc9/sOL7YcuuzaV1oTZ2QbdbNj4+8HGxF/X8l6/PtrsztHTLUmuzbyw5J2zYvqEyP7Hg2o1wveqDVYVg7eX3oxZsLHjtFstD07Ydq3C9Z8/e8PV/OTd86ctfsT+d65rXyUQf43r0Pl0mzDfJSxxfNwJ+3PcVh9LSwgG1Q1VbNMkTYfgQggEYgAEYgAEYgAEYgAEYgAEYgAEYgAEYgAEYgAEYgIHpxwDC9VkiXMvi+Zo1V5vYeemzM8OGHRuCxCRZWS9+e3H41rJzg4tccUdfvfW5wrpZAu2KPz5sArielbXthU//0kRBWT6v+uDpDnHOxSuJ2wqjdJZvWWZxSEi+bu21hQB78aqLggS2OH2dy9J65rMzLB3Fo/xv2bXF8r/us9fDz1f+zO5JrFR8Q6eHKuNQPm54eX54d8+7FodEceVTor7yV2aVK2thWZ6r7Pq77fXbLN2mwvWBwQPFs3peQrvy/O9P/Dxs2/9h2z3dV/i0LvR7yeYlRZ3JclzCrcKn9ak2V9lyceiaC9fdsqF6kGCtvMvC+/PDn2fTULv5QokmQrTKoLpUvE3Cqwybd24uFkOUsSXLcMVZJZaWCbu9WFx/uO2j8NWv/X0hXOtc18raYbyvx/XofbqsfE3SjuNDuJ5+HwFNGCAM7Q4DMAADMAADMAADMAADMAADMAADMAADMAADMAADMHAmGEC47mPhejwAcHFSgu85S/7FROOcu+b9x/d3iJx7ju4JP3nsxyb6yXI1Z80s61+5GXcBNg3jwrULh3JvHZdLeblnw932vPIoN9TxfZ1LIHfx8dq11wSlGYdRmsqf0iiz7I1dVktwztWB4txxaHvYe6yZdazXbVPhOs6zzl0UbSrS6pndR3cHCc0qa85KXeWSq3DVpcIsXLewra7iPHj+e2Hj/2/v3oPkqu48wUdHd0x0TP8xPbsd2xMzEz2xG7HrIRw27na3PdMdnvW4d9obs71rHhaIt8DYzdvIsoTBGLDNyyADNrYB8dQTJGQBElgCCfESSAhUBoEsCRCSrLdKElJJoih3d5yN3/Xc9K2sm1lZqqzKrKpPRWTk695zzz3nk5kV8T3n3OXvLs/6pFafxXFiYEA+w37G69Nr1iOvUzEgbaRNYoDCd56+OjvPCKXLbBXbol5wndehGfetnnHdjHMollHsl4EE18UyPPYPDQMMMMAAAwwwwAADDDDAAAMMMMAAAwwwwAADDPRnQHA9RoLrCDG/veSqPqFvPSD5tYz7C/xWvL8iC8UjXI5As1hmMbiutax0zNiNmbtRx5iFXJwxHUFsHoxHCBphaLH8/HFeh1phbb5Ecbyfz0LN9z3W+zz4Hc7gOmbA56F0rTB476E9lWXVYzZ39WCC/Hzz+h+LjSgzyo59Izwu9ll1+XGN6xg4kL9e674YkDYSXMeS5Wc9cmbdOhSD/v4c16rXQF9v9TWuB1rf/rYv9ovg2j8V/XnxPiMMMMAAAwwwwAADDDDAAAMMMMAAAwwwwAADx2pAcD1GgusIOyP0bBRKBMbXPH1NFgpe+vglaf/h/TX3LQZbD6y+v9d2xeA6lrQuO36Envmy2TGbeNfBXZXt4nE+w3jyk99MXR92Vd4rltXfdsUZ1xGEV8/aLpbV6OM8+B3O4Prm5TdnfdJfGNzIdnn9B2ojb5+YzR3BdYTHESLnr8d9I8F2cft4XHTUSHCdz/qOOsx/c36v4+dlFx0PV3CdH3u03Bf7RXDtn43R4tp5sMwAAwwwwAADDDDAAAMMMMAAAwwwwAADDLSfAcH1GAmu+ws6qz+cEVRHYB2h4EBuEYYWy8qD6/5Cw7teuas0kI1rNJ8996zsvXqhWQTaEWxHXavD76hP8TrZsU1cG3rmmplpw+4Nxxxi58HvcAXXxRC2v2PO7pidtUXZLPi8f/L6D9RGvn9xKfA4Xv563K/cvDJbtr3eUuLF7eNxMSBtJLiOsDr6MpbAjxn31eXlz/Pz7M9gvr373j9UxX6p9xnUbr3bTXtoDwYYYIABBhhggAEGGGCAAQYYYIABBhhggAEGBmZAcD1Gguv+gs7qD04xrBqO4LpWuFhc4ju2qa5n8XmEalHXWucaIfglj12cbVN9ThGOx/WQ93Xtq3uM4vHyOtc6XnHbssd5fRsJaWP/A4cPpNg26t7fPvmAgdi21tLog61/cbDApCcnZYMD8vO848Xbs3rGIIJYrjt/vd590Vx/5xfl5PXvL5BudLt6dRvL7xX7RXA9sB/YsezGubPCAAMMMMAAAwwwwAADDDDAAAMMMMAAAwwwMFADgmvBdWmoWAyrYhnveN7ILcLVIsI8QD3WcLGZwXXUq7unO63asird+vwt6avzz69cLzoPsuO1TZ2bep1D8XyKj/NAdKwG19EWZddBLy7bHkuWF9us3uOiOcF1+/yYFftFcN0+/VLvs+Q9/cQAAwwwwAADDDDAAAMMMMAAAwwwwAADDDAwEg0IrgXXpcFicanwCK7jOtTHAjwPrk+dfUpaveXVmmU0c6nwCxdckPYe2lPzWMXziGtdv7z55XTRggsrM7GnPn9rQ/sOd3B9LEuF11tGe7D1j3aMa1vnS7nHNa/jtaUbl6ZYovyUWeOyJcOL7V3vcTEgbSS4tlT48PzoFvtFcD08bV7vc+I9fcAAAwwwwAADDDDAAAMMMMAAAwwwwAADDDAwWg0IrgXXpSFtMSQdyHLP1R+UPLiOGc2L1i0qPVaE4hGOxzbV16cuzt6Na1jH8tTVx4jnjW5Xtm+81tnVmS574tKGluHOyxhs8DvQpcLjuDGDOdqpv+tSN7LdYOsf9QknNy2/MavTxY9dlA0YKD6Pds3bq7/7YkDaSHC9/N3lWUAe7REhdln5Rcf9zfov2/9YXuvp6UlLlz6b/s/P/136v/7u/0mrXl1dWrdjKbsV+xT7RXDtn6FWGHRM7hhggAEGGGCAAQYYYIABBhhggAEGGGCAgbFhQHAtuK4ZquXLQJ8444Q0/81Ha25X78uiGFxHoBlBYvX2W/dvTRPmTcjCz+rZ3bH9d5del713+pzT0toda/vsH+WteH9FitnFEWLG9ZWrj9HI84EGyfmM39PmjE8d2zoGfMzvL/teVt/qsL5eXRev/0VlefMZr08vPWbMNo9Z59EW9WafNyO4jrrmAXK0f5jJ+7JW/WqdXzEgbSS4Ls72/s7TV5euChDX1472jbYYruB6x46d6aQvj08fO+747BaP47Va593urxf7pVXBdccv30gnnjw+ffJTn0m33f7j1NV1eMS2Z7v3t/qNjX/+9LN+ZoABBhhggAEGGGCAAQYYYIABBhhggIF2NCC4FlzXDIB2fLAjuw50hH7nzD07dWxbU3Pb3Yd2pwdXP5Divgi9GFxHcBjXly6+H8H0PSvvzoLFCMgj+Cy+H4/zpaejHtcv+36K5b2L28Ss3okLL8/KqLU89ds7305vbH+jNDiPsornWm9md/G4xbB87i8f6VWn4na1HufB8UAC1WIQe968c/tcjzva895V0yrhdr58d1kd8uMf6zW68zKj/WO2dfTP6Q+flh273iCDfL/q+2JA2khwHTP1I7DOQ+kyW8W2GEg7V9dtIM83bHwnff4LX6wE1/E4XhtIGe20bbFfWhFcHz58OE2eclWlPT/+iU+nxUueGbHt2U59qy7+MWWAAQYYYIABBhhggAEGGGCAAQYYYIABBhhoJwOCa8F13QBo0bqF6eSZJ2Xh4LhZ47KlqmPWc4RZmzo3ZTOxJy6cmIWVZQFoHlxHKH3SjBNTzE5+uGNO2rJ/S1q/e326Ydn1lZD1G4smpgOHD/Spz6Gjh9KUpyZndYhyrnhqSjbDOeqw4v2Xel2fOsorux53Xo9z501Id6+8O7265dXsHKIeEZbH6xGA1grPyz60vQLbOaelx996LCsz6hW3snMplpPPVI7jXvDzf8jOJd837vd27e3TFrH/rDWzKm0W9Y4l2GP76vaMmcZxfsVjFh83K7iOMvOy4lziVj1zvnjc/HEs+14835i1nl8vO4LwjXs2VN6PgQXdPd19zmXNr9ekCMnjmLVsxfW24/3hCq5H+ozrWAFh4dtPVG5zOmZX2jiW0y++98zGZ1J8PvM+HYr76uA6ZrLfcuttQ3rMoTgPZfrnjwEGGGCAAQYYYIABBhhggAEGGGCAAQYYYICB+gYE14LrfgOgCKciFMxDyVr3EaLGjODihy4PjCM0/OELU1OE32X7l80eLpYTAWy+/HXZ/vFahKW1rqmc16PWvvF6hNY/e+WnfWZ0F+tR/TgC8Dw4rS47wtzq7YvPY+Z4zCCv3i9/Xmt2a+w39YWplfA63754398M+ahHHjaXDTgo1rORxzGYIW+HRsP/RvokP6d6dYzgvp6rh157cFiD65F+jetm9UsjbhrdJq4T/vf/38mVWdeC6/o/7I22q+20IwMMMMAAAwwwwAADDDDAAAMMMMAAAwwwwEA7GRBcC67rhqs51n1d+9L9r96Xvjb/q5UZ2BFQnvnwGenqJVdny3nHDNp8+/w+D8Hy2a5v7XwrxVLc+SzuMx85I932wg9TlJ/vU+s+ZnbOe2NerzpEOZc+fkl6esOS0hm5eVkR9q7eujq7/vU//PxrvYLOWN46zqHeUuJ5OWX31eeUh639BddRVpzTzDUzsyXZoz3zfeO+VnAd+8WS4LE09uSnJmcziWP72D+uLx3LYzfSns0MrqPvo1+jHjFrOq4/XdZWxddyG8VzrvW4XnAdZWZ98NTkSr9GiJ67ypd0zw0W6+Bx3x/kZvZLs9s3AuxYKlxw3bffmt3WytPGDDDAAAMMMMAAAwwwwAADDDDAAAMMMMAAA8NtQHA9yoPr4QZVfbw8BBMaju4vt10Hd6VYmjyC5+8uva7mtcSrfXg+ul00u39nzJyTzbp+6heL+x0Y0exjK49VBhhggAEGGGCAAQYYYIABBhhggAEGGGCAAQaG1oDgWnA9pAGQ4HpoP8Dt8gW5dOPSFNeSjls8bpd6qcfo8ffrbdvSCSeekv7735+YNr3/PmN+uxhggAEGGGCAAQYYYIABBhhggAEGGGCAAQYYGGUGBNejrEPbLagTXI+e4LCWrVjufNKTk7LZ1hc/dlHN64zX2t/ro9/IYPt4x46d6YILL82WCZ/36M9TXEd8sGXanzsGGGCAAQYYYIABBhhggAEGGGCAAQYYYIABBtrLgOBacD2kAZDgur0+8M36Aj5w+EDadmBb2tS5Kd347A3Z9bXjGtuz1swaUk/Nqr9yRo7LxUueSX/zub9Nn/zUZ9LsOY+k7u5uxvxuMcAAAwwwwAADDDDAAAMMMMAAAwwwwAADDDAwCg0Irkdhp7ZTKCe4HjkB4UDcTFs1LZthHde0zm8TF15utrXvk6b/o7B69evpoksuT2++udZMa76a7msg33u2HZ2/Z/pVvzLAAAMMMMAAAwwwwAADDDDAAAMMMNA+BgTXgoAhDQIE1+3zYW/mF28xuD59zmnp9hdvSweOHBhSS82sv7JGp0v9ql8ZYIABBhhggAEGGGCAAQYYYIABBhhggAEGGBi5BgTXgmthIwMMMMAAAwwwwAADDDDAAAMMMMAAAwwwwAADDDDAAAMMMNBSA4JrAFsK0KiXkTvqRd/pOwYYYIABBhhggAEGGGCAAQYYYIABBhhggAEGGGCAgWYZEFwLrgXXDDDAAAMMMMAAAwwwwAADDDDAAAMMMMAAAwwwwAADDDDAQEsNCK4BbCnAZo3AUI7RPAwwwAADDDDAAAMMMMAAAwwwwAADDDDAAAMMMMAAAwyMXAOCa8G14JoBBhhggAEGGGCAAQYYYIABBhhggAEGGGCAAQYYYIABBhhoqQHBNYAtBWjUy8gd9aLv9B0DDDDAAAMMMMAAAwwwwAADDDDAAAMMMMAAAwwwwECzDAiuBdeCawYYYIABBhhggAEGGGCAAQYYYIABBhhggAEGGGCAAQYYYKClBgTXALYUYLNGYCjHaB4GGGCAAQYYYIABBhhggAEGGGCAAQYYYIABBhhggAEGRq4BwbXgWnDNAAMMMMAAAwwwwAADDDDAAAMMMMAAAwwwwAADDDDAAAMMtNSA4BrAlgI06mXkjnrRd/qOAQYYYIABBhhggAEGGGCAAQYYYIABBhhggAEGGGCgWQYE12MsuD7afbThoHrbgW1pwtxz0gnTv5SmrZrW8H7NwtlO5Rw4fCB9/YnLsra47plrW9YWr219LY2ffWpWj+iX4m3x+sVNq1ex71t5vu1kQF388DLAAAMMMMAAAwwwwAADDDDAAAMMMMAAAwwwwAADQ2dAcN3GwXUxLC0GxxEkRmA5kEBx3a516dpnrknfW/rdhsPNYnhZPP5Y/EAW+2Ig7d7stmq34DrC8rAYAxzCS5xvXscI2ONxs9tgqMrr+ag7rX/lofTItceley76g3T3Bb+XHpj4r9Oy+89MB/a8NyznEXV49/VH04Kb/1O677I/yupwz4W/n2Zc8e/SC7MvSgc7twxLPYaqjZU7dD/m2lbbMsAAAwwwwAADDDDAAAMMMMAAAwwwwAADDIx0A4LrMRBcH2voKrj+3RfcsbZhs78gjnYfSds/2J6FxNE/y95Zlk6dfUoWHrdixvVoCa6PHNqbfvGT/zcLiiOwrr49MPGPs0C52f1ZLC/qsPD2v+1z7GJdIsxe/8r09JueHgF2G393F/vV4999j8Bhf8AAACAASURBVGoLbcEAAwwwwAADDDDAAAMMMMAAAwwwwAADDDBQz4Dguo3Dj2JYWpzxPNAZ18VyBjJbWHD9uy+PY23Deh++ZryXz26OWc+C69/114DatqcnvfzopEpgvOiO/5Z2blqVPtizKb2x7I4UoXWEx9Mn/2navfn1IQmMP+o+mp59cEKlDo/e8BdpU8dj2Qzr/bs2ppULvlWZgR312bbh+SGpx4DarY2/O53HMX4W9KnPFQMMMMAAAwwwwAADDDDAAAMMMMAAAwwwwEALDQiuW9j4/YUrxbBUcN3aIKbYFwMJ//vr48G+L7gevIvdm19LD036kyw0fnzqf0kx87nYL5t++US695I/zN5fet8ZKULm4vvNeFysw4If/Oc+dYhj/OrlB9O0i/9FVo9n7h1v1nUbf3c3w4QyBv/Z1obakAEGGGCAAQYYYIABBhhggAEGGGCAAQYYGFkGBNdtHH4Uw1LBdWs/WMW+EFz/ri9Gw1Lhr8yfkoXBEQrHLOfqH7EIqhffdWK2zYwr/m3at+NXfbap3megz995bW5WfszsfmPpbaXlH9q/PT187X/MtotrYB851Fm63UCPbfvfedYW2oIBBhhggAEGGGCAAQYYYIABBhhggAEGGGCAgdYZEFyPwuC6GLLGEtKN3IrBeP6BrF4qvLunOz3x1uPpK4+el06ccUJ2i8fxWryX71d9X6zPA6vvz7aLsqc+f2s6fc5pWf2ivAnzJqT7X70vHTp6qLSsnt/0pLd2vpW+u/S6NH72qb32u3PFj9O+rn2l+xXrE9vcu2paOnfehKz+0TZx7LPnnpWuW3pdemXzy6XnUjyHCK6jLi9teild/NhFlXKijOmvT69Z/2I91u1al53H6Q//9vyjHmc+ckbWJtE2xW3rPR7MjOto56hvtHven3E+cV5b929NE+aek7VxvaC+mcH13r2d6YpvXZ2O//PPphtu/EE6ePBgw+1Qr43qvXeka1967Ja/ycLgCIUjHI7t31n9SFp0x9+leD+ev/3itEqwvGHVrKbXqxhcx+OyOteqa9m2Xmvdj6q21/YMMMAAAwwwwAADDDDAAAMMMMAAAwwwwAADDBybAcG14DoLJ/sLrn/2yk/TDcuur4S0xTA8Qs8IgyPMLfsgFkPfOM7qravTmQ+fkR23WE48jrC0LLg92n0kTX1haunx8zKizCi7rA7x2vrd67PAOt++7D4C8QiDq8sonsO1z1yTBexx3mVlXL/s+ynqW11GPI82mvH69HTyzJNK943yog5Pb1hSun91mccaXHd2daZJT04qrUPU7aHXHhz24HrGzDnpY8cdX7nF8+rzbfbzuI71jG/9+yyUfuonf58tAx4zrOPxfZf+y7R13TNZHbZvfDE9cPm/yrZbMW9i0+sVx4nj1ZtxffiD3enR6/882yauw/1hjQEezW4j5R3bj6t2024MMMAAAwwwwAADDDDAAAMMMMAAAwwwwAADDAzMgOB6FAbXEY7uPrQ7C4AjBN64Z0M2MzhC0asWX1l5Pd7LbxHMVn944r181u35j34lnTJrXLrluR9kAfCW/VvSnI7ZlZnPMdv43b3v9ikjyiyGvt95+up00YIL07hZ41LMko4wOY6zdsfa9P2l38uC5XherMvR7qNZaB71j7D4G4smphXvv5Ttt6lzU5rdMTud9ciZWQh73rxzU7xW3D8ex+ziKU9NzraJYPbm5Tdlx4xjxbnEzOEIck+bM77f4PqcuWdn28W5dGzryOqxaN2iFK9HHaOdVm5e2acOUY/l7zxbCa3jWA93zMmOH3X+6cs/ydolyoiZ6Gt+vaa0jOK5HUtwXd2eVzw1pdd5xGz0k2acWBkkMFwzrm+59bZKaB0BdjwvnutQPN7xzor0wMQ/7hVIFwPimGkdxy0G3EvuPrnp15eO62rPv/Evs3r0d43rey78/fSrFb9duWAo2kSZA/sR1V7aiwEGGGCAAQYYYIABBhhggAEGGGCAAQYYYICB5hgQXLdxcN0s5MXguF4IWX28YnBda1b1/DcfrQSc89+cXxo0Fo8fgWgsTf3WjrWl20b4XR2i52FvrTpEvd/b+15lNvWdK+7sU/bbO99OZzx8ehYs/+ilH9WcHb5l3+a08+DOPvsXzyGC5bJZ1RGmR2gd79/x4u19yojwPJ/lHMH0q1te7bPNonULK8F2BOMRMlf3S/H5sQTXEarn9Yxl16tnh0eIHgMA4jziNhAzxboN9HErZlwXl+h+9YlrsrY+2Lklzbzyz7IQuey1WFo8X0J8oOdYb/vt77yUpk/+0+y4j97wF2nL20+nqMv+XRvTygXfSvdd9kcpQutnH5yQPvqwfEZ/vfK915wfTe2oHRlggAEGGGCAAQYYYIABBhhggAEGGGCAAQYYGBoDgmvBdc1gtBhcX7jggrT30J4+28Zs5ZhtHQHnzctv7vN+fHCLoW+EzxF2N/qBjuA2Atwo/+tPXNYn1C6WE2FxbBezw3cd3NXrGMcS8BbLLp5DzO4um12+//D+dOnjl2R1mPzkN1PXh10163DT8htLw/M435gVH+dRbxZ7XrdjOa+8nerNDI/lzKMOcRuu4LoV17guC653blqVHvzG/5QFyE9POyXrw+Is7KEKrqNPjxzqTC8+fEkWUsey4cXb3O99Ir37+qOp56Pa15PPXbgfmh9M7apdGWCAAQYYYIABBhhggAEGGGCAAQYYYIABBhgYOgOCa8F1r3C1+GErBte1wstioNvINjHbeuv+rTWPWTx+PC4G43e9clfd/WK57whaYwnuWMK7WFZxxnXZLOPitmWPi+dZL0CPNog6lG0TS5rHeyfPOCktf3d5r/oVj9nodrHPQIPrCNMjVI961BqMEOWu3vJqOnX2Kdl2tfq1WOeR+rgsuN6zpSM99M3/pVdwHTOsI7COIHmogusIpNe9dF+aPuXf9Aqs8/D6nov+IC28/W/T3l+/WdPOSO0H9R66H3ltq20ZYIABBhhggAEGGGCAAQYYYIABBhhggAEGRooBwbXgumYIVgyup6367bV+q2EXA91aAWdxm7KZyNVlFp8XA9QIWxu5jZ99ap/rVBevcR1lxHWcZ66ZmTbs3tBnqezi8fPHxXOodZ6xbb3gOoL3OHZZ/fLjxH2E2hFux7YRYhffq3480OA6Zs1HYB1lx8zuWkuRF/u+3vlW12ekPS8LrotLha+YNzFr/6GecR1Lf8cS4LEUeATUz804Px3s/O0Aj3jvvY7H0uxv/29ZoP3QpD9J2ze+UNfFSOsH9fVPEwMMMMAAAwwwwAADDDDAAAMMMMAAAwwwwAADDAiuBdc1A7BieNms4HqgIWg+izqC1kZvtYLhmL19yWMXl5YTy3Lfu2pa2te1r7Q9mhFc56H2hLnnpGjbWl/AxTC6Vrvn+xa3jbbKX691X+zTen3R6Ha1jjNSXi8LrmO57gU3/6csJH7tye9nbVoMs4dixvWmjsfStIv/RXbM7LraPT19+nL/zg1p1rf/12yboajDSOkz9fSPCwMMMMAAAwwwwAADDDDAAAMMMMAAAwwwwAADo9OA4Fpw3Scgyz/sxfCyVoDaSKDbyDb5Mavvi8H1vDfmZYFv1KvebfsH22vOou7u6U6rtqxKtz5/S/rq/PNTXHO7GIjHa5s6N/Vpk0bPIQ+ny5YKz98TXLfPl+mOd1akByb+cRYG57Orf9PTk565d3wWJL//xsLMwgd7NqUZ3/r32XZL7j45xTbVVo/5+f84XiwJPuOKf5v27fhVzbKjjrHdfZf+y7R13TM1tzvmuoyB70Nt0z6fP32hLxhggAEGGGCAAQYYYIABBhhggAEGGGCAAQaKBgTXYyCoaTR0LcKIx+0QXBeXCp//5vymB3VHu4+klze/nC5acGElwJ76/K19jtNoG+bhdFlwfSxLhfd3zgOdcW2p8N4/AMVA+qmf/H36qPto1vfvrH4kPXr9n6eD+36dPd++8cX0wOX/qnfA3aTvjuL1s+OYsSx59Wcxf75h1aysDhFex2zx/HX3vftVe2gPBhhggAEGGGCAAQYYYIABBhhggAEGGGCAAQZGngHBdZPCp3bG32joWn0O7RBcx/LesYx3zIq+afmNqec3TZzpWuj7zq7OdNkTl2bHKQudG23DesF1XK86ziOuXx3Xsa5u7/x5o9vF9gMNrrs+7EpxnfGoR1zrOoLs/LjF++KAgTin4ntD9Xjv3s50xbeuTsf/+WfTDTf+IB08eHDIj1sMjR++9j+mQ/u3lx7z7RenVQLjCI+b2QaN1iGOWayH4Hrk/eA2042y9D8DDDDAAAMMMMAAAwwwwAADDDDAAAMMMMDAaDMguC6El6Otc/PzOXjkYJq48PIsrIzQMsLL/L169+0QXB/tPpq+8/TVWd3PfuSstHHPhobqXu+8ar1XL3RuRnBdDJlrhfBxvlctvjI737MeOTO9u/fduuf79s630xkPn55tH4F3rXMrvn7nijuz7U+ZNS6t3LyydJ8Zr0/PtomAe7iC6xkz56SPHXd85RbPi/UeqsevzJ+ShdJxjem41nT1cWIW9uK7Tsy26W8p72zfnp7U8fSt6b7L/ihNn/Jv0ntrft6nzOIxPjx6KC26479l5T806U/S7s2vlW/f05OWT/9Kpa75MubFsoqPu7oOp9tu/3H65Kc+k048eXzq+OUb5eWOge/AYrt47B85BhhggAEGGGCAAQYYYIABBhhggAEGGGCAAQba04DgeoyENnkoO2HehLR1/9aGAqx2CK7ji2P5O8+mk2eelAWpEerG7OiyL5SYjf3G9jfS7DV9Z8RGwBvv1ZqxveODHdk1ryOoLQv3mxFcHzp6KE16clJ2HqfPOS29uuXVPuexaN3CyrlGYB9Bdtm55q/tOrgrnf/oV7Iyv73kqprX9s63j/sIqyO0jnP97tLr+uwT1/g+b9652fvDGVzfcuttldA6Aux4Xqz3UD2OoDgC41h++/Gp/yUdObS313Hf61iQ7r3kD7P3l953RmU58Vr1KV43O8qsN5M7L6NjyQ+y8mP7ZQ+clT768EivOsR22ze+UKnnrCv/Q/pg7/t9tsnLi/tVr65OH//Epytt+pXzL0z79x+ou09xf4/b80dbv+gXBhhggAEGGGCAAQYYYIABBhhggAEGGGCAgdFqQHA9RoLrfPnpPJjt2NaRXcM6wum4RTBbjbxdguu4DvX1y75fCVInzD0nxflEwBp1XLtjbbp75d3p3HkTsm3KZggvXr84ey+2iW0jNI59YynyBWsXVPY9ccYJ2fPqtmhGcB1lFkP40+aMTw93zMnqEOfy05d/ksb9j0A5gu01v17Tp0+q6xXP8xnUUfepL0yttEuc396u3iFsbB9h+A3Lrs/aI/a54qkpKfewaN2irC3i9ZNmnFizPcvqMdjXWjXj+jc9PenlRydVguOY/bxz06oU179+Y9kd6YGJf5y9N33yn6bdm1/vt09iCe8IoPNbhOK73l9dd7841pxr/o/KPo/f+rls9vfBzi1p/66NafXCa9ODk/7n7P17Lvz99NqT36tbXvRFdXD9+S98MW3Y+E6/+w22H+3vHyYGGGCAAQYYYIABBhhggAEGGGCAAQYYYIABBhg4FgOC6zESXMcs5Xy58Aivq2/TVk3rE2i1S3AdsCO8vu2FH6YIVKvrXv38+8v6hnp5cF29bfF5lP2zV37aZwZyHL9ZwXXM+I5luPMZ5MXj54/Hzz41Pb1hSZ/+qPUBj/D9az//amm7lIX4UU54yGd/58fN76MdfvTSHZVrftcqo1Z9jvX1VlzjOq/r0a79acndX64Ex3nonN9HeP3u64821CfHMuM66rFnS0ev8Do/dvH+nov+IL30yGWlM7Lzc8nv4xrhN908NVsqPGawC679k5DbcM8CAwwwwAADDDDAAAMMMMAAAwwwwAADDDDAQDsaEFyPkeA68O3r2pfuXPHjFMuFVwfA7R5c5x+edbvWpeuXXZ/OnntW5RwiBI6lrSPYjiXBu3u6+wSMEXyv3ro63fHi7ekffv61yszmCGtPf/i0dPWSq+suJd6s4Lp4HrFMdxw7D4zPfOSMNPX5W7OZ4Pl2jd5H397y3A9ShN55eXFfL3SOpcunvz694iFMXPzYRemlTS9l4X1+re16ZTRav5GwXc9H3Wn9Kw+lR649LkVAHIHxAxP/dVp2/5npwJ73+piqeU4DvMZ1sZwPjxxM6166N82/8S+za2RHHWKG9Ywr/l169sFz0t5fD/w61YcPH06Tp1wluB5D3/VFUx7755MBBhhggAEGGGCAAQYYYIABBhhggAEGGGBgpBgQXAszGg/ktJW2YmDEGdixY2c66cvj04Tzvpb27d8/4uo/Un5M1dM/fgwwwAADDDDAAAMMMMAAAwwwwAADDDDAAAMMDM6A4FoQJ8higIFRaqCnpyc9NH1miqXCf3bXtBTP/WgO7kdT+2k/BhhggAEGGGCAAQYYYIABBhhggAEGGGCAAQaGxoDgepQGVj4wQ/OB0a7adaQY+Oijj9Jjjy9Mf/XZz6Uzzjo3xczrkVJ39fQ5Y4ABBhhggAEGGGCAAQYYYIABBhhggAEGGGBg7BkQXAuuhVkMMDDKDHR2dqbLJ07OZlqffc75afPmLfp4lPWxf9jG3j9s+lyfM8AAAwwwwAADDDDAAAMMMMAAAwwwwMBoNyC4FmYItBhgYJQZOHLkSLruezeke+99IB06dEj/jrL+He3/mDg//3wzwAADDDDAAAMMMMAAAwwwwAADDDDAAANj04DgWqAh1GKAAQYYYIABBhhggAEGGGCAAQYYYIABBhhggAEGGGCAAQZaakBwDWBLARoxMzZHzOh3/c4AAwwwwAADDDDAAAMMMMAAAwwwwAADDDDAAAMMMFA0ILgWXAuuGWCAAQYYYIABBhhggAEGGGCAAQYYYIABBhhggAEGGGCAgZYaEFwD2FKAxVEUHhtVwwADDDDAAAMMMMAAAwwwwAADDDDAAAMMMMAAAwwwwMDYNCC4FlwLrhlggAEGGGCAAQYYYIABBhhggAEGGGCAAQYYYIABBhhggIGWGhBcA9hSgEbMjM0RM/pdvzPAAAMMMMAAAwwwwAADDDDAAAMMMMAAAwwwwAADDBQNCK4F14JrBhhggAEGGGCAAQYYYIABBhhggAEGGGCAAQYYYIABBhhgoKUGBNcAthRgcRSFx0bVMMAAAwwwwAADDDDAAAMMMMAAAwwwwAADDDDAAAMMMDA2DQiuBdeCawYYYIABBhhggAEGGGCAAQYYYIABBhhggAEGGGCAAQYYYKClBgTXYwzg0e6jLQVnhMzYHCGj3/U7AwwwwAADDDDAAAMMMMAAAwwwwAADDDDAAAMMMMBAPQOC6zYOrg8cPpC+/sRl6YTpX0rTVk2rBM7XPXNt9lrc1+vc4nvrdq1L1z5zTfre0u82vE9x/1Y9fm3ra2n87FOz8412uGn5jannNz2l55C3y4S556RtB7aVbhPtGOVEu0b7xnktXr84e63efq06/1rH/ejDI2n35tfTinkT05zv/O/pngt/P919we+lmVf+WTrYuaX03GuV5XU/EgwwwAADDDDAAAMMMMAAAwwwwAADDDDAAAMMMMAAA602ILgeA8F1MQAfSNjdapxx/OrgesK8CWnr/q2lwexYCa43/fLxdO8lf5gF1RFWF2+Caz8q7fC5VQcOGWCAAQYYYIABBhhggAEGGGCAAQYYYIABBhhgYKAGBNeC69IQeKCQhmr76uD6xBknpAVrF5TWeawE1++8NrdXWH3fZX+U4mbGtR+AofocKpctBhhggAEGGGCAAQYYYIABBhhggAEGGGCAAQYYGGoDgmvBdWkIPNTwGi2/OriOZb4nPTkpHTp6qE+9x0pwveXtp9OyB85OEWB3HdiRtcPT004RXLfxZ7lR77bzo88AAwwwwAADDDDAAAMMMMAAAwwwwAADDDDAAANj1YDguo3DruIS34O5xnWxnJG8VHgE1qfMGpfdVm5eOWaD67IvK8G1H7EyF17jggEGGGCAAQYYYIABBhhggAEGGGCAAQYYYIABBkaKAcH1KAyui0F1zFBu5FYMxqvx9vymJ63asipNfmpyGj/71Ky8WLI7rjd976ppaV/Xvj4hcl7G4vWLs+3Pf/QradfBXWn9rl+lyU9+M50886Ts9TMfOSPd9sIPa5ZRnHF954o7s9nWcT43Lb8xRb3y48T9cM+43rx5Szrv/AvSJz/1mXTf/Q+l7u7uXvUp1m2oHwuu/egMtTHlM8YAAwwwwAADDDDAAAMMMMAAAwwwwAADDDDAAANDaUBwLbjOAuRawfXR7iNp6gtTUwTVtQLwc+aenTq2rSkNbfPgesLcc9JTv3oynT7ntNJyzpt3btrUualPGcXgOuoY17eOukQQvv2D7b22H87gOkLqG2+6JX3suOOz28c/8em0/Lnne9VnKD+41WULrv1QVJvwnAkGGGCAAQYYYIABBhhggAEGGGCAAQYYYIABBhgYSQYE16MwuI6ZyLsP7U7bDmzLbhv3bEgXP3ZRFhhftfjKyuv5+3Efs7TL4M5aM6sSWp87b0JatG5Rtv/63evTDcuur7wXQfKW/Vv6lJEH1xE2xyzr0+aMTw93zMm2rS7jG4sm9qlHdXAdYXUcK8qLELtY5+EMrru6utLESVMqwXUE2HPnze9Vn2Ldhvqx4NoPz1AbUz5jDDDAAAMMMMAAAwwwwAADDDDAAAMMMMAAAwwwMJQGBNdtHFw3q+OLS4cP5BrXeUgcM63LZkRHQB5LheezsWMp7+o658F1lBHLjMeS48Vtoox7Vt6dheplYXR1cB37xnGivLjm9aGjhyrlNRJcF489mMdmXPtiHowf+/LDAAMMMMAAAwwwwAADDDDAAAMMMMAAAwwwwAADDPQ2ILgWXFeC3+oPx+L1v6iE0jNen1663d5De9KFCy7IguSY1d3Z1dlru2JwXXZd6jjm1v1bs+tlRxgdM8KPdh+tlFEWXK/cvDKdMmtcdovHeb2HM7iOY7rGde8vk7wf3GsXBhhggAEGGGCAAQYYYIABBhhggAEGGGCAAQYYYICBgRoQXAuuK8FvNZ6bl9+cBdJnPHx6envn28e0XTG4jmXGq48RzyOojsA6gutYBnzXwV2V7cqC65hlHbOtY/s7Xry9su1wB9dl59Kq1ywV7su/VfYclz0GGGCAAQYYYIABBhhggAEGGGCAAQYYYIABBhhohgHBteC6EvwWQcUS3tc8fU0WDk+Ye052Xevi+8XHsztmZ9udPOOktPzd5b3Ky4PrWCY8QujifsXHd71yV1ZGdUheFlzHfnF961haPILuWNI8XhNc/16aeeWfpYOdfa81Xmxrj/14MMAAAwwwwAADDDDAAAMMMMAAAwwwwAADDDDAAAMMtJsBwbXgujRMLl4X++tPXJbieS28eTgdM6DjcXG7/L3+gutpq6ZlwXX1drWC6/z628XrYguuBddFex77wWWAAQYYYIABBhhggAEGGGCAAQYYYIABBhhggAEGRo4BwbXgulfQnH942z24jnreueLOLOyOZcNj+XDBteA69+t+5PwI6St9xQADDDDAAAMMMMAAAwwwwAADDDDAAAMMMMAAA2FAcC24Lg2uj2Wp8HGzvpxWvL+iV3n5jOtTZ5+SVm95tdd7xS+hgS4VHvuu3bE2nT7ntHTKrHFp5eaVgusLBNdFUx77kWOAAQYYYIABBhhggAEGGGCAAQYYYIABBhhggAEGRo4BwbXgumaYfPPym0uvO139Aa+3XR5cxzLii9YtKj3W0e6j6arFV2bHimtW7zq4q7JdraXCow4xyzpmW0fZMft6uGdcb968JZ13/gXpk5/6TLrv/odSd3d3pd7VbTTUz5+edkq6W3DdsvYf6v5V/sj5UdVX+ooBBhhggAEGGGCAAQYYYIABBhhggAEGGGCAgWMzILgeA8H1wSMH08SFl2cB7+Qnv5m6PuxqKOBbvP4XKa4hHcHwjNenl+6z99CedOGCC7Jt4j6eFz+MxeD6puU3ppjJXXw/Hm/dvzVNmDchKyMC7Aiy823qBdexzYK1C7I6RuB9+cKvZ2VMmHtO2nZgW6WMvKxm3kdIfeNNt6SPHXd8dvv4Jz6dlj/3/JAes179BxNcd3UdTrfd/uMsgD/x5PGp45dvtOw86p2j947tS167aTcGGGCAAQYYYIABBhhggAEGGGCAAQYYYIABBhgYCQYE12MguA6IldnI8yZkQXEjOLd/sD1FIBzB9Xnzzk2bOjf1CjQjhL531bRKuB2znqvLLQbX42efmlZtWdVrmyjjnpV3Z8eIkDyC6GIZ/QXXeR1j35NmnDhswXVXV1eaOGlKJbiOAHvuvPm96l48j6F+PJjgetWrq1ME73kI/5XzL0z79x9o2bkMdVsp348zAwwwwAADDDDAAAMMMMAAAwwwwAADDDDAAAMMMNB+BgTXYyS4nt0xOwt1I4SOWdcd2zqyWckxMzluBw6XB5Wz1syqBNPnzpuQLfcd26/fvT7dsOz6ynsRcG/Zv6VP2JkH13mwfNqc8enhjjnZttVlfGPRxD716C+4ji+VCMzjvPLbaJ9x/eGRg+m9NT9PG1bOqNwW/OA/Z0uFPzTpT9Iby+6ovB7bfLD3/T79Uvwyrg6uP/+FL6YNG9+pu09xf4/b74tdn+gTBhhggAEGGGCAAQYYYIABBhhggAEGGGCAAQYYGGkGBNdjJLju7OqsLBeeB7zF+2mrppUGlUe7j6SpL0ytBNTFffLH58w9O3VsW1O6fx5cx2zrH74wNY2bNa4SMOf7x33ZjO74MDUSXK/dsTadPue0SrnDEVxH3Vp1jeuDnVvSzCv/LAuq47rW/d3eeW1uad/kX1YHDx5MN908NVsqPGZdC679kOU23LPAAAMMMMAAAwwwwAADDDDAAAMMMMAAAwwwwAADw2VAcD1GgusAta9rKMe70AAAIABJREFUX7pzxY+z60nn167Ow+NawXXsF8t5xxLfk5+anCKAjn1i/7gudSwVHuXWAlsMriOEfmvnW9mM75NnnpSVc+YjZ6TbXvhhzTIaCa7jmthxbez8XIYruK51zkP9erOD67y+hw8fTpOnXCW4HkPfCXnfu/dPBwMMMMAAAwwwwAADDDDAAAMMMMAAAwwwwAADDLTagOBaSFUzdG4GzurguhllKmNovjh37NiZTvry+DThvK+lffv3D6kLfTg0fahdtSsDDDDAAAMMMMAAAwwwwAADDDDAAAMMMMAAAwyMVAOCa8H1kAaUguuR8eXY09OTHpo+M8VS4T+7a1qK5yP1S029R4Y5/aSfGGCAAQYYYIABBhhggAEGGGCAAQYYYIABBhhgoGhAcC24HtKAUnDd/l84H330UXrs8YXprz77uXTGWeemmHld/JLwuP37UB/pIwYYYIABBhhggAEGGGCAAQYYYIABBhhggAEGGBjpBgTXgushDSkF1+39JdnZ2Zkunzg5m2l99jnnp82btwyph5H+han+7e1Z/+gfBhhggAEGGGCAAQYYYIABBhhggAEGGGCAAQZGrgHBteB6SINKwXV7fzkcOXIkXfe9G9K99z6QDh06NKQW/FC0twX9o38YYIABBhhggAEGGGCAAQYYYIABBhhggAEGGGCglQYE14LrIQ0rBde+4Fr5BefY/DHAAAMMMMAAAwwwwAADDDDAAAMMMMAAAwwwwAADI8OA4FpwPaTBtS+CkfFFoJ/0EwMMMMAAAwwwwAADDDDAAAMMMMAAAwwwwAADDDDAQCsNCK4F14JrBhhggAEGGGCAAQYYYIABBhhggAEGGGCAAQYYYIABBhhgoKUGBNcAthRgK0dtOLZRQwwwwAADDDDAAAMMMMAAAwwwwAADDDDAAAMMMMAAAwy0hwHBteBacM0AAwwwwAADDDDAAAMMMMAAAwwwwAADDDDAAAMMMMAAAwy01IDgGsCWAjSCpT1GsOgH/cAAAwwwwAADDDDAAAMMMMAAAwwwwAADDDDAAAMMMNBKA4JrwbXgmgEGGGCAAQYYYIABBhhggAEGGGCAAQYYYIABBhhggAEGGGipAcE1gC0F2MpRG45t1BADDDDAAAMMMMAAAwwwwAADDDDAAAMMMMAAAwwwwAAD7WFAcC24FlwzwAADDDDAAAMMMMAAAwwwwAADDDDAAAMMMMAAAwwwwAADLTUguAawpQCNYGmPESz6QT8wwAADDDDAAAMMMMAAAwwwwAADDDDAAAMMMMAAAwy00oDgWnAtuGaAAQYYYIABBhhggAEGGGCAAQYYYIABBhhggAEGGGCAAQZaakBwDWBLAbZy1IZjGzXEAAMMMMAAAwwwwAADDDDAAAMMMMAAAwwwwAADDDDAQHsYEFy3cXB94PCB9PUnLksnTP9SmrZqWiVgvu6Za7PX4t4HaWAfpGjHaM9o12jfaL/F6xdnr02Ye07admDbiGjTqGfUN84l6h/nUcsLIwMzor3KPxOvbX0tjZ99anaLx9qJKwYYYIABBhhggAEGGGCAAQYYYIABBhhggAEGGGimAcG14HpMBVCCa1+gzfwCHa1llQ3mEFz77IxW786LbQYYYIABBhhggAEGGGCAAQYYYIABBhhgoD0MCK4F14JrM67HlAE/Pv3/+Aiu+28jjrQRAwwwwAADDDDAAAMMMMAAAwwwwAADDDDAAAPNNSC4FlyPqdDSjOvmfoH4Qh6d7Sm4Hp396vOqXxlggAEGGGCAAQYYYIABBhhggAEGGGCAAQba2YDgWnAtuDbjekwZaOcv5Hapm+DaPy7tYlE9WGSAAQYYYIABBhhggAEGGGCAAQYYYIABBsaOAcH1KAyu82vRnjtvQurYtiZ9e8lV6cQZJ6RTZ5+S7n/1vnS0+0h6ZuMz6ey5Z6UTpn8pu4/n9T74uw/tTveumpYmzJuQlRX7jZ99arp6ydXprZ1vle6bz27+/rLvpRc3vZjOf/Qr2fHiPp5HPe548fY0bta4rMyvP3FZ2rJ/S2lZUbdDRw+leW/MS1+b/9V08syTsrLi/tLHL0lPb1iSunu6a+6bn1tepzjWgcMHsu3LQrp8+3r3mzdvSeedf0H65Kc+k+67/6HU3d3/8euVN5D3th3YlibMPSdrg6h/7BvnE+cVfRPnWVZetOFVi6/Mtgkf7+19r3S7nt/0pB+99KNKGy8t+Fi38+109iO/tfPdpddl/Vh2rDBz0YILszKiz7cf2F45VjPKeP6959Mps8Zl5d+z8u4UdS6rx8Y9Gyr1nfzkNyv9HtsOtowwd/uLt2d1iM/Dqi2rSusQx5r/5qOZ8/gsznh9eqW+zeiTZpRRbLuyz0T+vRLnGY+L23s8dv5p0Nf6mgEGGGCAAQYYYIABBhhggAEGGGCAAQYYYGCoDAiuR3FwHaFeHjBGmBm3k2eclG5/8bZ0+pzTsuf562c+fEZ6a8fa0jAqQuEIq/Jtq+8jiItAvDo4zEPiKLt6//PmnZtufPbGSgielznlqclZQF0NPgLtCxdcULMOsX8Esp1dnaXnkJeX12mwwXWE1DfedEv62HHHZ7ePf+LTaflzz9c9dl6HZtwfa3Adx97UuSlF+0ebxaCGGEBQXacV779UNxRetG5hNngg+j4C2er9i8F3rUB3sGXEMWIwRdQhrEedq+sR5xbnGOdaFtQ3o4wwN3Hh5dkxIqiPwL66HsXwvCzsb0afNKOMvN6Ca/905Bbcs8AAAwwwwAADDDDAAAMMMMAAAwwwwAADDDAwXAYE16M4uI6w7rInLk1v73w7mwkawV28Vnx9yYYllRB7dsfsPoHb4vW/qMxujhm+c3/5SDYrOoLTpRuXpssXfj0rL2Y+RxBZhJuHxBEsxuzdCJ/jGPls6fz1CNzi/Xh+xsOnZ/UtlhOzSSPQjnrHNlc8NSV1bOtIUYcIK/NZvfH+DcuuT0e7j/aqR7GsvE6DDa67urrSxElTKsF1BNhz582vedxiHZrxeDDBdRy/GBrPWjOrV713fLAjfXX++Vl7RyBbNhggAuHrl30/26Zs0MPyd56tBNsRLlcPaog6NKOMYmgcdY66F9s3zi3MlPnMt2tGGa9uebXyObrluR/0Ot+i3xgwEN7zYxfvB9snUVYzyohyBNf+CSna9JgHBhhggAEGGGCAAQYYYIABBhhggAEGGGCAgeEwILhu4+D6WAHkS/pGkLto3aJKSBbLcsdr42Z9Oa14f0X2egSK1zx9Tfb6dc9cW9k2jt1ogBkzSKPcix+7qFfImYfEsSR5vgT43kN7KjOnYwZ1PI9jxfv50uX50tf5+UdAHjPF4xgRllbPEC4GjzHzduXmlb3OIy+nmfetnnE92HOJfs+XAo/Z92t+vSZrswj9I/yPti6+Xna84lLg31g0sbIEd/Rlvix88fWhKqM4m7k4cCHOKV9ZoPh6WT2aUUa+FHiE5DHgIz9OrEaQh+fF1/P38/tm9Ekzysjr494/IQwwwAADDDDAAAMMMMAAAwwwwAADDDDAAAMMMDCcBgTXozi4rr4W7fw352eB5FmPnJne3ftuJVjLA+a4/m/Xh12V1xesXZAFbtXlVAONEDzC8AiXl7+7vLJ/Xm5xdnMEo/k1luM+nx1dvD5zceZ3BHF5MB4h5Noay5nndYjA9c4Vd1bqUF3XZj5v5TWum3EexcA/D5jzGfYRtFbPxC47Zj7TOLb/7fXTfxd8l83EHqoy8pnGeWgcnuKcwkPZTOyyegy2jOIM8gjuI8AvhufVM7HL6tCMPmlGGWV185p/ThhggAEGGGCAAQYYYIABBhhggAEGGGCAAQYYYGAoDQiux1BwXbb8b+AqC5gjMM5nYl/6+CVp/+H9NcPg4rLVD6y+v7JdWblxvJjZHYFicYZ3MbiO/XL0uw7uqszerQ7W823ivtHtivt4/JtUDJ5vfPaGyrWvy67DXNZe4SS/znQMLPjhC1OzZbljEMPjbz1W6ceyffPXmlFGMTT+7fXTb6gMuli1ZVVD9WhGGcXrTF+95NvZUv1hPZbsj0A5P+d694Ptkyi7GWXUq6P3/GPCAAMMMMAAAwwwwAADDDDAAAMMMMAAAwwwwAADzTYguBZclwbXEVRHYB2h20BuxdC5GcF1cQnxYtBd/UGImeIRbEddY7ZrBNnV23he/gWaXwc67+d612Eua8PiNZzzMsqWdC/bN3+tGWUUl7aPesQs8FrX186PW33fjDLy63vnbRGBfgTJ1ceq93ywfRJlN6OMenX0XvnnSbtoFwYYYIABBhhggAEGGGCAAQYYYIABBhhggAEGjs2A4FpwXRpcF2dR5wFcI/fNDq6L1+sull32gc9nck+Ye06K+pdt47W+XxSHPzycpjw1OQv9T5pxYnri7ScG3Hbrdr6dznj49KyMc+dNSDHzeKBt3Ywynnv3ufTlmSdn9ehvpYBa9RtsGTGDfOrzt2Z1iM/MXa/cNeC2aEafNKOMWm3k9b6fI22iTRhggAEGGGCAAQYYYIABBhhggAEGGGCAAQYYGJwBwbXgut/gOq5FHUFwI7dY8jv/UDZjxrXgenAf8Lwv6t3HUtpxHfN8YMJAZ0tHUHvPyrsr+8d1puN60fWOWf1eM8qIpb7z66HHuRzLTOdmlPHe3vdShPd5e05ceHnDy4Tn7TLYPolymlFGXh/3Q/851MbamAEGGGCAAQYYYIABBhhggAEGGGCAAQYYYGCsGxBcC65Lg+viUuERXB/tPjqgIDI+WM0Iro9lqfALF1yQ9h7aM+D6jsUvg+LS2BFeR+gcS2zPf/PRhtuvuDR2Puv67EfOShv3bBjWMvKlseP62nkQf9GCC9PuQ7sbrsdgyygueX7KrHFp3KwvZwH2j176UYpwvhFjzeiTZpTRSF1t458oBhhggAEGGGCAAQYYYIABBhhggAEGGGCAAQYYaJYBwbXgujRgjpDtmqevyUK3uGb09g+2NxS6FWE2I7iOa1XH8WP2alzDOq5lXTxG/rjR7fLtm3G/efOWdN75F6RPfuoz6b77H0rd3d2ldWvGsYaijJhdHLOr89nJL29+udfzRq7LHEuCxzWxo4yYWfzLbb/s9byzq7PfNmlGGVHXmGEd9YhzinMpPo9z7a8NB1tGfGbimtoR/McAgFhyvfi8kVnozeiTZpTRX1t53z8hDDDAAAMMMMAAAwwwwAADDDDAAAMMMMAAAwww0GwDgmvBdWlwHdAWrF2QhXADnYGbI21GcB1hYL78cwSRa3esLQ0gV7y/ojK79Y4Xby/dJq9XM+4jpL7xplvSx447Prt9/BOfTsufe37Ij9uMuudlPP7WYylmJ0f/3v/qfVndizN1+1viOgLSYt+s+fWarIx8BnaUG8FtvZnGzSgjwvHLnrg0C61jkEPM0o9zrMyebmDp8maUUVya+4Zl12erFBRnYEfA39+1vwfbJ3HezSgjN+LePx0MMMAAAwwwwAADDDDAAAMMMMAAAwwwwAADDDAwXAYE14LrmsF1McQ8Z+7ZqWPbb4PJMpyxHPODqx/otSxzM4LrONbSjUuzgDWfTRthZ7EOETpGyBrvx/LMKzev7PV+cdtmPe7q6koTJ02pBNcRYM+dN3/Ij9us+r+1Y2068+Ezsjab8tTkFAFrXvaK91/K2jHa85bnflAzeM6D4Qio43G+fwTVsTR27B8zjyPIzt+rvh9sGXGsqGPZscLJt5dclb0X5xrnXH38eN6MMoqfla/OPz/F8/xYsWR6LJ0edaxu63ybuG9GnzSjjGKdPPbPCAMMMMAAAwwwwAADDDDAAAMMMMAAAwwwwAADDAyXAcG14LpmcB0IY3njCB8jdBs3a1y6efnN2aznbQe2ZbNH41rIExdOzGbtTph7TorXc7zNCq6Ls1YjJL3iqSmpY1tHdqwIWeM6xlG/uOUzXfM6DNX9SJ5xXQz6z503Ib23971Kn0V7RZDb3xLXxWW1Y9Z1vcEEtWYaN6OMos97Vt7dJ2SvXoY8zr3axGDLiHPPl1yPa2vHzOtax6g1C70ZfdKMMqrr7bl/RhhggAEGGGCAAQYYYIABBhhggAEGGGCAAQYYYGC4DAiuBdd1g+uA+MzGZ9Jpc8ZXwuE8JK6+jxC0eC3sZgXXUYdY/vnCBRfUrcNVi69MZcHkUH2YRuI1rhsJpaO96oWgxfdqhdJRRr1guhllNBJKRz3qBdPNKCMvv1YoHXWoF243o0+aUUbU000bMMAAAwwwwAADDDDAAAMMMMAAAwwwwAADDDDAQKsMCK5HYVjz2tbXUsz8jFs8znEtXr84C34bnRmd7xf3+7r2ZddB/tr8r1ZmYEdQF0swX73k6mw5764PuyrHin2aGVxHeTHzet4b81KxDjEb/NLHL0lPb1iSunu6ex2/WH+Pf/slu3TjM5X+i1nC1TOli+0U16yO64rHAIX8etfRxjcvvyl7Ldo+QtviPtWP49rZ4aQY6jajjAOHD6TJT34zq0fUMULy6mPnz492H81m4sd5FOvcjDJi5n++5HreRvlxq+9j8EVcgzvqUQz8B9sncZxmlFFdX8/9Y8IAAwwwwAADDDDAAAMMMMAAAwwwwAADDDDAAAPDaUBwPQqD6+EE5Fi+sBhggAEGGGCAAQYYYIABBhhggAEGGGCAAQYYYIABBhhgYLAGBNeC65ozVQeLy/6+oBhggAEGGGCAAQYYYIABBhhggAEGGGCAAQYYYIABBhhgoBEDgmvBteCaAQYYYIABBhhggAEGGGCAAQYYYIABBhhggAEGGGCAAQYYaKkBwTWALQXYyOgK2xiFwwADDDDAAAMMMMAAAwwwwAADDDDAAAMMMMAAAwwwwMDoNiC4FlwLrhlggAEGGGCAAQYYYIABBhhggAEGGGCAAQYYYIABBhhggIGWGhBcA9hSgEbGjO6RMfpX/zLAAAMMMMAAAwwwwAADDDDAAAMMMMAAAwwwwAADDDRiQHAtuBZcM8AAAwwwwAADDDDAAAMMMMAAAwwwwAADDDDAAAMMMMAAAy01ILgGsKUAGxldYRujcBhggAEGGGCAAQYYYIABBhhggAEGGGCAAQYYYIABBhgY3QYE14JrwTUDDDDAAAMMMMAAAwwwwAADDDDAAAMMMMAAAwwwwAADDDDQUgOCawBbCtDImNE9Mkb/6l8GGGCAAQYYYIABBhhggAEGGGCAAQYYYIABBhhggIFGDAiuBdeCawYYYIABBhhggAEGGGCAAQYYYIABBhhggAEGGGCAAQYYYKClBgTXALYUYCOjK2xjFA4DDDDAAAMMMMAAAwwwwAADDDDAAAMMMMAAAwwwwAADo9uA4FpwLbhmgAEGGGCAAQYYYIABBhhggAEGGGCAAQYYYIABBhhggAEGWmqgrYLrrq6utGfP3tTZ2Zm6u7tb2jBGbIzuERv6V/8ywAADDDDAAAMMMMAAAwwwwAADDDDAAAMMMMAAAwww0D4G2iq4njtvfvrYccdXbieePD49sfBJIbbRHQYxMMAAAwwwwAADDDDAAAMMMMAAAwwwwAADDDDAAAMMMMDAKDbQ1sF1hNgf/8Sn0/yfPwbhKEZoJEv7jGTRF/qCAQYYYIABBhhggAEGGGCAAQYYYIABBhhggAEGGGCgFQbaKrjOGyCWCV+9+vV0womnZLOvL7jw0vTBBx8Ir4XXDDDAAAMMMMAAAwwwwAADDDDAAAMMMMAAAwwwwAADDDDAwCg00JbBdR5gP/Dg9Cy4PunL49Ou3bsBHIUA8752b+QOAwwwwAADDDDAAAMMMMAAAwwwwAADDDDAAAMMMMAAA2PXQFsH10uXLc+C689/4Ytpw8Z3BNeCawYYYIABBhhggAEGGGCAAQYYYIABBhhggAEGGGCAAQYYYGAUGmjr4PqVV1YJrkchOiNlxu5IGX2v7xlggAEGGGCAAQYYYIABBhhggAEGGGCAAQYYYIABBsoMCK4Fw0akMMAAAwwwwAADDDDAAAMMMMAAAwwwwAADDDDAAAMMMMAAAy01ILgGsKUAy0ZTeM0oGwYYYIABBhhggAEGGGCAAQYYYIABBhhggAEGGGCAAQbGlgHBteBacM0AAwwwwAADDDDAAAMMMMAAAwwwwAADDDDAAAMMMMAAAwy01MCICK7/4i//Or2+pqOlDWVEx9ga0aG/9TcDDDDAAAMMMMAAAwwwwAADDDDAAAMMMMAAAwwwwAADw2egrYPrN9e+lf76b/5r+thxx6fvX39z6u7uFl4b6cEAAwwwwAADDDDAAAMMMMAAAwwwwAADDDDAAAMMMMAAAwyMMgNtHVx3dXWlKd/6dhZcR3j9tX+4OL3wwktp1+7dqbOzU5A9yjAasTJ8I1a0tbZmgAEGGGCAAQYYYIABBhhggAEGGGCAAQYYYIABBhhoJwNtHVxHQ+3d25l+eNuP0l999nOVADtC7M9/4Ytpw8Z3jKQQXjPAAAMMMMAAAwwwwAADDDDAAAMMMMAAAwwwwAADDDDAAAMj3EDbB9dbt/46XXzpxPTxT3xacD3CsbXTiA11MYKIAQYYYIABBhhggAEGGGCAAQYYYIABBhhggAEGGGCAgfYx0NbB9cGDB9NFl1yeBdYRXN/xo5+kbdu3p48++siICSE2AwwwwAADDDDAAAMMMMAAAwwwwAADDDDAAAMMMMAAAwwwMEoMtHVw/ebat9Jf/81/zYLrCK27u7vBGyXwjF5pn9Er+kJfMMAAAwwwwAADDDDAAAMMMMAAAwwwwAADDDDAAAMMtNpAWwfXr7yyKgutI7yOELvVjeX4PrAMMMAAAwwwwAADDDDAAAMMMMAAAwwwwAADDDDAAAMMMMBA8w2MiOD681/4Ytqw8R3BtdnWDDDAAAMMMMAAAwwwwAADDDDAAAMMMMAAAwwwwAADDDDAwCg0ILgehZ1qhEfzR3hoU23KAAMMMMAAAwwwwAADDDDAAAMMMMAAAwwwwAADDDDAwNAZEFwLro1IYYABBhhggAEGGGCAAQYYYIABBhhggAEGGGCAAQYYYIABBlpqQHANYEsBGpUydKNStK22ZYABBhhggAEGGGCAAQYYYIABBhhggAEGGGCAAQYYGCkG2jq4fuoXi9PHjjs+uca1D9RI+UCpJ6sMMMAAAwwwwAADDDDAAAMMMMAAAwwwwAADDDDAAAMMDNxAWwfXP/3Z3VlwPe6UM9KePXvNDDY7nAEGGGCAAQYYYIABBhhggAEGGGCAAQYYYIABBhhggAEGGBiFBtoquO7q6soC6h07dqYnFj6ZzbSOGdcTJ01J8Z6RCQMfmaDNtBkDDDDAAAMMMMAAAwwwwAADDDDAAAMMMMAAAwwwwAADDLS7gbYKrufOm5/NsI6wOr/91Wc/l158aYXQehSOmmj3D4f6+QJngAEGGGCAAQYYYIABBhhggAEGGGCAAQYYYIABBhhgYHgMtG1w/X//9y+lb3/nuvSrX61PPT09gmvBNQMMMMAAAwwwwAADDDDAAAMMMMAAAwwwwAADDDDAAAMMMDBKDbRVcG20wvCMVtDO2pkBBhhggAEGGGCAAQYYYIABBhhggAEGGGCAAQYYYIABBtrJgOB6lI5IaCdk6uJLjwEGGGCAAQYYYIABBhhggAEGGGCAAQYYYIABBhhggAEG6hkQXAuuLafAAAMMMMAAAwwwwAADDDDAAAMMMMAAAwwwwAADDDDAAAMMtNSA4BrAlgKsN6rCe0bdMMAAAwwwwAADDDDAAAMMMMAAAwwwwAADDDDAAAMMMDA2DAiuBdeCawYYYIABBhhggAEGGGCAAQYYYIABBhhggAEGGGCAAQYYYKClBgTXALYUoBEyY2OEjH7WzwwwwAADDDDAAAMMMMAAAwwwwAADDDDAAAMMMMAAA/UMCK4F14JrBhhggAEGGGCAAQYYYIABBhhggAEGGGCAAQYYYIABBhhgoKUGBNcAthRgvVEV3jPqhgEGGGCAAQYYYIABBhhggAEGGGCAAQYYYIABBhhggIGxYUBwLbgWXDPAAAMMMMAAAwwwwAADDDDAAAMMMMAAAwwwwAADDDDAAAMtNSC4BrClAI2QGRsjZPSzfmaAAQYYYIABBhhggAEGGGCAAQYYYIABBhhggAEGGKhnQHAtuBZcM8AAAwwwwAADDDDAAAMMMMAAAwwwwAADDDDAAAMMMMAAAy01ILgGsKUA642q8J5RNwwwwAADDDDAAAMMMMAAAwwwwAADDDDAAAMMMMAAAwyMDQOCa8G14JoBBhhggAEGGGCAAQYYYIABBhhggAEGGGCAAQYYYIABBhhoqQHBNYAtBWiEzNgYIaOf9TMDDDDAAAMMMMAAAwwwwAADDDDAAAMMMMAAAwwwwEA9A4JrwbXgmgEGGGCAAQYYYIABBhhggAEGGGCAAQYYYIABBhhggAEGGGipAcE1gC0FWG9UhfeMumGAAQYYYIABBhhggAEGGGCAAQYYYIABBhhggAEGGGBgbBgQXAuuBdcMMMAAAwwwwAADDDDAAAMMMMAAAwwwwAADDDDAAAMMMMBASw0IrgFsKUAjZMbGCBn9rJ8ZYIABBhhggAEGGGCAAQYYYIABBhhggAEGGGCAAQbqGRBcC64F1wwwwAADDDDAAAMMMMAAAwwwwAADDDDAAAMMMMAAAwwwwEBLDQiuAWwpwHqjKrxn1A0DDDDAAAMMMMAAAwwwwAADDDDAAAMMMMAAAwwwwAADY8OA4FpwLbhmgAEGGGCAAQYYYIABBhhggAEGGGCAAQYYYIABBhhggAEGWmpAcA1gSwEaITM2RsjoZ/3MAAMMMMAAAwwwwAADDDDAAAMMMMAAAwwwwAADDDBQz4DgWnAtuGaAAQYYYIABBhhggAEGGGCAAQYYYIABBhhggAEGGGCAAQZaakBwDWBLAdYbVeE9o24YYIABBhhggAEGGGCAAQYYYIABBhhggAEGGGCAAQYYGBsGBNeCa8E1AwwwwAADDDDAAAMMMMAAAwwwwAAzTqxRAAAEsUlEQVQDDDDAAAMMMMAAAwww0FIDgmsAWwrQCJmxMUJGP+tnBhhggAEGGGCAAQYYYIABBhhggAEGGGCAAQYYYICBegYE14JrwTUDDDDAAAMMMMAAAwwwwAADDDDAAAMMMMAAAwwwwAADDDDQUgOCawBbCrDeqArvGXXDAAMMMMAAAwwwwAADDDDAAAMMMMAAAwwwwAADDDDAwNgwILgWXAuuGWCAAQYYYIABBhhggAEGGGCAAQYYYIABBhhggAEGGGCAgZYaEFwD2FKARsiMjREy+lk/M8AAAwwwwAADDDDAAAMMMMAAAwwwwAADDDDAAAMM1DMguBZcC64ZYIABBhhggAEGGGCAAQYYYIABBhhggAEGGGCAAQYYYICBlhoQXAPYUoD1RlV4z6gbBhhggAEGGGCAAQYYYIABBhhggAEGGGCAAQYYYIABBsaGAcG14FpwzQADDDDAAAMMMMAAAwwwwAADDDDAAAMMMMAAAwwwwAADDLTUgOAawJYCNEJmbIyQ0c/6mQEGGGCAAQYYYIABBhhggAEGGGCAAQYYYIABBhhgoJ4BwbXgWnDNAAMMMMAAAwwwwAADDDDAAAMMMMAAAwwwwAADDDDAAAMMtNSA4BrAlgKsN6rCe0bdMMAAAwwwwAADDDDAAAMMMMAAAwwwwAADDDDAAAMMMDA2DAiuBdeCawYYYIABBhhggAEGGGCAAQYYYIABBhhggAEGGGCAAQYYYKClBgTXALYUoBEyY2OEjH7WzwwwwAADDDDAAAMMMMAAAwwwwAADDDDAAAMMMMAAA/UMCK4F14JrBhhggAEGGGCAAQYYYIABBhhggAEGGGCAAQYYYIABBhhgoKUGBNcAthRgvVEV3jPqhgEGGGCAAQYYYIABBhhggAEGGGCAAQYYYIABBhhggIGxYUBwLbgWXDPAAAMMMMAAAwwwwAADDDDAAAMMMMAAAwwwwAADDDDAAAMtNZAF1//4j//Y0koYJTE2RknoZ/3MAAMMMMAAAwwwwAADDDDAAAMMMMAAAwwwwAADDDDAAANlBgTXRk4YtMAAAwwwwAADDDDAAAMMMMAAAwwwwAADDDDAAAMMMMAAAwy01EAWXP/zP/9zSytRlqh7zUgLBhhggAEGGGCAAQYYYIABBhhggAEGGGCAAQYYYIABBhhgYGwYyILrlFKyXPjY6HAfbP3MAAMMMMAAAwwwwAADDDDAAAMMMMAAAwwwwAADDDDAAAPtZCCy6kpwbdY1nO2EU114ZIABBhhggAEGGGCAAQYYYIABBhhggAEGGGCAAQYYYGBsGIisuhJcx6zrf/qnf7JkuLXrGWCAAQYYYIABBhhggAEGGGCAAQYYYIABBhhggAEGGGCAAQaGxUBk1PHXK7gWXo+NEQtGpuhnBhhggAEGGGCAAQYYYIABBhhggAEGGGCAAQYYYIABBhhotYE8tC4NruPFmIrtmtegthqq4zPIAAMMMMAAAwwwwAADDDDAAAMMMMAAAwwwwAADDDDAwOgzEFl0ZNLFvz4zrotv5gG2EHv0YfAB16cMMMAAAwwwwAADDDDAAAMMMMAAAwwwwAADDDDAAAMMMDBcBiJzLgus83z6/wfGc4/HYP8PtQAAAABJRU5ErkJggg==;clipPath=inset(12.03% 44% 4.43% 1%);" vertex="1" parent="1">
          <mxGeometry x="850" y="10" width="650" height="260" as="geometry" />
        </mxCell>
        <mxCell id="0jX1YbAM3DAvTDGvD8Pi-4" style="edgeStyle=orthogonalEdgeStyle;rounded=0;orthogonalLoop=1;jettySize=auto;html=1;exitX=0.5;exitY=1;exitDx=0;exitDy=0;exitPerimeter=0;entryX=0.5;entryY=0;entryDx=0;entryDy=0;" edge="1" parent="1" source="0jX1YbAM3DAvTDGvD8Pi-2" target="0jX1YbAM3DAvTDGvD8Pi-3">
          <mxGeometry relative="1" as="geometry" />
        </mxCell>
        <mxCell id="0jX1YbAM3DAvTDGvD8Pi-2" value="Sass下发添加人脸布控管理" style="strokeWidth=2;html=1;shape=mxgraph.flowchart.start_1;whiteSpace=wrap;fillColor=#d5e8d4;strokeColor=#82b366;" vertex="1" parent="1">
          <mxGeometry x="1160" y="310" width="100" height="60" as="geometry" />
        </mxCell>
        <mxCell id="0jX1YbAM3DAvTDGvD8Pi-7" style="edgeStyle=orthogonalEdgeStyle;rounded=0;orthogonalLoop=1;jettySize=auto;html=1;exitX=0.5;exitY=1;exitDx=0;exitDy=0;entryX=0.5;entryY=0;entryDx=0;entryDy=0;" edge="1" parent="1" source="0jX1YbAM3DAvTDGvD8Pi-3" target="0jX1YbAM3DAvTDGvD8Pi-6">
          <mxGeometry relative="1" as="geometry" />
        </mxCell>
        <mxCell id="0jX1YbAM3DAvTDGvD8Pi-20" value="Yes" style="edgeLabel;html=1;align=center;verticalAlign=middle;resizable=0;points=[];" vertex="1" connectable="0" parent="0jX1YbAM3DAvTDGvD8Pi-7">
          <mxGeometry x="-0.3333" relative="1" as="geometry">
            <mxPoint as="offset" />
          </mxGeometry>
        </mxCell>
        <mxCell id="0jX1YbAM3DAvTDGvD8Pi-3" value="参数校验" style="rhombus;whiteSpace=wrap;html=1;fillColor=#fff2cc;strokeColor=#d6b656;" vertex="1" parent="1">
          <mxGeometry x="1170" y="390" width="80" height="80" as="geometry" />
        </mxCell>
        <mxCell id="0jX1YbAM3DAvTDGvD8Pi-6" value="校验是否存在对应的库和通道" style="swimlane;whiteSpace=wrap;html=1;" vertex="1" parent="1">
          <mxGeometry x="1075" y="510" width="270" height="460" as="geometry" />
        </mxCell>
        <mxCell id="0jX1YbAM3DAvTDGvD8Pi-13" style="edgeStyle=orthogonalEdgeStyle;rounded=0;orthogonalLoop=1;jettySize=auto;html=1;exitX=0.5;exitY=1;exitDx=0;exitDy=0;entryX=0.5;entryY=0;entryDx=0;entryDy=0;" edge="1" parent="0jX1YbAM3DAvTDGvD8Pi-6" source="0jX1YbAM3DAvTDGvD8Pi-8" target="0jX1YbAM3DAvTDGvD8Pi-9">
          <mxGeometry relative="1" as="geometry" />
        </mxCell>
        <mxCell id="0jX1YbAM3DAvTDGvD8Pi-8" value="根据库ID从数据表Repository中查库" style="rounded=0;whiteSpace=wrap;html=1;fillColor=#dae8fc;strokeColor=#6c8ebf;" vertex="1" parent="0jX1YbAM3DAvTDGvD8Pi-6">
          <mxGeometry x="45" y="26" width="110" height="45" as="geometry" />
        </mxCell>
        <mxCell id="0jX1YbAM3DAvTDGvD8Pi-14" style="edgeStyle=orthogonalEdgeStyle;rounded=0;orthogonalLoop=1;jettySize=auto;html=1;exitX=0.5;exitY=1;exitDx=0;exitDy=0;entryX=0.5;entryY=0;entryDx=0;entryDy=0;" edge="1" parent="0jX1YbAM3DAvTDGvD8Pi-6" source="0jX1YbAM3DAvTDGvD8Pi-9" target="0jX1YbAM3DAvTDGvD8Pi-10">
          <mxGeometry relative="1" as="geometry" />
        </mxCell>
        <mxCell id="0jX1YbAM3DAvTDGvD8Pi-21" value="No" style="edgeLabel;html=1;align=center;verticalAlign=middle;resizable=0;points=[];" vertex="1" connectable="0" parent="0jX1YbAM3DAvTDGvD8Pi-14">
          <mxGeometry x="-0.5333" y="2" relative="1" as="geometry">
            <mxPoint as="offset" />
          </mxGeometry>
        </mxCell>
        <mxCell id="0jX1YbAM3DAvTDGvD8Pi-9" value="库存在" style="rhombus;whiteSpace=wrap;html=1;fillColor=#fff2cc;strokeColor=#d6b656;" vertex="1" parent="0jX1YbAM3DAvTDGvD8Pi-6">
          <mxGeometry x="60" y="90" width="80" height="70" as="geometry" />
        </mxCell>
        <mxCell id="0jX1YbAM3DAvTDGvD8Pi-15" style="edgeStyle=orthogonalEdgeStyle;rounded=0;orthogonalLoop=1;jettySize=auto;html=1;exitX=0.5;exitY=1;exitDx=0;exitDy=0;entryX=0.5;entryY=0;entryDx=0;entryDy=0;" edge="1" parent="0jX1YbAM3DAvTDGvD8Pi-6" source="0jX1YbAM3DAvTDGvD8Pi-10" target="0jX1YbAM3DAvTDGvD8Pi-11">
          <mxGeometry relative="1" as="geometry" />
        </mxCell>
        <mxCell id="0jX1YbAM3DAvTDGvD8Pi-28" value="No" style="edgeLabel;html=1;align=center;verticalAlign=middle;resizable=0;points=[];" vertex="1" connectable="0" parent="0jX1YbAM3DAvTDGvD8Pi-15">
          <mxGeometry x="-0.3333" relative="1" as="geometry">
            <mxPoint as="offset" />
          </mxGeometry>
        </mxCell>
        <mxCell id="0jX1YbAM3DAvTDGvD8Pi-10" value="静态库" style="rhombus;whiteSpace=wrap;html=1;fillColor=#fff2cc;strokeColor=#d6b656;" vertex="1" parent="0jX1YbAM3DAvTDGvD8Pi-6">
          <mxGeometry x="60" y="190" width="80" height="70" as="geometry" />
        </mxCell>
        <mxCell id="0jX1YbAM3DAvTDGvD8Pi-16" style="edgeStyle=orthogonalEdgeStyle;rounded=0;orthogonalLoop=1;jettySize=auto;html=1;exitX=0.5;exitY=1;exitDx=0;exitDy=0;entryX=0.5;entryY=0;entryDx=0;entryDy=0;" edge="1" parent="0jX1YbAM3DAvTDGvD8Pi-6" source="0jX1YbAM3DAvTDGvD8Pi-11" target="0jX1YbAM3DAvTDGvD8Pi-12">
          <mxGeometry relative="1" as="geometry" />
        </mxCell>
        <mxCell id="0jX1YbAM3DAvTDGvD8Pi-11" value="&lt;font style=&quot;font-size: 12px;&quot;&gt;根据库ID和channelID从数据表&lt;span style=&quot;font-family: &amp;quot;JetBrains Mono&amp;quot;, monospace;&quot;&gt;surveillance查询布控&lt;/span&gt;&lt;/font&gt;" style="rounded=0;whiteSpace=wrap;html=1;fillColor=#dae8fc;strokeColor=#6c8ebf;align=center;verticalAlign=middle;fontFamily=Helvetica;fontSize=12;fontColor=default;" vertex="1" parent="0jX1YbAM3DAvTDGvD8Pi-6">
          <mxGeometry x="32.5" y="290" width="135" height="45" as="geometry" />
        </mxCell>
        <mxCell id="0jX1YbAM3DAvTDGvD8Pi-12" value="布控已存在" style="rhombus;whiteSpace=wrap;html=1;fillColor=#fff2cc;strokeColor=#d6b656;" vertex="1" parent="0jX1YbAM3DAvTDGvD8Pi-6">
          <mxGeometry x="60" y="350" width="80" height="80" as="geometry" />
        </mxCell>
        <mxCell id="0jX1YbAM3DAvTDGvD8Pi-22" value="抛出异常" style="strokeWidth=2;html=1;shape=mxgraph.flowchart.start_1;whiteSpace=wrap;fillColor=#f8cecc;strokeColor=#b85450;" vertex="1" parent="0jX1YbAM3DAvTDGvD8Pi-6">
          <mxGeometry x="185" y="100" width="80" height="50" as="geometry" />
        </mxCell>
        <mxCell id="0jX1YbAM3DAvTDGvD8Pi-23" style="edgeStyle=orthogonalEdgeStyle;rounded=0;orthogonalLoop=1;jettySize=auto;html=1;exitX=1;exitY=0.5;exitDx=0;exitDy=0;entryX=0;entryY=0.5;entryDx=0;entryDy=0;entryPerimeter=0;" edge="1" parent="0jX1YbAM3DAvTDGvD8Pi-6" source="0jX1YbAM3DAvTDGvD8Pi-9" target="0jX1YbAM3DAvTDGvD8Pi-22">
          <mxGeometry relative="1" as="geometry" />
        </mxCell>
        <mxCell id="0jX1YbAM3DAvTDGvD8Pi-24" value="Yes" style="edgeLabel;html=1;align=center;verticalAlign=middle;resizable=0;points=[];" vertex="1" connectable="0" parent="0jX1YbAM3DAvTDGvD8Pi-23">
          <mxGeometry x="-0.2" y="2" relative="1" as="geometry">
            <mxPoint as="offset" />
          </mxGeometry>
        </mxCell>
        <mxCell id="0jX1YbAM3DAvTDGvD8Pi-25" value="抛出异常" style="strokeWidth=2;html=1;shape=mxgraph.flowchart.start_1;whiteSpace=wrap;fillColor=#f8cecc;strokeColor=#b85450;" vertex="1" parent="0jX1YbAM3DAvTDGvD8Pi-6">
          <mxGeometry x="185" y="200" width="80" height="50" as="geometry" />
        </mxCell>
        <mxCell id="0jX1YbAM3DAvTDGvD8Pi-26" style="edgeStyle=orthogonalEdgeStyle;rounded=0;orthogonalLoop=1;jettySize=auto;html=1;exitX=1;exitY=0.5;exitDx=0;exitDy=0;entryX=0;entryY=0.5;entryDx=0;entryDy=0;entryPerimeter=0;" edge="1" parent="0jX1YbAM3DAvTDGvD8Pi-6" source="0jX1YbAM3DAvTDGvD8Pi-10" target="0jX1YbAM3DAvTDGvD8Pi-25">
          <mxGeometry relative="1" as="geometry" />
        </mxCell>
        <mxCell id="0jX1YbAM3DAvTDGvD8Pi-27" value="Yes" style="edgeLabel;html=1;align=center;verticalAlign=middle;resizable=0;points=[];" vertex="1" connectable="0" parent="0jX1YbAM3DAvTDGvD8Pi-26">
          <mxGeometry x="-0.2" y="2" relative="1" as="geometry">
            <mxPoint as="offset" />
          </mxGeometry>
        </mxCell>
        <mxCell id="0jX1YbAM3DAvTDGvD8Pi-29" value="返回布控ID" style="strokeWidth=2;html=1;shape=mxgraph.flowchart.start_1;whiteSpace=wrap;fillColor=#d5e8d4;strokeColor=#82b366;" vertex="1" parent="0jX1YbAM3DAvTDGvD8Pi-6">
          <mxGeometry x="185" y="365" width="80" height="50" as="geometry" />
        </mxCell>
        <mxCell id="0jX1YbAM3DAvTDGvD8Pi-31" style="edgeStyle=orthogonalEdgeStyle;rounded=0;orthogonalLoop=1;jettySize=auto;html=1;exitX=1;exitY=0.5;exitDx=0;exitDy=0;entryX=0;entryY=0.5;entryDx=0;entryDy=0;entryPerimeter=0;" edge="1" parent="0jX1YbAM3DAvTDGvD8Pi-6" source="0jX1YbAM3DAvTDGvD8Pi-12" target="0jX1YbAM3DAvTDGvD8Pi-29">
          <mxGeometry relative="1" as="geometry" />
        </mxCell>
        <mxCell id="0jX1YbAM3DAvTDGvD8Pi-32" value="Yes" style="edgeLabel;html=1;align=center;verticalAlign=middle;resizable=0;points=[];" vertex="1" connectable="0" parent="0jX1YbAM3DAvTDGvD8Pi-31">
          <mxGeometry x="-0.1" y="-2" relative="1" as="geometry">
            <mxPoint as="offset" />
          </mxGeometry>
        </mxCell>
        <mxCell id="0jX1YbAM3DAvTDGvD8Pi-17" value="抛出异常" style="strokeWidth=2;html=1;shape=mxgraph.flowchart.start_1;whiteSpace=wrap;fillColor=#f8cecc;strokeColor=#b85450;" vertex="1" parent="1">
          <mxGeometry x="1300" y="405" width="80" height="50" as="geometry" />
        </mxCell>
        <mxCell id="0jX1YbAM3DAvTDGvD8Pi-18" style="edgeStyle=orthogonalEdgeStyle;rounded=0;orthogonalLoop=1;jettySize=auto;html=1;exitX=1;exitY=0.5;exitDx=0;exitDy=0;entryX=0;entryY=0.5;entryDx=0;entryDy=0;entryPerimeter=0;" edge="1" parent="1" source="0jX1YbAM3DAvTDGvD8Pi-3" target="0jX1YbAM3DAvTDGvD8Pi-17">
          <mxGeometry relative="1" as="geometry" />
        </mxCell>
        <mxCell id="0jX1YbAM3DAvTDGvD8Pi-19" value="No" style="edgeLabel;html=1;align=center;verticalAlign=middle;resizable=0;points=[];" vertex="1" connectable="0" parent="0jX1YbAM3DAvTDGvD8Pi-18">
          <mxGeometry x="-0.16" y="2" relative="1" as="geometry">
            <mxPoint as="offset" />
          </mxGeometry>
        </mxCell>
        <mxCell id="0jX1YbAM3DAvTDGvD8Pi-36" style="edgeStyle=orthogonalEdgeStyle;rounded=0;orthogonalLoop=1;jettySize=auto;html=1;exitX=1;exitY=0.25;exitDx=0;exitDy=0;" edge="1" parent="1" source="0jX1YbAM3DAvTDGvD8Pi-33" target="0jX1YbAM3DAvTDGvD8Pi-35">
          <mxGeometry relative="1" as="geometry" />
        </mxCell>
        <mxCell id="0jX1YbAM3DAvTDGvD8Pi-33" value="插入数据库并告诉算子资源需要在&lt;div&gt;哪些资源添加布控&lt;/div&gt;" style="swimlane;whiteSpace=wrap;html=1;startSize=40;fillColor=#dae8fc;strokeColor=#6c8ebf;" vertex="1" parent="1">
          <mxGeometry x="1077.5" y="980" width="265" height="530" as="geometry" />
        </mxCell>
        <mxCell id="0jX1YbAM3DAvTDGvD8Pi-39" style="edgeStyle=orthogonalEdgeStyle;rounded=0;orthogonalLoop=1;jettySize=auto;html=1;exitX=0.5;exitY=1;exitDx=0;exitDy=0;entryX=0.5;entryY=0;entryDx=0;entryDy=0;" edge="1" parent="0jX1YbAM3DAvTDGvD8Pi-33" source="0jX1YbAM3DAvTDGvD8Pi-37" target="0jX1YbAM3DAvTDGvD8Pi-38">
          <mxGeometry relative="1" as="geometry" />
        </mxCell>
        <mxCell id="0jX1YbAM3DAvTDGvD8Pi-37" value="将布控信息插入到数据表surveillance中" style="rounded=0;whiteSpace=wrap;html=1;fillColor=#dae8fc;strokeColor=#6c8ebf;" vertex="1" parent="0jX1YbAM3DAvTDGvD8Pi-33">
          <mxGeometry x="30" y="50" width="120" height="50" as="geometry" />
        </mxCell>
        <mxCell id="0jX1YbAM3DAvTDGvD8Pi-44" style="edgeStyle=orthogonalEdgeStyle;rounded=0;orthogonalLoop=1;jettySize=auto;html=1;exitX=0.5;exitY=1;exitDx=0;exitDy=0;entryX=0.5;entryY=0;entryDx=0;entryDy=0;" edge="1" parent="0jX1YbAM3DAvTDGvD8Pi-33" source="0jX1YbAM3DAvTDGvD8Pi-38" target="0jX1YbAM3DAvTDGvD8Pi-43">
          <mxGeometry relative="1" as="geometry" />
        </mxCell>
        <mxCell id="0jX1YbAM3DAvTDGvD8Pi-38" value="插入成功" style="rhombus;whiteSpace=wrap;html=1;fillColor=#fff2cc;strokeColor=#d6b656;" vertex="1" parent="0jX1YbAM3DAvTDGvD8Pi-33">
          <mxGeometry x="55.25" y="120" width="69.5" height="61" as="geometry" />
        </mxCell>
        <mxCell id="0jX1YbAM3DAvTDGvD8Pi-40" value="抛出异常" style="strokeWidth=2;html=1;shape=mxgraph.flowchart.start_1;whiteSpace=wrap;fillColor=#f8cecc;strokeColor=#b85450;" vertex="1" parent="0jX1YbAM3DAvTDGvD8Pi-33">
          <mxGeometry x="172.5" y="125.5" width="80" height="50" as="geometry" />
        </mxCell>
        <mxCell id="0jX1YbAM3DAvTDGvD8Pi-41" style="edgeStyle=orthogonalEdgeStyle;rounded=0;orthogonalLoop=1;jettySize=auto;html=1;exitX=1;exitY=0.5;exitDx=0;exitDy=0;entryX=0;entryY=0.5;entryDx=0;entryDy=0;entryPerimeter=0;" edge="1" parent="0jX1YbAM3DAvTDGvD8Pi-33" source="0jX1YbAM3DAvTDGvD8Pi-38" target="0jX1YbAM3DAvTDGvD8Pi-40">
          <mxGeometry relative="1" as="geometry" />
        </mxCell>
        <mxCell id="0jX1YbAM3DAvTDGvD8Pi-42" value="No" style="edgeLabel;html=1;align=center;verticalAlign=middle;resizable=0;points=[];" vertex="1" connectable="0" parent="0jX1YbAM3DAvTDGvD8Pi-41">
          <mxGeometry x="-0.1728" y="2" relative="1" as="geometry">
            <mxPoint y="1" as="offset" />
          </mxGeometry>
        </mxCell>
        <mxCell id="0jX1YbAM3DAvTDGvD8Pi-47" style="edgeStyle=orthogonalEdgeStyle;rounded=0;orthogonalLoop=1;jettySize=auto;html=1;exitX=0.5;exitY=1;exitDx=0;exitDy=0;entryX=0.5;entryY=0;entryDx=0;entryDy=0;" edge="1" parent="0jX1YbAM3DAvTDGvD8Pi-33" source="0jX1YbAM3DAvTDGvD8Pi-43" target="0jX1YbAM3DAvTDGvD8Pi-45">
          <mxGeometry relative="1" as="geometry" />
        </mxCell>
        <mxCell id="0jX1YbAM3DAvTDGvD8Pi-43" value="返回surveillanceId，根据此ID从内存Cache中删除缓存记录" style="rounded=0;whiteSpace=wrap;html=1;fillColor=#dae8fc;strokeColor=#6c8ebf;" vertex="1" parent="0jX1YbAM3DAvTDGvD8Pi-33">
          <mxGeometry x="21.25" y="210" width="137.5" height="50" as="geometry" />
        </mxCell>
        <mxCell id="0jX1YbAM3DAvTDGvD8Pi-48" style="edgeStyle=orthogonalEdgeStyle;rounded=0;orthogonalLoop=1;jettySize=auto;html=1;exitX=0.5;exitY=1;exitDx=0;exitDy=0;entryX=0.5;entryY=0;entryDx=0;entryDy=0;" edge="1" parent="0jX1YbAM3DAvTDGvD8Pi-33" source="0jX1YbAM3DAvTDGvD8Pi-45" target="0jX1YbAM3DAvTDGvD8Pi-46">
          <mxGeometry relative="1" as="geometry" />
        </mxCell>
        <mxCell id="0jX1YbAM3DAvTDGvD8Pi-45" value="构建布控信息路由Request，由rpc调用EX添加布控规则" style="rounded=0;whiteSpace=wrap;html=1;fillColor=#dae8fc;strokeColor=#6c8ebf;" vertex="1" parent="0jX1YbAM3DAvTDGvD8Pi-33">
          <mxGeometry x="30.5" y="290" width="120" height="60" as="geometry" />
        </mxCell>
        <mxCell id="0jX1YbAM3DAvTDGvD8Pi-46" value="添加成功" style="rhombus;whiteSpace=wrap;html=1;fillColor=#fff2cc;strokeColor=#d6b656;" vertex="1" parent="0jX1YbAM3DAvTDGvD8Pi-33">
          <mxGeometry x="55.25" y="369" width="69.5" height="61" as="geometry" />
        </mxCell>
        <mxCell id="0jX1YbAM3DAvTDGvD8Pi-49" value="返回surveillanceID" style="strokeWidth=2;html=1;shape=mxgraph.flowchart.start_1;whiteSpace=wrap;fillColor=#d5e8d4;strokeColor=#82b366;" vertex="1" parent="0jX1YbAM3DAvTDGvD8Pi-33">
          <mxGeometry x="41.88" y="470" width="96.25" height="50" as="geometry" />
        </mxCell>
        <mxCell id="0jX1YbAM3DAvTDGvD8Pi-50" style="edgeStyle=orthogonalEdgeStyle;rounded=0;orthogonalLoop=1;jettySize=auto;html=1;exitX=0.5;exitY=1;exitDx=0;exitDy=0;entryX=0.5;entryY=0;entryDx=0;entryDy=0;entryPerimeter=0;" edge="1" parent="0jX1YbAM3DAvTDGvD8Pi-33" source="0jX1YbAM3DAvTDGvD8Pi-46" target="0jX1YbAM3DAvTDGvD8Pi-49">
          <mxGeometry relative="1" as="geometry" />
        </mxCell>
        <mxCell id="0jX1YbAM3DAvTDGvD8Pi-54" value="Yes" style="edgeLabel;html=1;align=center;verticalAlign=middle;resizable=0;points=[];" vertex="1" connectable="0" parent="0jX1YbAM3DAvTDGvD8Pi-50">
          <mxGeometry x="-0.25" relative="1" as="geometry">
            <mxPoint as="offset" />
          </mxGeometry>
        </mxCell>
        <mxCell id="0jX1YbAM3DAvTDGvD8Pi-51" value="抛出异常" style="strokeWidth=2;html=1;shape=mxgraph.flowchart.start_1;whiteSpace=wrap;fillColor=#f8cecc;strokeColor=#b85450;" vertex="1" parent="0jX1YbAM3DAvTDGvD8Pi-33">
          <mxGeometry x="172.5" y="374.5" width="80" height="50" as="geometry" />
        </mxCell>
        <mxCell id="0jX1YbAM3DAvTDGvD8Pi-52" style="edgeStyle=orthogonalEdgeStyle;rounded=0;orthogonalLoop=1;jettySize=auto;html=1;exitX=1;exitY=0.5;exitDx=0;exitDy=0;entryX=0;entryY=0.5;entryDx=0;entryDy=0;entryPerimeter=0;" edge="1" parent="0jX1YbAM3DAvTDGvD8Pi-33" source="0jX1YbAM3DAvTDGvD8Pi-46" target="0jX1YbAM3DAvTDGvD8Pi-51">
          <mxGeometry relative="1" as="geometry" />
        </mxCell>
        <mxCell id="0jX1YbAM3DAvTDGvD8Pi-53" value="No" style="edgeLabel;html=1;align=center;verticalAlign=middle;resizable=0;points=[];" vertex="1" connectable="0" parent="0jX1YbAM3DAvTDGvD8Pi-52">
          <mxGeometry x="-0.2984" y="3" relative="1" as="geometry">
            <mxPoint y="1" as="offset" />
          </mxGeometry>
        </mxCell>
        <mxCell id="0jX1YbAM3DAvTDGvD8Pi-35" value="出现失败会执行回滚" style="rounded=0;whiteSpace=wrap;html=1;fillColor=#e1d5e7;strokeColor=#9673a6;" vertex="1" parent="1">
          <mxGeometry x="1380" y="1088" width="120" height="50" as="geometry" />
        </mxCell>
      </root>
    </mxGraphModel>
  </diagram>
</mxfile>
